<svg width="120" height="63" viewBox="0 0 120 63" fill="none" xmlns="http://www.w3.org/2000/svg">
<rect x="45" y="2.18188" width="72.8182" height="60.8182" rx="1" fill="#261A4C"/>
<rect x="47.1818" width="72.8182" height="60.8182" rx="1" fill="#ADDDDD"/>
<rect x="48.2727" y="10.0908" width="71.1818" height="49.3636" rx="1" fill="white"/>
<ellipse cx="108" cy="5.4545" rx="1.90909" ry="1.90909" fill="white"/>
<ellipse cx="113.727" cy="5.4545" rx="1.90909" ry="1.90909" fill="white"/>
<rect x="51.5454" y="4.63647" width="28.9091" height="1.90909" rx="0.954545" fill="white"/>
<rect x="51.5454" y="19.9092" width="12.5455" height="1.09091" rx="0.545455" fill="#F56D6D"/>
<rect x="67.6364" y="19.9092" width="21" height="1.09091" rx="0.545455" fill="#F56D6D"/>
<rect x="58.9091" y="26.7273" width="32.1818" height="1.09091" rx="0.545455" fill="#F56D6D"/>
<rect x="6.54541" y="26.7273" width="32.1818" height="1.09091" rx="0.545455" fill="#F56D6D"/>
<rect x="0.272705" y="26.7273" width="5.18182" height="1.09091" rx="0.545455" fill="#F56D6D"/>
<rect x="19.9091" y="33.2727" width="32.1818" height="1.09091" rx="0.545454" fill="#F56D6D"/>
<rect x="12.5454" y="33.2727" width="6.54545" height="1.09091" rx="0.545454" fill="#F56D6D"/>
<rect x="28.0909" y="39.8181" width="10.6364" height="1.09091" rx="0.545456" fill="#F56D6D"/>
<rect x="88.6365" y="48" width="24.5455" height="1.09091" rx="0.545454" fill="#F56D6D"/>
<rect x="69.8182" y="41.1819" width="24.5455" height="1.09091" rx="0.545454" fill="#F56D6D"/>
<rect x="81.5454" y="33.5454" width="24.5455" height="1.09091" rx="0.545454" fill="#F56D6D"/>
<rect x="64.0909" y="33.5454" width="15" height="1.09091" rx="0.545454" fill="#F56D6D"/>
<rect x="108.273" y="31.0908" width="5.45454" height="1.09091" rx="0.545455" fill="#F56D6D"/>
<rect x="100.091" y="26.7273" width="13.0909" height="1.09091" rx="0.545455" fill="#F56D6D"/>
<rect x="106.364" y="22.9092" width="6.81818" height="1.09091" rx="0.545455" fill="#F56D6D"/>
</svg>
