<?xml version="1.0" encoding="UTF-8"?><svg id="uuid-c31feba5-0af4-4695-a523-1603a19a2715" xmlns="http://www.w3.org/2000/svg" viewBox="0 0 1080 1080"><title>SOAR security mini illustration - Black</title>
<desc>Security, Orchestration, Automation, response, gear, automation</desc>
<metadata><?xpacket begin="﻿" id="W5M0MpCehiHzreSzNTczkc9d"?>
<x:xmpmeta xmlns:x="adobe:ns:meta/" x:xmptk="Adobe XMP Core 8.0-c001 1.000000, 0000/00/00-00:00:00        ">
   <rdf:RDF xmlns:rdf="http://www.w3.org/1999/02/22-rdf-syntax-ns#">
      <rdf:Description rdf:about=""
            xmlns:xmp="http://ns.adobe.com/xap/1.0/"
            xmlns:dc="http://purl.org/dc/elements/1.1/"
            xmlns:cq="http://www.day.com/jcr/cq/1.0"
            xmlns:tiff="http://ns.adobe.com/tiff/1.0/">
         <xmp:rhcc-effective-on>2024-01-05T15:47:31.662Z</xmp:rhcc-effective-on>
         <xmp:rhcc-metadata-complete-moderator>pending</xmp:rhcc-metadata-complete-moderator>
         <xmp:rhcc-translation-id>TRA932ff8c6-d737-49e0-9691-fb1fa82c66c3</xmp:rhcc-translation-id>
         <xmp:brand-content-type>Illustration</xmp:brand-content-type>
         <xmp:CreateDate>2024-01-05T15:47:31.662Z</xmp:CreateDate>
         <xmp:rhcc-effective-on-set-on-upload>true</xmp:rhcc-effective-on-set-on-upload>
         <xmp:rhcc-metadata-complete-uploader>pending</xmp:rhcc-metadata-complete-uploader>
         <xmp:rhcc-file-last-modified>2024-01-05T15:47:40.782Z</xmp:rhcc-file-last-modified>
         <xmp:rhcc-audience>rhcc-audience:internal</xmp:rhcc-audience>
         <xmp:rhcc-rights-restricted>no</xmp:rhcc-rights-restricted>
         <xmp:brand-content-subtype>Mini illustration</xmp:brand-content-subtype>
         <xmp:rhcc-derivative-id>DER932ff8c6-d737-49e0-9691-fb1fa82c66c3</xmp:rhcc-derivative-id>
         <xmp:rhcc-notify-portal-subscribers-on-change>yes</xmp:rhcc-notify-portal-subscribers-on-change>
         <xmp:brand-colorway>
            <rdf:Bag>
               <rdf:li>Black</rdf:li>
            </rdf:Bag>
         </xmp:brand-colorway>
         <dc:format>image/svg+xml</dc:format>
         <dc:modified>2024-02-09T18:53:48.655Z</dc:modified>
         <dc:title>
            <rdf:Alt>
               <rdf:li xml:lang="x-default">SOAR security mini illustration - Black</rdf:li>
            </rdf:Alt>
         </dc:title>
         <dc:description>
            <rdf:Alt>
               <rdf:li xml:lang="x-default">Security, Orchestration, Automation, response, gear, automation</rdf:li>
            </rdf:Alt>
         </dc:description>
         <cq:lastReplicationAction_scene7>Activate</cq:lastReplicationAction_scene7>
         <cq:lastReplicationAction_publish>Activate</cq:lastReplicationAction_publish>
         <cq:lastReplicated_publish>2024-02-09T18:58:30.405Z</cq:lastReplicated_publish>
         <cq:lastReplicatedBy>workflow-process-service</cq:lastReplicatedBy>
         <cq:lastReplicationAction>Activate</cq:lastReplicationAction>
         <cq:lastReplicatedBy_publish>workflow-process-service</cq:lastReplicatedBy_publish>
         <cq:isDelivered>true</cq:isDelivered>
         <cq:lastReplicated>2024-02-09T18:58:30.405Z</cq:lastReplicated>
         <cq:lastReplicatedBy_scene7>workflow-process-service</cq:lastReplicatedBy_scene7>
         <cq:lastReplicated_scene7>2024-02-09T18:58:30.405Z</cq:lastReplicated_scene7>
         <tiff:ImageLength>1080</tiff:ImageLength>
         <tiff:ImageWidth>1080</tiff:ImageWidth>
      </rdf:Description>
   </rdf:RDF>
</x:xmpmeta>
                                                                                                    
                                                                                                    
                                                                                                    
                                                                                                    
                                                                                                    
                                                                                                    
                                                                                                    
                                                                                                    
                                                                                                    
                                                                                                    
                             
<?xpacket end="w"?></metadata>
<path d="M592.0991,110.6848h196.1431c1.2778,15.9102,14.624,28.4678,30.8579,28.4678,17.0762,0,30.9678-13.8916,30.9678-30.9678s-13.8916-30.9678-30.9678-30.9678c-16.2339,0-29.5801,12.5576-30.8579,28.4678h-196.1431c-1.3809,0-2.5,1.1191-2.5,2.5s1.1191,2.5,2.5,2.5Z"/><circle cx="101.3394" cy="489.3127" r="30.9678"/><path d="M132.107,166.7287c0-17.0762-13.8916-30.9678-30.9678-30.9678s-30.9678,13.8916-30.9678,30.9678,13.8916,30.9688,30.9678,30.9688,30.9678-13.8926,30.9678-30.9688Z"/><path d="M516.3023,969.1154h-181.2544c-1.2778-15.9102-14.624-28.4678-30.8579-28.4678-17.0762,0-30.9678,13.8916-30.9678,30.9678s13.8916,30.9678,30.9678,30.9678c16.2339,0,29.5801-12.5576,30.8579-28.4678h181.2544c1.3809,0,2.5-1.1191,2.5-2.5s-1.1191-2.5-2.5-2.5Z"/><circle cx="980.9517" cy="909.9475" r="30.9678"/><circle cx="979.5318" cy="611.1457" r="30.9678"/><path d="M322.7564,158.7453h74.0127c1.3809,0,2.5-1.1191,2.5-2.5s-1.1191-2.5-2.5-2.5h-74.0127c-1.3809,0-2.5,1.1191-2.5,2.5s1.1191,2.5,2.5,2.5Z"/><path d="M322.7564,110.6848h135.7715c1.3809,0,2.5-1.1191,2.5-2.5s-1.1191-2.5-2.5-2.5h-135.7715c-1.3809,0-2.5,1.1191-2.5,2.5s1.1191,2.5,2.5,2.5Z"/><path d="M552.3579,105.6848h-74.0117c-1.3809,0-2.5,1.1191-2.5,2.5s1.1191,2.5,2.5,2.5h74.0117c1.3809,0,2.5-1.1191,2.5-2.5s-1.1191-2.5-2.5-2.5Z"/><path d="M416.5874,62.6242h135.7705c1.3809,0,2.5-1.1191,2.5-2.5s-1.1191-2.5-2.5-2.5h-135.7705c-1.3809,0-2.5,1.1191-2.5,2.5s1.1191,2.5,2.5,2.5Z"/><path d="M322.7564,62.6242h74.0127c1.3809,0,2.5-1.1191,2.5-2.5s-1.1191-2.5-2.5-2.5h-74.0127c-1.3809,0-2.5,1.1191-2.5,2.5s1.1191,2.5,2.5,2.5Z"/><path d="M552.3579,153.7453h-74.0117c-1.3809,0-2.5,1.1191-2.5,2.5s1.1191,2.5,2.5,2.5h74.0117c1.3809,0,2.5-1.1191,2.5-2.5s-1.1191-2.5-2.5-2.5Z"/><path d="M458.5279,153.7453h-37.0059c-1.3809,0-2.5,1.1191-2.5,2.5s1.1191,2.5,2.5,2.5h37.0059c1.3809,0,2.5-1.1191,2.5-2.5s-1.1191-2.5-2.5-2.5Z"/><path d="M780.8999,921.0549h-74.0117c-1.3809,0-2.5,1.1191-2.5,2.5s1.1191,2.5,2.5,2.5h74.0117c1.3809,0,2.5-1.1191,2.5-2.5s-1.1191-2.5-2.5-2.5Z"/><path d="M780.8999,969.1154h-135.7715c-1.3809,0-2.5,1.1191-2.5,2.5s1.1191,2.5,2.5,2.5h135.7715c1.3809,0,2.5-1.1191,2.5-2.5s-1.1191-2.5-2.5-2.5Z"/><path d="M551.2984,974.1154h74.0117c1.3809,0,2.5-1.1191,2.5-2.5s-1.1191-2.5-2.5-2.5h-74.0117c-1.3809,0-2.5,1.1191-2.5,2.5s1.1191,2.5,2.5,2.5Z"/><path d="M687.0698,1017.176h-135.7715c-1.3809,0-2.5,1.1191-2.5,2.5s1.1191,2.5,2.5,2.5h135.7715c1.3809,0,2.5-1.1191,2.5-2.5s-1.1191-2.5-2.5-2.5Z"/><path d="M780.8999,1017.176h-74.0117c-1.3809,0-2.5,1.1191-2.5,2.5s1.1191,2.5,2.5,2.5h74.0117c1.3809,0,2.5-1.1191,2.5-2.5s-1.1191-2.5-2.5-2.5Z"/><path d="M551.2984,926.0549h74.0117c1.3809,0,2.5-1.1191,2.5-2.5s-1.1191-2.5-2.5-2.5h-74.0117c-1.3809,0-2.5,1.1191-2.5,2.5s1.1191,2.5,2.5,2.5Z"/><path d="M645.1284,926.0549h37.0059c1.3809,0,2.5-1.1191,2.5-2.5s-1.1191-2.5-2.5-2.5h-37.0059c-1.3809,0-2.5,1.1191-2.5,2.5s1.1191,2.5,2.5,2.5Z"/><path d="M278.2154,550.0051c0-73.2266,28.5156-142.0693,80.2949-193.8486s120.6211-80.2939,193.8477-80.2939c71.1758,0,138.2061,26.9473,189.4541,76.0049h-26.0547c-1.3809,0-2.5,1.1191-2.5,2.5s1.1191,2.5,2.5,2.5h31.9927c.7124,.064,1.4463-.1655,1.9917-.7109,.4912-.4912,.7344-1.1353,.7314-1.7783,0-.0039,.001-.0073,.001-.0107v-32.2168c0-1.3809-1.1191-2.5-2.5-2.5s-2.5,1.1191-2.5,2.5v26.3057c-52.209-50.0791-120.5449-77.5938-193.1162-77.5938-74.5615,0-144.6602,29.0361-197.3838,81.7588-52.1338,52.1338-81.1074,121.2549-81.748,194.8838H105.3306c-34.6455,0-62.8311-28.1855-62.8311-62.8301V173.5149c0-34.6445,28.1855-62.8301,62.8311-62.8301h170.3916c1.3809,0,2.5-1.1191,2.5-2.5s-1.1191-2.5-2.5-2.5H105.3306c-37.4023,0-67.8311,30.4287-67.8311,67.8301V484.675c0,37.4014,30.4287,67.8301,67.8311,67.8301h170.3848c1.3809,0,2.5-1.1191,2.5-2.5Z"/><path d="M974.6695,547.5051h-145.668c-1.3809,0-2.5,1.1191-2.5,2.5,0,73.2266-28.5156,142.0703-80.2949,193.8486-51.7783,51.7793-120.6221,80.2949-193.8486,80.2949-71.1494,0-138.1582-26.9277-189.3999-75.9531h26.0005c1.3809,0,2.5-1.1191,2.5-2.5s-1.1191-2.5-2.5-2.5h-31.6436c-.8145-.1919-1.7051,.0225-2.3408,.6582-.498,.498-.7388,1.1533-.7285,1.8057-.0005,.0122-.0039,.0239-.0039,.0361v32.2168c0,1.3809,1.1191,2.5,2.5,2.5s2.5-1.1191,2.5-2.5v-26.3584c52.21,50.0801,120.5459,77.5947,193.1162,77.5947,74.5615,0,144.6611-29.0361,197.3848-81.7588,52.1338-52.1348,81.1074-121.2559,81.748-194.8848h143.1787c34.6445,0,62.8301,28.1855,62.8301,62.8301v290.9502c0,34.6445-28.1855,62.8301-62.8301,62.8301h-155.7227c-1.3809,0-2.5,1.1191-2.5,2.5s1.1191,2.5,2.5,2.5h155.7227c37.4014,0,67.8301-30.4287,67.8301-67.8301v-290.9502c0-37.4014-30.4287-67.8301-67.8301-67.8301Z"/><circle cx="715.5816" cy="546.9597" r="3.7036"/><path d="M678.5445,550.6633h.0005c2.0454,0,3.7036-1.6582,3.7036-3.7036,0-.3677-.0703-.7158-.1699-1.0513l-3.5337,.833-.9253,.2183-2.7144,.6401c.3042,1.7393,1.813,3.0635,3.6392,3.0635Z"/><circle cx="697.063" cy="565.4782" r="3.7036"/><path d="M678.5445,661.7746h.0005c2.0454,0,3.7036-1.6582,3.7036-3.7036s-1.6582-3.7036-3.7036-3.7036h-.0005c-2.0454,0-3.7036,1.6582-3.7036,3.7036s1.6582,3.7036,3.7036,3.7036Z"/><path d="M660.0259,569.1818c2.0459,0,3.7041-1.6582,3.7041-3.7036s-1.6582-3.7036-3.7041-3.7036-3.7036,1.6582-3.7036,3.7036,1.6582,3.7036,3.7036,3.7036Z"/><path d="M641.5073,587.7004h.0005c2.0454,0,3.7036-1.6582,3.7036-3.7036s-1.6582-3.7036-3.7036-3.7036h-.0005c-2.0454,0-3.7036,1.6582-3.7036,3.7036s1.6582,3.7036,3.7036,3.7036Z"/><path d="M660.0259,606.219c2.0459,0,3.7041-1.6582,3.7041-3.7036s-1.6582-3.7036-3.7041-3.7036-3.7036,1.6582-3.7036,3.7036,1.6582,3.7036,3.7036,3.7036Z"/><path d="M641.5073,624.7375h.0005c2.0454,0,3.7036-1.6582,3.7036-3.7036s-1.6582-3.7036-3.7036-3.7036h-.0005c-2.0454,0-3.7036,1.6582-3.7036,3.7036s1.6582,3.7036,3.7036,3.7036Z"/><path d="M660.0259,643.2561c2.0459,0,3.7041-1.6582,3.7041-3.7036s-1.6582-3.7036-3.7041-3.7036-3.7036,1.6582-3.7036,3.7036,1.6582,3.7036,3.7036,3.7036Z"/><path d="M641.5073,661.7746h.0005c2.0454,0,3.7036-1.6582,3.7036-3.7036s-1.6582-3.7036-3.7036-3.7036h-.0005c-2.0454,0-3.7036,1.6582-3.7036,3.7036s1.6582,3.7036,3.7036,3.7036Z"/><path d="M660.0259,680.2932c2.0459,0,3.7041-1.6582,3.7041-3.7036s-1.6582-3.7036-3.7041-3.7036-3.7036,1.6582-3.7036,3.7036,1.6582,3.7036,3.7036,3.7036Z"/><path d="M622.9888,569.1818c2.0459,0,3.7041-1.6582,3.7041-3.7036s-1.6582-3.7036-3.7041-3.7036-3.7036,1.6582-3.7036,3.7036,1.6582,3.7036,3.7036,3.7036Z"/><path d="M604.4707,580.2932h-.0005c-2.0454,0-3.7036,1.6582-3.7036,3.7036s1.6582,3.7036,3.7036,3.7036h.0005c2.0454,0,3.7036-1.6582,3.7036-3.7036s-1.6582-3.7036-3.7036-3.7036Z"/><path d="M622.9888,606.219c2.0459,0,3.7041-1.6582,3.7041-3.7036s-1.6582-3.7036-3.7041-3.7036-3.7036,1.6582-3.7036,3.7036,1.6582,3.7036,3.7036,3.7036Z"/><path d="M604.4707,617.3303h-.0005c-2.0454,0-3.7036,1.6582-3.7036,3.7036s1.6582,3.7036,3.7036,3.7036h.0005c2.0454,0,3.7036-1.6582,3.7036-3.7036s-1.6582-3.7036-3.7036-3.7036Z"/><path d="M622.9888,643.2561c2.0459,0,3.7041-1.6582,3.7041-3.7036s-1.6582-3.7036-3.7041-3.7036-3.7036,1.6582-3.7036,3.7036,1.6582,3.7036,3.7036,3.7036Z"/><path d="M604.4707,654.3674h-.0005c-2.0454,0-3.7036,1.6582-3.7036,3.7036s1.6582,3.7036,3.7036,3.7036h.0005c2.0454,0,3.7036-1.6582,3.7036-3.7036s-1.6582-3.7036-3.7036-3.7036Z"/><circle cx="585.9522" cy="602.5153" r="3.7036"/><circle cx="567.4336" cy="621.0339" r="3.7036"/><circle cx="585.9522" cy="639.5525" r="3.7036"/><circle cx="567.4336" cy="658.071" r="3.7036"/><circle cx="567.4336" cy="695.1081" r="3.7036"/><circle cx="530.3965" cy="621.0339" r="3.7036"/><circle cx="548.9151" cy="639.5525" r="3.7036"/><circle cx="530.3965" cy="658.071" r="3.7036"/><circle cx="548.9151" cy="676.5896" r="3.7036"/><circle cx="530.3965" cy="695.1081" r="3.7036"/><path d="M548.9151,717.3303c2.0454,0,3.7036-1.6582,3.7036-3.7036s-1.6582-3.7041-3.7036-3.7041-3.7036,1.6582-3.7036,3.7041,1.6582,3.7036,3.7036,3.7036Z"/><path d="M530.3965,728.4411c-2.0454,0-3.7036,1.6582-3.7036,3.7036s1.6582,3.7041,3.7036,3.7041,3.7036-1.6582,3.7036-3.7041-1.6582-3.7031-3.7036-3.7036Z"/><circle cx="493.3594" cy="621.0339" r="3.7036"/><circle cx="511.8779" cy="639.5525" r="3.7036"/><circle cx="493.3594" cy="658.071" r="3.7036"/><circle cx="511.8779" cy="676.5896" r="3.7036"/><circle cx="474.8408" cy="602.5153" r="3.7036"/><path d="M456.3228,617.3303h-.0005c-2.0454,0-3.7036,1.6582-3.7036,3.7036s1.6582,3.7036,3.7036,3.7036h.0005c2.0454,0,3.7031-1.6582,3.7031-3.7036s-1.6577-3.7036-3.7031-3.7036Z"/><circle cx="474.8408" cy="639.5525" r="3.7036"/><path d="M456.3228,654.3674h-.0005c-2.0454,0-3.7036,1.6582-3.7036,3.7036s1.6582,3.7036,3.7036,3.7036h.0005c2.0454,0,3.7031-1.6582,3.7031-3.7036s-1.6577-3.7036-3.7031-3.7036Z"/><path d="M437.8037,606.219c2.0073,0,3.6318-1.5991,3.6924-3.5918l-6.939,1.6362c.626,1.1592,1.8369,1.9556,3.2466,1.9556Z"/><circle cx="437.8037" cy="639.5525" r="3.7036"/><path d="M419.2857,654.3674h-.0005c-2.0454,0-3.7036,1.6582-3.7036,3.7036s1.6582,3.7036,3.7036,3.7036h.0005c2.0454,0,3.7031-1.6582,3.7031-3.7036s-1.6577-3.7036-3.7031-3.7036Z"/><circle cx="437.8037" cy="676.5896" r="3.7036"/><path d="M545.9146,609.1789c36.1816,0,65.6172-29.4355,65.6172-65.6172,0-18.7959-7.9556-35.7583-20.6621-47.7324-.0693-.0654-.1377-.1318-.207-.1973-.7363-.688-1.4883-1.3574-2.2554-2.0107-.2266-.1948-.4482-.3955-.6768-.5864-.4263-.3535-.8667-.6895-1.3022-1.0317-7.0879-5.6206-15.2119-9.6719-23.9482-11.9365-.0908-.0234-.1802-.0488-.271-.0723-.8501-.2163-1.7065-.4116-2.5674-.5942-.333-.0713-.6665-.1401-1.001-.2065-.73-.1426-1.4624-.2754-2.1997-.3936-.5024-.0815-1.0078-.1514-1.5137-.2212-.623-.085-1.2456-.1714-1.873-.2388-.689-.0747-1.3838-.1279-2.0786-.1812-.48-.0361-.9575-.0835-1.4395-.1099-1.1997-.0654-2.4058-.1045-3.6216-.1045-36.1816,0-65.6172,29.4355-65.6172,65.6172,0,1.2158,.0391,2.4219,.1045,3.6216,.0264,.4819,.0737,.9595,.1099,1.4395,.0532,.6948,.1064,1.3896,.1812,2.0786,.0674,.6274,.1538,1.25,.2388,1.873,.0698,.5059,.1396,1.0112,.2212,1.5137,.1182,.7368,.251,1.4688,.3936,2.1987,.0664,.3354,.1357,.6694,.207,1.0034,.1821,.8599,.377,1.7158,.5933,2.5649,.0239,.0918,.0498,.1826,.0737,.2739,2.2637,8.7339,6.3135,16.8555,11.9316,23.9414,.3438,.4375,.6812,.8799,1.0361,1.3081,.1904,.2275,.3906,.4482,.584,.6738,.6543,.7676,1.3242,1.5205,2.0127,2.2573,.0654,.0693,.1318,.1377,.1973,.207,3.7603,3.9902,8.0117,7.5078,12.6597,10.46-1.5376,.4507-2.6675,1.8555-2.6675,3.5386,0,2.0454,1.6582,3.7036,3.7036,3.7036s3.7036-1.6582,3.7036-3.7036c0-.2944-.043-.5776-.1079-.8521,9.105,4.79,19.458,7.5156,30.4409,7.5156Zm0-5c-13.3828,0-25.7603-4.3677-35.7998-11.7407-7.8042-10.5356-11.9307-22.9736-11.9307-35.9897,0-33.4248,27.1924-60.6172,60.6172-60.6172,13.0166,0,25.4536,4.126,35.9888,11.9292,7.3735,10.0396,11.7417,22.4175,11.7417,35.8013,0,33.4248-27.1924,60.6172-60.6172,60.6172Z"/><path d="M753.0034,595.1897l.3818-2.0391c2.3438-12.4971,3.5322-24.8457,3.5322-36.7021s-1.1885-24.2041-3.5322-36.7012l-.3818-2.0391h-10.7671c-.4849-3.5986-1.0566-7.2153-1.7378-10.8477-.2217-1.1826-1.2539-2.0391-2.457-2.0391h-42.6279c-2.5669-6.8291-5.6206-13.4375-9.165-19.7559l37.8564-37.8564-1.1572-1.71c-8.7568-12.9287-18.957-24.6987-30.4678-35.1943-10.1377-11.1191-21.5498-21.0879-34.1348-29.7832-.9941-.6875-2.335-.5645-3.1885,.2891l-36.252,36.251c-6.4414-3.7251-13.1577-6.9448-20.085-9.6377v-44.9697l-2.0225-.3936c-3.6196-.7036-7.2432-1.2974-10.8643-1.8008v-8.6318c0-1.1963-.8477-2.2256-2.0225-2.4541-12.7246-2.4736-25.5088-3.7285-37.9961-3.7285-11.4199,0-23.002,1.0898-35.4072,3.333-1.1904,.2148-2.0557,1.251-2.0557,2.46v51.1631c-11.9092,3.1523-23.3027,7.7588-33.9194,13.7129l-24.9702-24.9707h0l-11.4268-11.4268c-.8477-.8467-2.1758-.9746-3.1699-.3027-20.3994,13.8154-37.9258,31.2158-52.0928,51.7178-.6865,.9932-.5645,2.335,.2891,3.1885l11.4121,11.4126v.0005l24.8389,24.8389c-6.21,10.7412-11.0166,22.2451-14.3105,34.249h-51.3174c-1.2031,0-2.2354,.8564-2.457,2.0391-2.3418,12.4873-3.5293,24.835-3.5293,36.7012s1.1875,24.2148,3.5293,36.7021c.2217,1.1826,1.2539,2.0391,2.457,2.0391h8.6914c.4834,3.5991,1.0571,7.2163,1.7383,10.8477l.3818,2.0391h44.7021c2.7866,7.3828,6.1641,14.5269,10.1143,21.3604l-36.251,36.2529c-.8535,.8535-.9756,2.1953-.2891,3.1885,8.6948,12.5874,18.6636,23.9995,29.7822,34.1367,10.4961,11.5127,22.2671,21.7129,35.1982,30.4688l1.709,1.1572,37.8564-37.8574c6.7192,3.7686,13.7563,6.9795,21.0332,9.6387v42.3496c0,1.209,.8652,2.2451,2.0557,2.46,3.6792,.665,7.2793,1.2168,10.8311,1.6807v10.835l2.0557,.3711c12.4053,2.2432,23.9873,3.333,35.4072,3.333,12.4873,0,25.2715-1.2549,37.9961-3.7285l2.0225-.3936v-53.5273c11.5283-3.2803,22.6045-7.9717,32.9717-13.9668l37.7256,37.7256,1.7148-1.1855c20.499-14.1641,37.8984-31.6895,51.7158-52.0898l1.1572-1.71-14.3467-14.3467-23.5098-23.5098c5.7334-10.2207,10.2236-21.1846,13.3662-32.6426h53.3887Zm-239.5518,121.7778c1.2554-.5928,2.1299-1.8604,2.1299-3.3408s-.8745-2.7485-2.1299-3.3413v-27.501c0-1.1465-.7803-2.1465-1.8926-2.4248-12.7754-3.2021-24.9531-8.124-36.1943-14.6299-.9795-.5654-2.2188-.4033-3.0195,.3965l-36.2773,36.2783c-18.5996-12.8857-34.6943-28.8652-47.8896-47.5479l11.7158-11.7163c.2798,.0708,.5703,.1157,.8726,.1157,2.0454,0,3.7036-1.6582,3.7036-3.7036,0-.3027-.0435-.5933-.1152-.873l14.0557-14.0562c.2803,.0718,.5713,.1143,.8745,.1143h.0005c2.0454,0,3.7031-1.6582,3.7031-3.7036,0-.3027-.0459-.5928-.1147-.874l1.4409-1.4409c.8096-.8096,.9658-2.0645,.3799-3.0479-6.7764-11.3652-11.9092-23.6455-15.2549-36.498-.2861-1.1016-1.2812-1.8701-2.4189-1.8701h-51.1514c-2.0381-11.4873-3.0713-22.8281-3.0713-33.7412s1.0332-22.2529,3.0713-33.7402h51.1514c1.1387,0,2.1328-.7686,2.4189-1.8701,3.3457-12.8535,8.4775-25.1338,15.2549-36.5,.5859-.9834,.4297-2.2383-.3799-3.0479l-36.1357-36.1367c13.1992-18.6826,29.293-34.6621,47.8887-47.5469l36.2773,36.2783c.8008,.8008,2.04,.9629,3.0195,.3965,11.2432-6.5068,23.4209-11.4287,36.1943-14.6309,1.1123-.2783,1.8926-1.2783,1.8926-2.4248v-51.0029c11.3359-1.9443,21.9756-2.8906,32.4629-2.8906,11.5068,0,23.2773,1.0947,35.0186,3.2539v51.2969c0,1.1299,.7578,2.1191,1.8477,2.4131,12.3809,3.3467,24.2393,8.3711,35.2451,14.9346,.9814,.5869,2.2393,.4307,3.0479-.3799l36.1367-36.1367c18.6777,13.1943,34.6582,29.29,47.5449,47.8877l-36.2773,36.2773c-.8008,.8008-.9639,2.04-.3955,3.0205,6.2832,10.8535,11.0967,22.6084,14.3076,34.9385,.2861,1.1016,1.2812,1.8701,2.4189,1.8701h51.1475c2.04,11.4961,3.0742,22.8369,3.0742,33.7402,0,6.9941-.4307,14.1689-1.2744,21.4478-.2324-1.8218-1.7715-3.2349-3.6562-3.2349-2.0454,0-3.7036,1.6582-3.7036,3.7036s1.6582,3.7036,3.7036,3.7036c1.5483,0,2.8711-.9517,3.4243-2.3008-.4331,3.4556-.9482,6.9302-1.5679,10.4219h-51.1475c-1.1377,0-2.1328,.7686-2.4189,1.8701-.2412,.9263-.5093,1.8428-.7686,2.7627-.665-.9902-1.7944-1.6426-3.0767-1.6426h-.0005c-2.0454,0-3.7036,1.6582-3.7036,3.7036s1.6582,3.7036,3.7036,3.7036h.0005c.5029,0,.9819-.1025,1.4189-.2842-3.0415,9.3369-7.0146,18.2886-11.8813,26.6953-.5684,.9805-.4053,2.2197,.3955,3.0205l36.2773,36.2773c-12.8867,18.5967-28.8672,34.6914-47.5449,47.8867l-36.1367-36.1367c-.8086-.8105-2.0664-.9658-3.0479-.3799-9.0073,5.3716-18.5923,9.6934-28.5605,12.9268,.1128-.3545,.1904-.7246,.1904-1.1167,0-2.0454-1.6582-3.7036-3.7036-3.7036s-3.7036,1.6582-3.7036,3.7036c0,1.1675,.5513,2.1963,1.3955,2.8755-.2886,.0796-.5742,.1709-.8633,.249-1.0898,.2939-1.8477,1.2832-1.8477,2.4131v51.2969c-3.791,.6973-7.5845,1.271-11.3721,1.7451,.9512-.6704,1.5762-1.7725,1.5762-3.0244,0-2.0449-1.6582-3.7031-3.7036-3.7036-2.0454,0-3.7036,1.6582-3.7036,3.7036,0,1.5571,.9629,2.8848,2.3242,3.4321-6.7632,.7241-13.4961,1.1011-20.1396,1.1011-10.4873,0-21.127-.9463-32.4629-2.8906v-16.8198Z"/></svg>