<?xml version="1.0" encoding="UTF-8"?><svg id="uuid-228c9223-a7e0-4914-b01a-e68999aa2f29" xmlns="http://www.w3.org/2000/svg" viewBox="0 0 1080 1080"><title>Automation mini illustration - Black</title>
<desc>automation, app</desc>
<metadata><?xpacket begin="﻿" id="W5M0MpCehiHzreSzNTczkc9d"?>
<x:xmpmeta xmlns:x="adobe:ns:meta/" x:xmptk="Adobe XMP Core 8.0-c001 1.000000, 0000/00/00-00:00:00        ">
   <rdf:RDF xmlns:rdf="http://www.w3.org/1999/02/22-rdf-syntax-ns#">
      <rdf:Description rdf:about=""
            xmlns:xmp="http://ns.adobe.com/xap/1.0/"
            xmlns:dc="http://purl.org/dc/elements/1.1/"
            xmlns:cq="http://www.day.com/jcr/cq/1.0"
            xmlns:tiff="http://ns.adobe.com/tiff/1.0/">
         <xmp:rhcc-effective-on>2024-01-05T15:47:12.565Z</xmp:rhcc-effective-on>
         <xmp:rhcc-metadata-complete-moderator>pending</xmp:rhcc-metadata-complete-moderator>
         <xmp:rhcc-translation-id>TRAf6deb762-8d56-4a81-b19d-7792f121e01f</xmp:rhcc-translation-id>
         <xmp:brand-content-type>Illustration</xmp:brand-content-type>
         <xmp:CreateDate>2024-01-05T15:47:12.565Z</xmp:CreateDate>
         <xmp:rhcc-effective-on-set-on-upload>true</xmp:rhcc-effective-on-set-on-upload>
         <xmp:rhcc-metadata-complete-uploader>pending</xmp:rhcc-metadata-complete-uploader>
         <xmp:rhcc-file-last-modified>2024-01-05T15:47:24.757Z</xmp:rhcc-file-last-modified>
         <xmp:rhcc-audience>rhcc-audience:internal</xmp:rhcc-audience>
         <xmp:rhcc-rights-restricted>no</xmp:rhcc-rights-restricted>
         <xmp:brand-content-subtype>Mini illustration</xmp:brand-content-subtype>
         <xmp:rhcc-derivative-id>DERf6deb762-8d56-4a81-b19d-7792f121e01f</xmp:rhcc-derivative-id>
         <xmp:rhcc-notify-portal-subscribers-on-change>yes</xmp:rhcc-notify-portal-subscribers-on-change>
         <xmp:brand-colorway>
            <rdf:Bag>
               <rdf:li>Black</rdf:li>
            </rdf:Bag>
         </xmp:brand-colorway>
         <dc:format>image/svg+xml</dc:format>
         <dc:modified>2024-02-09T18:52:17.755Z</dc:modified>
         <dc:title>
            <rdf:Alt>
               <rdf:li xml:lang="x-default">Automation mini illustration - Black</rdf:li>
            </rdf:Alt>
         </dc:title>
         <dc:description>
            <rdf:Alt>
               <rdf:li xml:lang="x-default">automation, app</rdf:li>
            </rdf:Alt>
         </dc:description>
         <cq:lastReplicationAction_scene7>Activate</cq:lastReplicationAction_scene7>
         <cq:lastReplicationAction_publish>Activate</cq:lastReplicationAction_publish>
         <cq:lastReplicated_publish>2024-02-09T18:55:12.653Z</cq:lastReplicated_publish>
         <cq:lastReplicatedBy>workflow-process-service</cq:lastReplicatedBy>
         <cq:lastReplicationAction>Activate</cq:lastReplicationAction>
         <cq:lastReplicatedBy_publish>workflow-process-service</cq:lastReplicatedBy_publish>
         <cq:isDelivered>true</cq:isDelivered>
         <cq:lastReplicated>2024-02-09T18:55:12.653Z</cq:lastReplicated>
         <cq:lastReplicatedBy_scene7>workflow-process-service</cq:lastReplicatedBy_scene7>
         <cq:lastReplicated_scene7>2024-02-09T18:55:12.653Z</cq:lastReplicated_scene7>
         <tiff:ImageLength>1080</tiff:ImageLength>
         <tiff:ImageWidth>1080</tiff:ImageWidth>
      </rdf:Description>
   </rdf:RDF>
</x:xmpmeta>
                                                                                                    
                                                                                                    
                                                                                                    
                                                                                                    
                                                                                                    
                                                                                                    
                                                                                                    
                                                                                                    
                                                                                                    
                                                                                                    
                             
<?xpacket end="w"?></metadata>
<g><path d="M841.2988,372.1036h-2.4634c-.7559,.6782-1.2407,1.6521-1.2407,2.7476,0,2.0454,1.6582,3.7036,3.7036,3.7036h.0005c2.0454,0,3.7036-1.6582,3.7036-3.7036,0-1.0955-.4849-2.0693-1.2407-2.7476h-2.4629Z"/><path d="M856.1133,393.3697c0,.4788,.0981,.9331,.2637,1.353v-2.7061c-.1655,.4199-.2637,.8743-.2637,1.353Z"/><path d="M841.2988,408.1847h-.0005c-2.0454,0-3.7036,1.6582-3.7036,3.7036s1.6582,3.7036,3.7036,3.7036h.0005c2.0454,0,3.7036-1.6582,3.7036-3.7036s-1.6582-3.7036-3.7036-3.7036Z"/><path d="M856.3769,431.7599v-2.7063c-.1655,.4202-.2637,.8743-.2637,1.3533,0,.4788,.0981,.9331,.2637,1.353Z"/><rect x="837.5947" y="445.2215" width="7.4077" height="7.4075" rx="3.7036" ry="3.7036"/><path d="M856.3769,468.797v-2.7063c-.1655,.4202-.2637,.8743-.2637,1.353s.0981,.9331,.2637,1.3533Z"/><path d="M841.2988,482.2586h-.0005c-2.0454,0-3.7036,1.658-3.7036,3.7036s1.6582,3.7039,3.7036,3.7039h.0005c2.0454-.0002,3.7036-1.6584,3.7036-3.7039s-1.6582-3.7036-3.7036-3.7036Z"/><path d="M856.3769,505.8341v-2.7065c-.1655,.4202-.2637,.8745-.2637,1.3533s.0981,.9331,.2637,1.3533Z"/><path d="M841.2988,519.2955h-.0005c-2.0454,0-3.7036,1.6582-3.7036,3.7039s1.6582,3.7036,3.7036,3.7036h.0005c2.0454,0,3.7036-1.6582,3.7036-3.7036s-1.6582-3.7036-3.7036-3.7039Z"/><path d="M856.3769,542.8709v-2.7063c-.1655,.4202-.2637,.8745-.2637,1.3533s.0981,.9329,.2637,1.353Z"/><path d="M841.2988,556.3326h-.0005c-2.0454,0-3.7036,1.6582-3.7036,3.7036s1.6582,3.7039,3.7036,3.7039h.0005c2.0454-.0002,3.7036-1.6582,3.7036-3.7039s-1.6582-3.7034-3.7036-3.7036Z"/><path d="M856.3769,579.9081v-2.7063c-.1655,.4202-.2637,.8743-.2637,1.353,0,.479,.0981,.9331,.2637,1.3533Z"/><path d="M841.2988,593.3697h-.0005c-2.0454,0-3.7036,1.6582-3.7036,3.7036s1.6582,3.7039,3.7036,3.7039h.0005c2.0454-.0002,3.7036-1.6584,3.7036-3.7039s-1.6582-3.7036-3.7036-3.7036Z"/><path d="M856.3769,616.9452v-2.7063c-.1655,.4199-.2637,.8743-.2637,1.353,0,.479,.0981,.9331,.2637,1.3533Z"/><path d="M841.2988,630.4068h-.0005c-2.0454,0-3.7036,1.6582-3.7036,3.7036s1.6582,3.7036,3.7036,3.7036h.0005c2.0454,0,3.7036-1.6582,3.7036-3.7036s-1.6582-3.7036-3.7036-3.7036Z"/><path d="M856.3769,653.982v-2.7063c-.1655,.4202-.2637,.8743-.2637,1.3533,0,.4788,.0981,.9331,.2637,1.353Z"/><path d="M841.2988,667.4437h-.0005c-2.0454,0-3.7036,1.6582-3.7036,3.7039s1.6582,3.7036,3.7036,3.7036h.0005c2.0454,0,3.7036-1.6582,3.7036-3.7036s-1.6582-3.7036-3.7036-3.7039Z"/><path d="M856.3769,691.0191v-2.7063c-.1655,.4202-.2637,.8743-.2637,1.3533,0,.4788,.0981,.9329,.2637,1.353Z"/><rect x="837.5947" y="704.4808" width="7.4077" height="7.4075" rx="3.7036" ry="3.7036"/><path d="M856.3769,728.0562v-2.7063c-.1655,.4202-.2637,.8743-.2637,1.353s.0981,.9331,.2637,1.3533Z"/><path d="M841.2988,741.5179h-.0005c-2.0454,0-3.7036,1.6582-3.7036,3.7036s1.6582,3.7039,3.7036,3.7039h.0005c2.0454-.0002,3.7036-1.6584,3.7036-3.7039s-1.6582-3.7036-3.7036-3.7036Z"/><path d="M856.3769,765.0934v-2.7065c-.1655,.4202-.2637,.8745-.2637,1.3533s.0981,.9331,.2637,1.3533Z"/><path d="M841.2988,778.5548h-.0005c-2.0454,0-3.7036,1.6582-3.7036,3.7039s1.6582,3.7036,3.7036,3.7036h.0005c2.0454,0,3.7036-1.6582,3.7036-3.7036s-1.6582-3.7036-3.7036-3.7039Z"/><path d="M856.1865,801.5006h.1904v-2.0767c-.1655,.4202-.2637,.8745-.2637,1.3533,0,.2478,.0264,.4893,.0732,.7234Z"/><path d="M804.2617,372.1036h-2.4634c-.7559,.6782-1.2407,1.6521-1.2407,2.7476,0,2.0454,1.6582,3.7036,3.7041,3.7036s3.7036-1.6582,3.7036-3.7036c0-1.0955-.4849-2.0693-1.2407-2.7476h-2.4629Z"/><path d="M822.7803,389.6661c-2.0459,0-3.7041,1.6582-3.7041,3.7036s1.6582,3.7036,3.7041,3.7036,3.7036-1.6582,3.7036-3.7036-1.6582-3.7036-3.7036-3.7036Z"/><path d="M804.2617,408.1847c-2.0459,0-3.7041,1.6582-3.7041,3.7036s1.6582,3.7036,3.7041,3.7036,3.7036-1.6582,3.7036-3.7036-1.6582-3.7036-3.7036-3.7036Z"/><path d="M822.7803,426.703c-2.0459,0-3.7041,1.6582-3.7041,3.7039s1.6582,3.7036,3.7041,3.7036,3.7036-1.6582,3.7036-3.7036-1.6582-3.7039-3.7036-3.7039Z"/><path d="M804.2617,445.2215c-2.0459,0-3.7041,1.6582-3.7041,3.7036v.0002c0,2.0454,1.6582,3.7036,3.7041,3.7036,2.0454-.0002,3.7036-1.6582,3.7036-3.7036v-.0002c0-2.0454-1.6582-3.7034-3.7036-3.7036Z"/><path d="M822.7803,463.7401c-2.0459,0-3.7041,1.6582-3.7041,3.7036s1.6582,3.7039,3.7041,3.7039,3.7036-1.6582,3.7036-3.7039-1.6582-3.7036-3.7036-3.7036Z"/><path d="M804.2617,482.2586c-2.0459,0-3.7041,1.658-3.7041,3.7036s1.6582,3.7039,3.7041,3.7039c2.0454-.0002,3.7036-1.6584,3.7036-3.7039s-1.6582-3.7036-3.7036-3.7036Z"/><path d="M822.7803,500.7772c-2.0459,0-3.7041,1.6582-3.7041,3.7036s1.6582,3.7039,3.7041,3.7039,3.7036-1.6582,3.7036-3.7039-1.6582-3.7036-3.7036-3.7036Z"/><path d="M804.2617,519.2955c-2.0459,0-3.7041,1.6582-3.7041,3.7039s1.6582,3.7036,3.7041,3.7036,3.7036-1.6582,3.7036-3.7036-1.6582-3.7036-3.7036-3.7039Z"/><path d="M822.7803,537.8141c-2.0459,0-3.7041,1.6582-3.7041,3.7039s1.6582,3.7036,3.7041,3.7036,3.7036-1.6582,3.7036-3.7036-1.6582-3.7039-3.7036-3.7039Z"/><path d="M804.2617,556.3326c-2.0459,0-3.7041,1.6582-3.7041,3.7036s1.6582,3.7039,3.7041,3.7039c2.0454-.0002,3.7036-1.6582,3.7036-3.7039s-1.6582-3.7034-3.7036-3.7036Z"/><path d="M822.7803,574.8512c-2.0459,0-3.7041,1.6582-3.7041,3.7036s1.6582,3.7039,3.7041,3.7039,3.7036-1.6582,3.7036-3.7039-1.6582-3.7036-3.7036-3.7036Z"/><path d="M804.2617,593.3697c-2.0459,0-3.7041,1.6582-3.7041,3.7036s1.6582,3.7039,3.7041,3.7039c2.0454-.0002,3.7036-1.6584,3.7036-3.7039s-1.6582-3.7036-3.7036-3.7036Z"/><path d="M822.7803,611.8883c-2.0459,0-3.7041,1.6582-3.7041,3.7036s1.6582,3.7036,3.7041,3.7036,3.7036-1.6582,3.7036-3.7036-1.6582-3.7036-3.7036-3.7036Z"/><path d="M804.2617,630.4068c-2.0459,0-3.7041,1.6582-3.7041,3.7036s1.6582,3.7036,3.7041,3.7036,3.7036-1.6582,3.7036-3.7036-1.6582-3.7036-3.7036-3.7036Z"/><path d="M822.7803,648.9254c-2.0459,0-3.7041,1.6582-3.7041,3.7036s1.6582,3.7036,3.7041,3.7036,3.7036-1.6582,3.7036-3.7036-1.6582-3.7036-3.7036-3.7036Z"/><path d="M804.2617,667.4437c-2.0459,0-3.7041,1.6582-3.7041,3.7039s1.6582,3.7036,3.7041,3.7036,3.7036-1.6582,3.7036-3.7036-1.6582-3.7036-3.7036-3.7039Z"/><path d="M822.7803,685.9622c-2.0459,0-3.7041,1.6582-3.7041,3.7039s1.6582,3.7036,3.7041,3.7036,3.7036-1.6582,3.7036-3.7036-1.6582-3.7039-3.7036-3.7039Z"/><path d="M804.2617,704.4808c-2.0459,0-3.7041,1.6582-3.7041,3.7036v.0002c0,2.0454,1.6582,3.7036,3.7041,3.7036,2.0454-.0002,3.7036-1.6582,3.7036-3.7036v-.0002c0-2.0454-1.6582-3.7034-3.7036-3.7036Z"/><path d="M822.7803,722.9994c-2.0459,0-3.7041,1.6582-3.7041,3.7036s1.6582,3.7039,3.7041,3.7039,3.7036-1.6582,3.7036-3.7039-1.6582-3.7036-3.7036-3.7036Z"/><path d="M804.2617,741.5179c-2.0459,0-3.7041,1.6582-3.7041,3.7036s1.6582,3.7039,3.7041,3.7039c2.0454-.0002,3.7036-1.6584,3.7036-3.7039s-1.6582-3.7036-3.7036-3.7036Z"/><path d="M822.7803,760.0362c-2.0459,0-3.7041,1.6582-3.7041,3.7039s1.6582,3.7036,3.7041,3.7036,3.7036-1.6582,3.7036-3.7036-1.6582-3.7039-3.7036-3.7039Z"/><path d="M804.2617,778.5548c-2.0459,0-3.7041,1.6582-3.7041,3.7039s1.6582,3.7036,3.7041,3.7036,3.7036-1.6582,3.7036-3.7036-1.6582-3.7036-3.7036-3.7039Z"/><path d="M822.7803,797.0733c-2.0459,0-3.7041,1.6582-3.7041,3.7039,0,.2478,.0264,.4893,.0732,.7234h7.2612c.0464-.2341,.0732-.4756,.0732-.7234,0-2.0457-1.6582-3.7039-3.7036-3.7039Z"/><path d="M767.2246,372.1036h-2.4634c-.7559,.6782-1.2407,1.6521-1.2407,2.7476,0,2.0454,1.6582,3.7036,3.7041,3.7036s3.7036-1.6582,3.7036-3.7036c0-1.0955-.4849-2.0693-1.2407-2.7476h-2.4629Z"/><path d="M785.7432,389.6661c-2.0459,0-3.7041,1.6582-3.7041,3.7036s1.6582,3.7036,3.7041,3.7036,3.7036-1.6582,3.7036-3.7036-1.6582-3.7036-3.7036-3.7036Z"/><path d="M767.2246,408.1847c-2.0459,0-3.7041,1.6582-3.7041,3.7036s1.6582,3.7036,3.7041,3.7036,3.7036-1.6582,3.7036-3.7036-1.6582-3.7036-3.7036-3.7036Z"/><path d="M785.7432,426.703c-2.0459,0-3.7041,1.6582-3.7041,3.7039s1.6582,3.7036,3.7041,3.7036,3.7036-1.6582,3.7036-3.7036-1.6582-3.7039-3.7036-3.7039Z"/><path d="M767.2246,445.2215c-2.0459,0-3.7041,1.6582-3.7041,3.7036v.0002c0,2.0454,1.6582,3.7036,3.7041,3.7036,2.0454-.0002,3.7036-1.6582,3.7036-3.7036v-.0002c0-2.0454-1.6582-3.7034-3.7036-3.7036Z"/><path d="M785.7432,463.7401c-2.0459,0-3.7041,1.6582-3.7041,3.7036s1.6582,3.7039,3.7041,3.7039,3.7036-1.6582,3.7036-3.7039-1.6582-3.7036-3.7036-3.7036Z"/><path d="M767.2246,482.2586c-2.0459,0-3.7041,1.658-3.7041,3.7036s1.6582,3.7039,3.7041,3.7039c2.0454-.0002,3.7036-1.6584,3.7036-3.7039s-1.6582-3.7036-3.7036-3.7036Z"/><path d="M785.7432,500.7772c-2.0459,0-3.7041,1.6582-3.7041,3.7036s1.6582,3.7039,3.7041,3.7039,3.7036-1.6582,3.7036-3.7039-1.6582-3.7036-3.7036-3.7036Z"/><path d="M767.2246,519.2955c-2.0459,0-3.7041,1.6582-3.7041,3.7039s1.6582,3.7036,3.7041,3.7036,3.7036-1.6582,3.7036-3.7036-1.6582-3.7036-3.7036-3.7039Z"/><path d="M785.7432,537.8141c-2.0459,0-3.7041,1.6582-3.7041,3.7039s1.6582,3.7036,3.7041,3.7036,3.7036-1.6582,3.7036-3.7036-1.6582-3.7039-3.7036-3.7039Z"/><path d="M767.2246,556.3326c-2.0459,0-3.7041,1.6582-3.7041,3.7036s1.6582,3.7039,3.7041,3.7039c2.0454-.0002,3.7036-1.6582,3.7036-3.7039s-1.6582-3.7034-3.7036-3.7036Z"/><path d="M785.7432,574.8512c-2.0459,0-3.7041,1.6582-3.7041,3.7036s1.6582,3.7039,3.7041,3.7039,3.7036-1.6582,3.7036-3.7039-1.6582-3.7036-3.7036-3.7036Z"/><path d="M767.2246,593.3697c-2.0459,0-3.7041,1.6582-3.7041,3.7036s1.6582,3.7039,3.7041,3.7039c2.0454-.0002,3.7036-1.6584,3.7036-3.7039s-1.6582-3.7036-3.7036-3.7036Z"/><path d="M785.7432,611.8883c-2.0459,0-3.7041,1.6582-3.7041,3.7036s1.6582,3.7036,3.7041,3.7036,3.7036-1.6582,3.7036-3.7036-1.6582-3.7036-3.7036-3.7036Z"/><path d="M767.2246,630.4068c-2.0459,0-3.7041,1.6582-3.7041,3.7036s1.6582,3.7036,3.7041,3.7036,3.7036-1.6582,3.7036-3.7036-1.6582-3.7036-3.7036-3.7036Z"/><path d="M785.7432,648.9254c-2.0459,0-3.7041,1.6582-3.7041,3.7036s1.6582,3.7036,3.7041,3.7036,3.7036-1.6582,3.7036-3.7036-1.6582-3.7036-3.7036-3.7036Z"/><path d="M767.2246,667.4437c-2.0459,0-3.7041,1.6582-3.7041,3.7039s1.6582,3.7036,3.7041,3.7036,3.7036-1.6582,3.7036-3.7036-1.6582-3.7036-3.7036-3.7039Z"/><path d="M785.7432,685.9622c-2.0459,0-3.7041,1.6582-3.7041,3.7039s1.6582,3.7036,3.7041,3.7036,3.7036-1.6582,3.7036-3.7036-1.6582-3.7039-3.7036-3.7039Z"/><path d="M767.2246,704.4808c-2.0459,0-3.7041,1.6582-3.7041,3.7036v.0002c0,2.0454,1.6582,3.7036,3.7041,3.7036,2.0454-.0002,3.7036-1.6582,3.7036-3.7036v-.0002c0-2.0454-1.6582-3.7034-3.7036-3.7036Z"/><path d="M785.7432,722.9994c-2.0459,0-3.7041,1.6582-3.7041,3.7036s1.6582,3.7039,3.7041,3.7039,3.7036-1.6582,3.7036-3.7039-1.6582-3.7036-3.7036-3.7036Z"/><path d="M767.2246,741.5179c-2.0459,0-3.7041,1.6582-3.7041,3.7036s1.6582,3.7039,3.7041,3.7039c2.0454-.0002,3.7036-1.6584,3.7036-3.7039s-1.6582-3.7036-3.7036-3.7036Z"/><path d="M785.7432,760.0362c-2.0459,0-3.7041,1.6582-3.7041,3.7039s1.6582,3.7036,3.7041,3.7036,3.7036-1.6582,3.7036-3.7036-1.6582-3.7039-3.7036-3.7039Z"/><path d="M767.2246,778.5548c-2.0459,0-3.7041,1.6582-3.7041,3.7039s1.6582,3.7036,3.7041,3.7036,3.7036-1.6582,3.7036-3.7036-1.6582-3.7036-3.7036-3.7039Z"/><path d="M785.7432,797.0733c-2.0459,0-3.7041,1.6582-3.7041,3.7039,0,.2478,.0269,.4893,.0732,.7234h7.2612c.0464-.2341,.0732-.4756,.0732-.7234,0-2.0457-1.6582-3.7039-3.7036-3.7039Z"/><path d="M730.1875,372.1036h-2.4634c-.7559,.6782-1.2402,1.6521-1.2402,2.7476,0,2.0454,1.6582,3.7036,3.7036,3.7036s3.7036-1.6582,3.7036-3.7036c0-1.0955-.4849-2.0693-1.2407-2.7476h-2.4629Z"/><circle cx="748.706" cy="393.3697" r="3.7036"/><circle cx="730.1875" cy="411.8883" r="3.7036"/><path d="M748.706,426.703c-2.0454,0-3.7036,1.6582-3.7036,3.7039s1.6582,3.7036,3.7036,3.7036,3.7036-1.6582,3.7036-3.7036-1.6582-3.7039-3.7036-3.7039Z"/><path d="M730.1875,445.2215c-2.0454,0-3.7036,1.6582-3.7036,3.7036v.0002c0,2.0454,1.6582,3.7036,3.7036,3.7036,2.0454-.0002,3.7036-1.6582,3.7036-3.7036v-.0002c0-2.0454-1.6582-3.7034-3.7036-3.7036Z"/><path d="M748.706,463.7401c-2.0454,0-3.7036,1.6582-3.7036,3.7036s1.6582,3.7039,3.7036,3.7039,3.7036-1.6582,3.7036-3.7039-1.6582-3.7036-3.7036-3.7036Z"/><path d="M730.1875,482.2586c-2.0454,0-3.7036,1.658-3.7036,3.7036s1.6582,3.7039,3.7036,3.7039c2.0454-.0002,3.7036-1.6584,3.7036-3.7039s-1.6582-3.7036-3.7036-3.7036Z"/><path d="M748.706,500.7772c-2.0454,0-3.7036,1.6582-3.7036,3.7036s1.6582,3.7039,3.7036,3.7039,3.7036-1.6582,3.7036-3.7039-1.6582-3.7036-3.7036-3.7036Z"/><path d="M730.1875,519.2955c-2.0454,0-3.7036,1.6582-3.7036,3.7039s1.6582,3.7036,3.7036,3.7036,3.7036-1.6582,3.7036-3.7036-1.6582-3.7036-3.7036-3.7039Z"/><path d="M748.706,537.8141c-2.0454,0-3.7036,1.6582-3.7036,3.7039s1.6582,3.7036,3.7036,3.7036,3.7036-1.6582,3.7036-3.7036-1.6582-3.7039-3.7036-3.7039Z"/><path d="M730.1875,556.3326c-2.0454,0-3.7036,1.6582-3.7036,3.7036s1.6582,3.7039,3.7036,3.7039c2.0454-.0002,3.7036-1.6582,3.7036-3.7039s-1.6582-3.7034-3.7036-3.7036Z"/><path d="M748.706,574.8512c-2.0454,0-3.7036,1.6582-3.7036,3.7036s1.6582,3.7039,3.7036,3.7039,3.7036-1.6582,3.7036-3.7039-1.6582-3.7036-3.7036-3.7036Z"/><path d="M730.1875,593.3697c-2.0454,0-3.7036,1.6582-3.7036,3.7036s1.6582,3.7039,3.7036,3.7039c2.0454-.0002,3.7036-1.6584,3.7036-3.7039s-1.6582-3.7036-3.7036-3.7036Z"/><circle cx="748.706" cy="615.5919" r="3.7036"/><circle cx="730.1875" cy="634.1104" r="3.7036"/><circle cx="748.706" cy="652.629" r="3.7036"/><path d="M730.1875,667.4437c-2.0454,0-3.7036,1.6582-3.7036,3.7039s1.6582,3.7036,3.7036,3.7036,3.7036-1.6582,3.7036-3.7036-1.6582-3.7036-3.7036-3.7039Z"/><path d="M748.706,685.9622c-2.0454,0-3.7036,1.6582-3.7036,3.7039s1.6582,3.7036,3.7036,3.7036,3.7036-1.6582,3.7036-3.7036-1.6582-3.7039-3.7036-3.7039Z"/><path d="M730.1875,704.4808c-2.0454,0-3.7036,1.6582-3.7036,3.7036v.0002c0,2.0454,1.6582,3.7036,3.7036,3.7036,2.0454-.0002,3.7036-1.6582,3.7036-3.7036v-.0002c0-2.0454-1.6582-3.7034-3.7036-3.7036Z"/><path d="M748.706,722.9994c-2.0454,0-3.7036,1.6582-3.7036,3.7036s1.6582,3.7039,3.7036,3.7039,3.7036-1.6582,3.7036-3.7039-1.6582-3.7036-3.7036-3.7036Z"/><path d="M730.1875,741.5179c-2.0454,0-3.7036,1.6582-3.7036,3.7036s1.6582,3.7039,3.7036,3.7039c2.0454-.0002,3.7036-1.6584,3.7036-3.7039s-1.6582-3.7036-3.7036-3.7036Z"/><path d="M748.706,760.0362c-2.0454,0-3.7036,1.6582-3.7036,3.7039s1.6582,3.7036,3.7036,3.7036,3.7036-1.6582,3.7036-3.7036-1.6582-3.7039-3.7036-3.7039Z"/><path d="M730.1875,778.5548c-2.0454,0-3.7036,1.6582-3.7036,3.7039s1.6582,3.7036,3.7036,3.7036,3.7036-1.6582,3.7036-3.7036-1.6582-3.7036-3.7036-3.7039Z"/><path d="M748.706,797.0733c-2.0454,0-3.7036,1.6582-3.7036,3.7039,0,.2478,.0264,.4893,.0728,.7234h7.2617c.0464-.2341,.0728-.4756,.0728-.7234,0-2.0457-1.6582-3.7039-3.7036-3.7039Z"/><circle cx="711.6689" cy="393.3697" r="3.7036"/><circle cx="693.1504" cy="411.8883" r="3.7036"/><path d="M711.6689,426.703c-2.0454,0-3.7036,1.6582-3.7036,3.7039s1.6582,3.7036,3.7036,3.7036,3.7036-1.6582,3.7036-3.7036-1.6582-3.7039-3.7036-3.7039Z"/><path d="M693.1504,445.2215c-2.0454,0-3.7036,1.6582-3.7036,3.7036v.0002c0,2.0454,1.6582,3.7036,3.7036,3.7036,2.0454-.0002,3.7036-1.6582,3.7036-3.7036v-.0002c0-2.0454-1.6582-3.7034-3.7036-3.7036Z"/><path d="M711.6689,463.7401c-2.0454,0-3.7036,1.6582-3.7036,3.7036s1.6582,3.7039,3.7036,3.7039,3.7036-1.6582,3.7036-3.7039-1.6582-3.7036-3.7036-3.7036Z"/><path d="M693.1504,482.2586c-2.0454,0-3.7036,1.658-3.7036,3.7036s1.6582,3.7039,3.7036,3.7039c2.0454-.0002,3.7036-1.6584,3.7036-3.7039s-1.6582-3.7036-3.7036-3.7036Z"/><path d="M711.6689,500.7772c-2.0454,0-3.7036,1.6582-3.7036,3.7036s1.6582,3.7039,3.7036,3.7039,3.7036-1.6582,3.7036-3.7039-1.6582-3.7036-3.7036-3.7036Z"/><path d="M693.1504,519.2955c-2.0454,0-3.7036,1.6582-3.7036,3.7039s1.6582,3.7036,3.7036,3.7036,3.7036-1.6582,3.7036-3.7036-1.6582-3.7036-3.7036-3.7039Z"/><path d="M711.6689,537.8141c-2.0454,0-3.7036,1.6582-3.7036,3.7039s1.6582,3.7036,3.7036,3.7036,3.7036-1.6582,3.7036-3.7036-1.6582-3.7039-3.7036-3.7039Z"/><path d="M693.1504,556.3326c-2.0454,0-3.7036,1.6582-3.7036,3.7036s1.6582,3.7039,3.7036,3.7039c2.0454-.0002,3.7036-1.6582,3.7036-3.7039s-1.6582-3.7034-3.7036-3.7036Z"/><path d="M711.6689,574.8512c-2.0454,0-3.7036,1.6582-3.7036,3.7036s1.6582,3.7039,3.7036,3.7039,3.7036-1.6582,3.7036-3.7039-1.6582-3.7036-3.7036-3.7036Z"/><path d="M693.1504,593.3697c-2.0454,0-3.7036,1.6582-3.7036,3.7036s1.6582,3.7039,3.7036,3.7039c2.0454-.0002,3.7036-1.6584,3.7036-3.7039s-1.6582-3.7036-3.7036-3.7036Z"/><circle cx="711.6689" cy="615.5919" r="3.7036"/><circle cx="693.1504" cy="634.1104" r="3.7036"/><circle cx="711.6689" cy="652.629" r="3.7036"/><path d="M693.1504,667.4437c-2.0454,0-3.7036,1.6582-3.7036,3.7039s1.6582,3.7036,3.7036,3.7036,3.7036-1.6582,3.7036-3.7036-1.6582-3.7036-3.7036-3.7039Z"/><path d="M711.6689,685.9622c-2.0454,0-3.7036,1.6582-3.7036,3.7039s1.6582,3.7036,3.7036,3.7036,3.7036-1.6582,3.7036-3.7036-1.6582-3.7039-3.7036-3.7039Z"/><path d="M693.1504,704.4808c-2.0454,0-3.7036,1.6582-3.7036,3.7036v.0002c0,2.0454,1.6582,3.7036,3.7036,3.7036,2.0454-.0002,3.7036-1.6582,3.7036-3.7036v-.0002c0-2.0454-1.6582-3.7034-3.7036-3.7036Z"/><path d="M711.6689,722.9994c-2.0454,0-3.7036,1.6582-3.7036,3.7036s1.6582,3.7039,3.7036,3.7039,3.7036-1.6582,3.7036-3.7039-1.6582-3.7036-3.7036-3.7036Z"/><path d="M693.1504,741.5179c-2.0454,0-3.7036,1.6582-3.7036,3.7036s1.6582,3.7039,3.7036,3.7039c2.0454-.0002,3.7036-1.6584,3.7036-3.7039s-1.6582-3.7036-3.7036-3.7036Z"/><path d="M711.6689,760.0362c-2.0454,0-3.7036,1.6582-3.7036,3.7039s1.6582,3.7036,3.7036,3.7036,3.7036-1.6582,3.7036-3.7036-1.6582-3.7039-3.7036-3.7039Z"/><path d="M693.1504,778.5548c-2.0454,0-3.7036,1.6582-3.7036,3.7039s1.6582,3.7036,3.7036,3.7036,3.7036-1.6582,3.7036-3.7036-1.6582-3.7036-3.7036-3.7039Z"/><path d="M711.6689,797.0733c-2.0454,0-3.7036,1.6582-3.7036,3.7039,0,.2478,.0264,.4893,.0728,.7234h7.2617c.0464-.2341,.0728-.4756,.0728-.7234,0-2.0457-1.6582-3.7039-3.7036-3.7039Z"/><path d="M674.6318,426.703c-2.0454,0-3.7036,1.6582-3.7036,3.7039s1.6582,3.7036,3.7036,3.7036,3.7036-1.6582,3.7036-3.7036-1.6582-3.7039-3.7036-3.7039Z"/><path d="M656.1133,445.2215c-2.0454,0-3.7036,1.6582-3.7036,3.7036v.0002c0,2.0454,1.6582,3.7036,3.7036,3.7036,2.0459-.0002,3.7036-1.6582,3.7036-3.7036v-.0002c0-2.0454-1.6577-3.7034-3.7036-3.7036Z"/><path d="M674.6318,463.7401c-2.0454,0-3.7036,1.6582-3.7036,3.7036s1.6582,3.7039,3.7036,3.7039,3.7036-1.6582,3.7036-3.7039-1.6582-3.7036-3.7036-3.7036Z"/><path d="M656.1133,482.2586c-2.0454,0-3.7036,1.658-3.7036,3.7036s1.6582,3.7039,3.7036,3.7039c2.0459-.0002,3.7036-1.6584,3.7036-3.7039s-1.6577-3.7036-3.7036-3.7036Z"/><path d="M674.6318,500.7772c-2.0454,0-3.7036,1.6582-3.7036,3.7036s1.6582,3.7039,3.7036,3.7039,3.7036-1.6582,3.7036-3.7039-1.6582-3.7036-3.7036-3.7036Z"/><path d="M656.1133,519.2955c-2.0454,0-3.7036,1.6582-3.7036,3.7039s1.6582,3.7036,3.7036,3.7036,3.7036-1.6582,3.7036-3.7036-1.6577-3.7036-3.7036-3.7039Z"/><path d="M674.6318,537.8141c-2.0454,0-3.7036,1.6582-3.7036,3.7039s1.6582,3.7036,3.7036,3.7036,3.7036-1.6582,3.7036-3.7036-1.6582-3.7039-3.7036-3.7039Z"/><path d="M656.1133,556.3326c-2.0454,0-3.7036,1.6582-3.7036,3.7036s1.6582,3.7039,3.7036,3.7039c2.0459-.0002,3.7036-1.6582,3.7036-3.7039s-1.6577-3.7034-3.7036-3.7036Z"/><path d="M674.6318,574.8512c-2.0454,0-3.7036,1.6582-3.7036,3.7036s1.6582,3.7039,3.7036,3.7039,3.7036-1.6582,3.7036-3.7039-1.6582-3.7036-3.7036-3.7036Z"/><path d="M656.1133,593.3697c-2.0454,0-3.7036,1.6582-3.7036,3.7036s1.6582,3.7039,3.7036,3.7039c2.0459-.0002,3.7036-1.6584,3.7036-3.7039s-1.6577-3.7036-3.7036-3.7036Z"/><circle cx="674.6318" cy="615.5919" r="3.7036"/><circle cx="656.1133" cy="634.1104" r="3.7036"/><circle cx="674.6318" cy="652.629" r="3.7036"/><path d="M656.1133,667.4437c-2.0454,0-3.7036,1.6582-3.7036,3.7039s1.6582,3.7036,3.7036,3.7036,3.7036-1.6582,3.7036-3.7036-1.6577-3.7036-3.7036-3.7039Z"/><path d="M674.6318,685.9622c-2.0454,0-3.7036,1.6582-3.7036,3.7039s1.6582,3.7036,3.7036,3.7036,3.7036-1.6582,3.7036-3.7036-1.6582-3.7039-3.7036-3.7039Z"/><path d="M656.1133,704.4808c-2.0454,0-3.7036,1.6582-3.7036,3.7036v.0002c0,2.0454,1.6582,3.7036,3.7036,3.7036,2.0459-.0002,3.7036-1.6582,3.7036-3.7036v-.0002c0-2.0454-1.6577-3.7034-3.7036-3.7036Z"/><path d="M674.6318,722.9994c-2.0454,0-3.7036,1.6582-3.7036,3.7036s1.6582,3.7039,3.7036,3.7039,3.7036-1.6582,3.7036-3.7039-1.6582-3.7036-3.7036-3.7036Z"/><path d="M656.1133,741.5179c-2.0454,0-3.7036,1.6582-3.7036,3.7036s1.6582,3.7039,3.7036,3.7039c2.0459-.0002,3.7036-1.6584,3.7036-3.7039s-1.6577-3.7036-3.7036-3.7036Z"/><path d="M674.6318,760.0362c-2.0454,0-3.7036,1.6582-3.7036,3.7039s1.6582,3.7036,3.7036,3.7036,3.7036-1.6582,3.7036-3.7036-1.6582-3.7039-3.7036-3.7039Z"/><path d="M656.1133,778.5548c-2.0454,0-3.7036,1.6582-3.7036,3.7039s1.6582,3.7036,3.7036,3.7036,3.7036-1.6582,3.7036-3.7036-1.6577-3.7036-3.7036-3.7039Z"/><path d="M674.6318,797.0733c-2.0454,0-3.7036,1.6582-3.7036,3.7039,0,.2478,.0264,.4893,.0728,.7234h7.2617c.0464-.2341,.0728-.4756,.0728-.7234,0-2.0457-1.6582-3.7039-3.7036-3.7039Z"/><path d="M637.5947,463.7401c-2.0454,0-3.7036,1.6582-3.7036,3.7036s1.6582,3.7039,3.7036,3.7039,3.7036-1.6582,3.7036-3.7039-1.6582-3.7036-3.7036-3.7036Z"/><path d="M619.0766,482.2586h-.0005c-2.0454,0-3.7036,1.658-3.7036,3.7036s1.6582,3.7039,3.7036,3.7039h.0005c2.0454-.0002,3.7036-1.6584,3.7036-3.7039s-1.6582-3.7036-3.7036-3.7036Z"/><path d="M637.5947,500.7772c-2.0454,0-3.7036,1.6582-3.7036,3.7036s1.6582,3.7039,3.7036,3.7039,3.7036-1.6582,3.7036-3.7039-1.6582-3.7036-3.7036-3.7036Z"/><path d="M619.0766,519.2955h-.0005c-2.0454,0-3.7036,1.6582-3.7036,3.7039s1.6582,3.7036,3.7036,3.7036h.0005c2.0454,0,3.7036-1.6582,3.7036-3.7036s-1.6582-3.7036-3.7036-3.7039Z"/><path d="M637.5947,537.8141c-2.0454,0-3.7036,1.6582-3.7036,3.7039s1.6582,3.7036,3.7036,3.7036,3.7036-1.6582,3.7036-3.7036-1.6582-3.7039-3.7036-3.7039Z"/><path d="M619.0766,556.3326h-.0005c-2.0454,0-3.7036,1.6582-3.7036,3.7036s1.6582,3.7039,3.7036,3.7039h.0005c2.0454-.0002,3.7036-1.6582,3.7036-3.7039s-1.6582-3.7034-3.7036-3.7036Z"/><path d="M637.5947,574.8512c-2.0454,0-3.7036,1.6582-3.7036,3.7036s1.6582,3.7039,3.7036,3.7039,3.7036-1.6582,3.7036-3.7039-1.6582-3.7036-3.7036-3.7036Z"/><path d="M619.0766,593.3697h-.0005c-2.0454,0-3.7036,1.6582-3.7036,3.7036s1.6582,3.7039,3.7036,3.7039h.0005c2.0454-.0002,3.7036-1.6584,3.7036-3.7039s-1.6582-3.7036-3.7036-3.7036Z"/><circle cx="637.5947" cy="615.5919" r="3.7036"/><path d="M619.0766,630.4068h-.0005c-2.0454,0-3.7036,1.6582-3.7036,3.7036s1.6582,3.7036,3.7036,3.7036h.0005c2.0454,0,3.7036-1.6582,3.7036-3.7036s-1.6582-3.7036-3.7036-3.7036Z"/><circle cx="637.5947" cy="652.629" r="3.7036"/><path d="M619.0766,667.4437h-.0005c-2.0454,0-3.7036,1.6582-3.7036,3.7039s1.6582,3.7036,3.7036,3.7036h.0005c2.0454,0,3.7036-1.6582,3.7036-3.7036s-1.6582-3.7036-3.7036-3.7039Z"/><path d="M637.5947,685.9622c-2.0454,0-3.7036,1.6582-3.7036,3.7039s1.6582,3.7036,3.7036,3.7036,3.7036-1.6582,3.7036-3.7036-1.6582-3.7039-3.7036-3.7039Z"/><rect x="615.3725" y="704.4808" width="7.4077" height="7.4075" rx="3.7036" ry="3.7036"/><path d="M637.5947,722.9994c-2.0454,0-3.7036,1.6582-3.7036,3.7036s1.6582,3.7039,3.7036,3.7039,3.7036-1.6582,3.7036-3.7039-1.6582-3.7036-3.7036-3.7036Z"/><path d="M619.0766,741.5179h-.0005c-2.0454,0-3.7036,1.6582-3.7036,3.7036s1.6582,3.7039,3.7036,3.7039h.0005c2.0454-.0002,3.7036-1.6584,3.7036-3.7039s-1.6582-3.7036-3.7036-3.7036Z"/><path d="M637.5947,760.0362c-2.0454,0-3.7036,1.6582-3.7036,3.7039s1.6582,3.7036,3.7036,3.7036,3.7036-1.6582,3.7036-3.7036-1.6582-3.7039-3.7036-3.7039Z"/><path d="M619.0766,778.5548h-.0005c-2.0454,0-3.7036,1.6582-3.7036,3.7039s1.6582,3.7036,3.7036,3.7036h.0005c2.0454,0,3.7036-1.6582,3.7036-3.7036s-1.6582-3.7036-3.7036-3.7039Z"/><path d="M637.5947,797.0733c-2.0454,0-3.7036,1.6582-3.7036,3.7039,0,.2478,.0264,.4893,.0728,.7234h7.2617c.0464-.2341,.0728-.4756,.0728-.7234,0-2.0457-1.6582-3.7039-3.7036-3.7039Z"/><path d="M600.5576,500.7772c-2.0454,0-3.7036,1.6582-3.7036,3.7036s1.6582,3.7039,3.7036,3.7039,3.7041-1.6582,3.7041-3.7039-1.6582-3.7036-3.7041-3.7036Z"/><path d="M582.0395,519.2955h-.0005c-2.0454,0-3.7036,1.6582-3.7036,3.7039s1.6582,3.7036,3.7036,3.7036h.0005c2.0454,0,3.7036-1.6582,3.7036-3.7036s-1.6582-3.7036-3.7036-3.7039Z"/><path d="M600.5576,537.8141c-2.0454,0-3.7036,1.6582-3.7036,3.7039s1.6582,3.7036,3.7036,3.7036,3.7041-1.6582,3.7041-3.7036-1.6582-3.7039-3.7041-3.7039Z"/><path d="M582.0395,556.3326h-.0005c-2.0454,0-3.7036,1.6582-3.7036,3.7036s1.6582,3.7039,3.7036,3.7039h.0005c2.0454-.0002,3.7036-1.6582,3.7036-3.7039s-1.6582-3.7034-3.7036-3.7036Z"/><path d="M600.5576,574.8512c-2.0454,0-3.7036,1.6582-3.7036,3.7036s1.6582,3.7039,3.7036,3.7039,3.7041-1.6582,3.7041-3.7039-1.6582-3.7036-3.7041-3.7036Z"/><path d="M582.0395,593.3697h-.0005c-2.0454,0-3.7036,1.6582-3.7036,3.7036s1.6582,3.7039,3.7036,3.7039h.0005c2.0454-.0002,3.7036-1.6584,3.7036-3.7039s-1.6582-3.7036-3.7036-3.7036Z"/><path d="M600.5576,611.8883c-2.0454,0-3.7036,1.6582-3.7036,3.7036s1.6582,3.7036,3.7036,3.7036,3.7041-1.6582,3.7041-3.7036-1.6582-3.7036-3.7041-3.7036Z"/><path d="M582.0395,630.4068h-.0005c-2.0454,0-3.7036,1.6582-3.7036,3.7036s1.6582,3.7036,3.7036,3.7036h.0005c2.0454,0,3.7036-1.6582,3.7036-3.7036s-1.6582-3.7036-3.7036-3.7036Z"/><path d="M600.5576,648.9254c-2.0454,0-3.7036,1.6582-3.7036,3.7036s1.6582,3.7036,3.7036,3.7036,3.7041-1.6582,3.7041-3.7036-1.6582-3.7036-3.7041-3.7036Z"/><path d="M582.0395,667.4437h-.0005c-2.0454,0-3.7036,1.6582-3.7036,3.7039s1.6582,3.7036,3.7036,3.7036h.0005c2.0454,0,3.7036-1.6582,3.7036-3.7036s-1.6582-3.7036-3.7036-3.7039Z"/><path d="M600.5576,685.9622c-2.0454,0-3.7036,1.6582-3.7036,3.7039s1.6582,3.7036,3.7036,3.7036,3.7041-1.6582,3.7041-3.7036-1.6582-3.7039-3.7041-3.7039Z"/><rect x="578.3354" y="704.4808" width="7.4077" height="7.4075" rx="3.7036" ry="3.7036"/><path d="M600.5576,722.9994c-2.0454,0-3.7036,1.6582-3.7036,3.7036s1.6582,3.7039,3.7036,3.7039,3.7041-1.6582,3.7041-3.7039-1.6582-3.7036-3.7041-3.7036Z"/><path d="M582.0395,741.5179h-.0005c-2.0454,0-3.7036,1.6582-3.7036,3.7036s1.6582,3.7039,3.7036,3.7039h.0005c2.0454-.0002,3.7036-1.6584,3.7036-3.7039s-1.6582-3.7036-3.7036-3.7036Z"/><path d="M600.5576,760.0362c-2.0454,0-3.7036,1.6582-3.7036,3.7039s1.6582,3.7036,3.7036,3.7036,3.7041-1.6582,3.7041-3.7036-1.6582-3.7039-3.7041-3.7039Z"/><path d="M582.0395,778.5548h-.0005c-2.0454,0-3.7036,1.6582-3.7036,3.7039s1.6582,3.7036,3.7036,3.7036h.0005c2.0454,0,3.7036-1.6582,3.7036-3.7036s-1.6582-3.7036-3.7036-3.7039Z"/><path d="M600.5576,797.0733c-2.0454,0-3.7036,1.6582-3.7036,3.7039,0,.2478,.0264,.4893,.0728,.7234h7.2617c.0464-.2341,.0732-.4756,.0732-.7234,0-2.0457-1.6582-3.7039-3.7041-3.7039Z"/><path d="M563.5205,537.8141c-2.0454,0-3.7036,1.6582-3.7036,3.7039s1.6582,3.7036,3.7036,3.7036,3.7041-1.6582,3.7041-3.7036-1.6582-3.7039-3.7041-3.7039Z"/><path d="M545.0024,556.3326c-2.0459,0-3.7041,1.6582-3.7041,3.7036s1.6582,3.7039,3.7041,3.7039c2.0454-.0002,3.7036-1.6582,3.7036-3.7039s-1.6582-3.7034-3.7036-3.7036Z"/><path d="M563.5205,574.8512c-2.0454,0-3.7036,1.6582-3.7036,3.7036s1.6582,3.7039,3.7036,3.7039,3.7041-1.6582,3.7041-3.7039-1.6582-3.7036-3.7041-3.7036Z"/><path d="M545.0024,593.3697c-2.0459,0-3.7041,1.6582-3.7041,3.7036s1.6582,3.7039,3.7041,3.7039c2.0454-.0002,3.7036-1.6584,3.7036-3.7039s-1.6582-3.7036-3.7036-3.7036Z"/><path d="M563.5205,611.8883c-2.0454,0-3.7036,1.6582-3.7036,3.7036s1.6582,3.7036,3.7036,3.7036,3.7041-1.6582,3.7041-3.7036-1.6582-3.7036-3.7041-3.7036Z"/><path d="M545.0024,630.4068c-2.0459,0-3.7041,1.6582-3.7041,3.7036s1.6582,3.7036,3.7041,3.7036,3.7036-1.6582,3.7036-3.7036-1.6582-3.7036-3.7036-3.7036Z"/><path d="M563.5205,648.9254c-2.0454,0-3.7036,1.6582-3.7036,3.7036s1.6582,3.7036,3.7036,3.7036,3.7041-1.6582,3.7041-3.7036-1.6582-3.7036-3.7041-3.7036Z"/><path d="M545.0024,667.4437c-2.0459,0-3.7041,1.6582-3.7041,3.7039s1.6582,3.7036,3.7041,3.7036,3.7036-1.6582,3.7036-3.7036-1.6582-3.7036-3.7036-3.7039Z"/><path d="M563.5205,685.9622c-2.0454,0-3.7036,1.6582-3.7036,3.7039s1.6582,3.7036,3.7036,3.7036,3.7041-1.6582,3.7041-3.7036-1.6582-3.7039-3.7041-3.7039Z"/><path d="M545.0024,704.4808c-2.0459,0-3.7041,1.6582-3.7041,3.7036v.0002c0,2.0454,1.6582,3.7036,3.7041,3.7036,2.0454-.0002,3.7036-1.6582,3.7036-3.7036v-.0002c0-2.0454-1.6582-3.7034-3.7036-3.7036Z"/><path d="M563.5205,722.9994c-2.0454,0-3.7036,1.6582-3.7036,3.7036s1.6582,3.7039,3.7036,3.7039,3.7041-1.6582,3.7041-3.7039-1.6582-3.7036-3.7041-3.7036Z"/><path d="M545.0024,741.5179c-2.0459,0-3.7041,1.6582-3.7041,3.7036s1.6582,3.7039,3.7041,3.7039c2.0454-.0002,3.7036-1.6584,3.7036-3.7039s-1.6582-3.7036-3.7036-3.7036Z"/><path d="M563.5205,760.0362c-2.0454,0-3.7036,1.6582-3.7036,3.7039s1.6582,3.7036,3.7036,3.7036,3.7041-1.6582,3.7041-3.7036-1.6582-3.7039-3.7041-3.7039Z"/><path d="M545.0024,778.5548c-2.0459,0-3.7041,1.6582-3.7041,3.7039s1.6582,3.7036,3.7041,3.7036,3.7036-1.6582,3.7036-3.7036-1.6582-3.7036-3.7036-3.7039Z"/><path d="M563.5205,797.0733c-2.0454,0-3.7036,1.6582-3.7036,3.7039,0,.2478,.0269,.4893,.0732,.7234h7.2612c.0469-.2341,.0732-.4756,.0732-.7234,0-2.0457-1.6582-3.7039-3.7041-3.7039Z"/><path d="M526.4839,574.8512c-2.0454,0-3.7036,1.6582-3.7036,3.7036s1.6582,3.7039,3.7036,3.7039,3.7036-1.6582,3.7036-3.7039-1.6582-3.7036-3.7036-3.7036Z"/><path d="M507.9653,593.3697c-2.0454,0-3.7036,1.6582-3.7036,3.7036s1.6582,3.7039,3.7036,3.7039c2.0454-.0002,3.7036-1.6584,3.7036-3.7039s-1.6582-3.7036-3.7036-3.7036Z"/><circle cx="526.4839" cy="615.5919" r="3.7036"/><circle cx="507.9653" cy="634.1104" r="3.7036"/><circle cx="526.4839" cy="652.629" r="3.7036"/><path d="M507.9653,667.4437c-2.0454,0-3.7036,1.6582-3.7036,3.7039s1.6582,3.7036,3.7036,3.7036,3.7036-1.6582,3.7036-3.7036-1.6582-3.7036-3.7036-3.7039Z"/><path d="M526.4839,685.9622c-2.0454,0-3.7036,1.6582-3.7036,3.7039s1.6582,3.7036,3.7036,3.7036,3.7036-1.6582,3.7036-3.7036-1.6582-3.7039-3.7036-3.7039Z"/><path d="M507.9653,704.4808c-2.0454,0-3.7036,1.6582-3.7036,3.7036v.0002c0,2.0454,1.6582,3.7036,3.7036,3.7036,2.0454-.0002,3.7036-1.6582,3.7036-3.7036v-.0002c0-2.0454-1.6582-3.7034-3.7036-3.7036Z"/><path d="M526.4839,722.9994c-2.0454,0-3.7036,1.6582-3.7036,3.7036s1.6582,3.7039,3.7036,3.7039,3.7036-1.6582,3.7036-3.7039-1.6582-3.7036-3.7036-3.7036Z"/><path d="M507.9653,741.5179c-2.0454,0-3.7036,1.6582-3.7036,3.7036s1.6582,3.7039,3.7036,3.7039c2.0454-.0002,3.7036-1.6584,3.7036-3.7039s-1.6582-3.7036-3.7036-3.7036Z"/><path d="M526.4839,760.0362c-2.0454,0-3.7036,1.6582-3.7036,3.7039s1.6582,3.7036,3.7036,3.7036,3.7036-1.6582,3.7036-3.7036-1.6582-3.7039-3.7036-3.7039Z"/><path d="M507.9653,778.5548c-2.0454,0-3.7036,1.6582-3.7036,3.7039s1.6582,3.7036,3.7036,3.7036,3.7036-1.6582,3.7036-3.7036-1.6582-3.7036-3.7036-3.7039Z"/><path d="M526.4839,797.0733c-2.0454,0-3.7036,1.6582-3.7036,3.7039,0,.2478,.0264,.4893,.0728,.7234h7.2612c.0469-.2341,.0732-.4756,.0732-.7234,0-2.0457-1.6582-3.7039-3.7036-3.7039Z"/><circle cx="489.4468" cy="615.5919" r="3.7036"/><circle cx="470.9282" cy="634.1104" r="3.7036"/><circle cx="489.4468" cy="652.629" r="3.7036"/><path d="M470.9282,667.4437c-2.0454,0-3.7036,1.6582-3.7036,3.7039s1.6582,3.7036,3.7036,3.7036,3.7036-1.6582,3.7036-3.7036-1.6582-3.7036-3.7036-3.7039Z"/><path d="M489.4468,685.9622c-2.0454,0-3.7036,1.6582-3.7036,3.7039s1.6582,3.7036,3.7036,3.7036,3.7036-1.6582,3.7036-3.7036-1.6582-3.7039-3.7036-3.7039Z"/><path d="M470.9282,704.4808c-2.0454,0-3.7036,1.6582-3.7036,3.7036v.0002c0,2.0454,1.6582,3.7036,3.7036,3.7036,2.0454-.0002,3.7036-1.6582,3.7036-3.7036v-.0002c0-2.0454-1.6582-3.7034-3.7036-3.7036Z"/><path d="M489.4468,722.9994c-2.0454,0-3.7036,1.6582-3.7036,3.7036s1.6582,3.7039,3.7036,3.7039,3.7036-1.6582,3.7036-3.7039-1.6582-3.7036-3.7036-3.7036Z"/><path d="M470.9282,741.5179c-2.0454,0-3.7036,1.6582-3.7036,3.7036s1.6582,3.7039,3.7036,3.7039c2.0454-.0002,3.7036-1.6584,3.7036-3.7039s-1.6582-3.7036-3.7036-3.7036Z"/><path d="M489.4468,760.0362c-2.0454,0-3.7036,1.6582-3.7036,3.7039s1.6582,3.7036,3.7036,3.7036,3.7036-1.6582,3.7036-3.7036-1.6582-3.7039-3.7036-3.7039Z"/><path d="M470.9282,778.5548c-2.0454,0-3.7036,1.6582-3.7036,3.7039s1.6582,3.7036,3.7036,3.7036,3.7036-1.6582,3.7036-3.7036-1.6582-3.7036-3.7036-3.7039Z"/><path d="M489.4468,797.0733c-2.0454,0-3.7036,1.6582-3.7036,3.7039,0,.2478,.0264,.4893,.0728,.7234h7.2617c.0464-.2341,.0728-.4756,.0728-.7234,0-2.0457-1.6582-3.7039-3.7036-3.7039Z"/><circle cx="452.4097" cy="652.629" r="3.7036"/><path d="M433.8911,667.4437c-2.0454,0-3.7036,1.6582-3.7036,3.7039s1.6582,3.7036,3.7036,3.7036,3.7036-1.6582,3.7036-3.7036-1.6582-3.7036-3.7036-3.7039Z"/><path d="M452.4097,685.9622c-2.0454,0-3.7036,1.6582-3.7036,3.7039s1.6582,3.7036,3.7036,3.7036,3.7036-1.6582,3.7036-3.7036-1.6582-3.7039-3.7036-3.7039Z"/><path d="M433.8911,704.4808c-2.0454,0-3.7036,1.6582-3.7036,3.7036v.0002c0,2.0454,1.6582,3.7036,3.7036,3.7036,2.0454-.0002,3.7036-1.6582,3.7036-3.7036v-.0002c0-2.0454-1.6582-3.7034-3.7036-3.7036Z"/><path d="M452.4097,722.9994c-2.0454,0-3.7036,1.6582-3.7036,3.7036s1.6582,3.7039,3.7036,3.7039,3.7036-1.6582,3.7036-3.7039-1.6582-3.7036-3.7036-3.7036Z"/><path d="M433.8911,741.5179c-2.0454,0-3.7036,1.6582-3.7036,3.7036s1.6582,3.7039,3.7036,3.7039c2.0454-.0002,3.7036-1.6584,3.7036-3.7039s-1.6582-3.7036-3.7036-3.7036Z"/><path d="M452.4097,760.0362c-2.0454,0-3.7036,1.6582-3.7036,3.7039s1.6582,3.7036,3.7036,3.7036,3.7036-1.6582,3.7036-3.7036-1.6582-3.7039-3.7036-3.7039Z"/><path d="M433.8911,778.5548c-2.0454,0-3.7036,1.6582-3.7036,3.7039s1.6582,3.7036,3.7036,3.7036,3.7036-1.6582,3.7036-3.7036-1.6582-3.7036-3.7036-3.7039Z"/><path d="M452.4097,797.0733c-2.0454,0-3.7036,1.6582-3.7036,3.7039,0,.2478,.0264,.4893,.0728,.7234h7.2617c.0464-.2341,.0728-.4756,.0728-.7234,0-2.0457-1.6582-3.7039-3.7036-3.7039Z"/><path d="M415.3725,685.9622c-2.0454,0-3.7036,1.6582-3.7036,3.7039s1.6582,3.7036,3.7036,3.7036,3.7036-1.6582,3.7036-3.7036-1.6582-3.7039-3.7036-3.7039Z"/><path d="M396.854,704.4808h0c2.0441,0,3.7036,1.6595,3.7036,3.7036v.0003c0,2.0441-1.6595,3.7036-3.7036,3.7036h-.0005c-2.0438,0-3.7031-1.6593-3.7031-3.7031v-.0007c0-2.0441,1.6595-3.7036,3.7036-3.7036Z"/><path d="M415.3725,722.9994c-2.0454,0-3.7036,1.6582-3.7036,3.7036s1.6582,3.7039,3.7036,3.7039,3.7036-1.6582,3.7036-3.7039-1.6582-3.7036-3.7036-3.7036Z"/><path d="M396.8545,741.5179h-.0005c-2.0454,0-3.7036,1.6582-3.7036,3.7036s1.6582,3.7039,3.7036,3.7039h.0005c2.0454-.0002,3.7031-1.6584,3.7031-3.7039s-1.6577-3.7036-3.7031-3.7036Z"/><path d="M415.3725,760.0362c-2.0454,0-3.7036,1.6582-3.7036,3.7039s1.6582,3.7036,3.7036,3.7036,3.7036-1.6582,3.7036-3.7036-1.6582-3.7039-3.7036-3.7039Z"/><path d="M396.8545,778.5548h-.0005c-2.0454,0-3.7036,1.6582-3.7036,3.7039s1.6582,3.7036,3.7036,3.7036h.0005c2.0454,0,3.7031-1.6582,3.7031-3.7036s-1.6577-3.7036-3.7031-3.7039Z"/><path d="M415.3725,797.0733c-2.0454,0-3.7036,1.6582-3.7036,3.7039,0,.2478,.0264,.4893,.0728,.7234h7.2617c.0464-.2341,.0728-.4756,.0728-.7234,0-2.0457-1.6582-3.7039-3.7036-3.7039Z"/><path d="M378.3354,722.9994c-2.0454,0-3.7036,1.6582-3.7036,3.7036s1.6582,3.7039,3.7036,3.7039,3.7036-1.6582,3.7036-3.7039-1.6582-3.7036-3.7036-3.7036Z"/><path d="M359.8174,741.5179h-.0005c-2.0454,0-3.7036,1.6582-3.7036,3.7036s1.6582,3.7039,3.7036,3.7039h.0005c2.0454-.0002,3.7031-1.6584,3.7031-3.7039s-1.6577-3.7036-3.7031-3.7036Z"/><path d="M378.3354,760.0362c-2.0454,0-3.7036,1.6582-3.7036,3.7039s1.6582,3.7036,3.7036,3.7036,3.7036-1.6582,3.7036-3.7036-1.6582-3.7039-3.7036-3.7039Z"/><path d="M359.8174,778.5548h-.0005c-2.0454,0-3.7036,1.6582-3.7036,3.7039s1.6582,3.7036,3.7036,3.7036h.0005c2.0454,0,3.7031-1.6582,3.7031-3.7036s-1.6577-3.7036-3.7031-3.7039Z"/><path d="M378.3354,797.0733c-2.0454,0-3.7036,1.6582-3.7036,3.7039,0,.2478,.0264,.4893,.0732,.7234h7.2612c.0464-.2341,.0728-.4756,.0728-.7234,0-2.0457-1.6582-3.7039-3.7036-3.7039Z"/><path d="M341.2983,760.0362c-2.0454,0-3.7036,1.6582-3.7036,3.7039s1.6582,3.7036,3.7036,3.7036,3.7041-1.6582,3.7041-3.7036-1.6582-3.7039-3.7041-3.7039Z"/><path d="M322.7803,778.5548c-2.0459,0-3.7041,1.6582-3.7041,3.7039s1.6582,3.7036,3.7041,3.7036,3.7036-1.6582,3.7036-3.7036-1.6582-3.7036-3.7036-3.7039Z"/><path d="M341.2983,797.0733c-2.0454,0-3.7036,1.6582-3.7036,3.7039,0,.2478,.0264,.4893,.0732,.7234h7.2612c.0464-.2341,.0732-.4756,.0732-.7234,0-2.0457-1.6582-3.7039-3.7041-3.7039Z"/><path d="M304.2617,797.0733c-2.0459,0-3.7041,1.6582-3.7041,3.7039,0,.2478,.0269,.4893,.0732,.7234h7.2612c.0464-.2341,.0732-.4756,.0732-.7234,0-2.0457-1.6582-3.7039-3.7036-3.7039Z"/></g><g><path d="M101.3391,462.969c-17.0757,0-30.9678,13.8916-30.9678,30.9678s13.8921,30.9678,30.9678,30.9678,30.968-13.8916,30.968-30.9678-13.8921-30.9678-30.968-30.9678Zm0,56.9355c-14.3186,0-25.9678-11.6494-25.9678-25.9678s11.6492-25.9678,25.9678-25.9678,25.968,11.6494,25.968,25.9678-11.6492,25.9678-25.968,25.9678Z"/><path d="M101.1391,882.2033c-17.0757,0-30.9678,13.8916-30.9678,30.9678s13.8921,30.9678,30.9678,30.9678,30.9678-13.8916,30.9678-30.9678-13.8921-30.9678-30.9678-30.9678Zm0,56.9355c-14.3186,0-25.9678-11.6494-25.9678-25.9678s11.6492-25.9678,25.9678-25.9678,25.9678,11.6494,25.9678,25.9678-11.6492,25.9678-25.9678,25.9678Z"/><path d="M974.6689,105.7844h-155.5799c-1.3077,0-2.4992,.9411-2.6293,2.2424-.1496,1.4965,1.0213,2.7576,2.4871,2.7576h155.7222c34.7006,0,62.8311,28.1304,62.8311,62.8311v194.2988c0,34.7001-28.13,62.8301-62.8301,62.8301h-72.3618v-147.2437h-43.4312v-48.4312H221.123v195.6748H105.3303c-37.4617,0-67.8303,30.3687-67.8303,67.8303v407.8103c0,37.4615,30.3686,67.8301,67.8301,67.8301h170.2503c1.3077,0,2.4992-.9411,2.6293-2.2424,.1496-1.4965-1.0213-2.7576-2.4871-2.7576H105.3303c-34.7002,0-62.8303-28.1301-62.8303-62.8303V498.5744c0-34.7001,28.13-62.8301,62.8301-62.8301h115.793v365.7559c0,1.3807,1.1193,2.5,2.5,2.5h45.9314v43.4316H902.3081V435.7443h72.3613c37.4618,0,67.8306-30.3688,67.8306-67.8306V173.6154c0-37.4621-30.369-67.8311-67.8311-67.8311Zm-180.8833,204.2388c0,5.7078-4.627,10.3347-10.3347,10.3347s-10.3345-4.627-10.3345-10.3347,4.627-10.3345,10.3345-10.3345,10.3347,4.627,10.3347,10.3345Zm-42.5701,0c0,5.7078-4.627,10.3347-10.3347,10.3347s-10.3345-4.627-10.3345-10.3347,4.627-10.3345,10.3345-10.3345,10.3347,4.627,10.3347,10.3345Zm-232.4138,.0005c0,1.3809-1.1191,2.5-2.5,2.5h-232.7002c-1.3809,0-2.5-1.1191-2.5-2.5s1.1191-2.5,2.5-2.5h232.7002c1.3809,0,2.5,1.1191,2.5,2.5ZM226.123,799.0002V372.1037H853.8769v426.8965H226.123Z"/><path d="M980.9516,200.9201c17.0757,0,30.9678-13.8916,30.9678-30.9678s-13.8921-30.9678-30.9678-30.9678-30.9683,13.8916-30.9683,30.9678,13.8921,30.9678,30.9683,30.9678Zm0-56.9355c14.3188,0,25.9678,11.6494,25.9678,25.9678s-11.6489,25.9678-25.9678,25.9678-25.9683-11.6494-25.9683-25.9678,11.6494-25.9678,25.9683-25.9678Z"/><path d="M979.5312,403.0715c17.0762,0,30.9683-13.8916,30.9683-30.9678s-13.8921-30.9678-30.9683-30.9678-30.9678,13.8916-30.9678,30.9678,13.8921,30.9678,30.9678,30.9678Zm0-56.9355c14.3188,0,25.9683,11.6494,25.9683,25.9678s-11.6494,25.9678-25.9683,25.9678-25.9678-11.6494-25.9678-25.9678,11.6489-25.9678,25.9678-25.9678Z"/><path d="M819.1001,940.7473c-16.2339,0-29.5803,12.5576-30.8586,28.4678h-196.1423c-1.3809,0-2.5,1.1191-2.5,2.5s1.1191,2.5,2.5,2.5h196.1423c1.2783,15.9102,14.6248,28.4678,30.8586,28.4678,17.0757,0,30.9678-13.8916,30.9678-30.9678s-13.8921-30.9678-30.9678-30.9678Zm-25.8455,28.4678c1.2625-13.1494,12.3701-23.4678,25.8455-23.4678,14.3188,0,25.9678,11.6494,25.9678,25.9678s-11.6489,25.9678-25.9678,25.9678c-13.4753,0-24.583-10.3184-25.8455-23.4678v-5Z"/><path d="M304.1904,139.2522c16.2334,0,29.5798-12.5576,30.8582-28.4678h181.2532c1.3809,0,2.5-1.1191,2.5-2.5s-1.1191-2.5-2.5-2.5h-181.2532c-1.2783-15.9102-14.6248-28.4678-30.8582-28.4678-17.0757,0-30.9678,13.8916-30.9678,30.9678s13.8921,30.9678,30.9678,30.9678Zm0-56.9355c14.3188,0,25.9678,11.6494,25.9678,25.9678s-11.6489,25.9678-25.9678,25.9678-25.9678-11.6494-25.9678-25.9678,11.6489-25.9678,25.9678-25.9678Z"/><path d="M322.7568,926.1545h74.0122c1.3809,0,2.5-1.1191,2.5-2.5s-1.1191-2.5-2.5-2.5h-74.0122c-1.3809,0-2.5,1.1191-2.5,2.5s1.1191,2.5,2.5,2.5Z"/><path d="M322.7568,974.215h135.771c1.3809,0,2.5-1.1191,2.5-2.5s-1.1191-2.5-2.5-2.5h-135.771c-1.3809,0-2.5,1.1191-2.5,2.5s1.1191,2.5,2.5,2.5Z"/><path d="M552.3579,969.215h-74.0117c-1.3809,0-2.5,1.1191-2.5,2.5s1.1191,2.5,2.5,2.5h74.0117c1.3809,0,2.5-1.1191,2.5-2.5s-1.1191-2.5-2.5-2.5Z"/><path d="M552.3579,1017.2756h-135.771c-1.3809,0-2.5,1.1191-2.5,2.5s1.1191,2.5,2.5,2.5h135.771c1.3809,0,2.5-1.1191,2.5-2.5s-1.1191-2.5-2.5-2.5Z"/><path d="M396.769,1017.2756h-74.0122c-1.3809,0-2.5,1.1191-2.5,2.5s1.1191,2.5,2.5,2.5h74.0122c1.3809,0,2.5-1.1191,2.5-2.5s-1.1191-2.5-2.5-2.5Z"/><path d="M552.3579,921.1545h-74.0117c-1.3809,0-2.5,1.1191-2.5,2.5s1.1191,2.5,2.5,2.5h74.0117c1.3809,0,2.5-1.1191,2.5-2.5s-1.1191-2.5-2.5-2.5Z"/><path d="M458.5278,926.1545c1.3809,0,2.5-1.1191,2.5-2.5s-1.1191-2.5-2.5-2.5h-37.0059c-1.3809,0-2.5,1.1191-2.5,2.5s1.1191,2.5,2.5,2.5h37.0059Z"/><path d="M780.8999,153.8449h-74.0122c-1.3809,0-2.5,1.1191-2.5,2.5s1.1191,2.5,2.5,2.5h74.0122c1.3809,0,2.5-1.1191,2.5-2.5s-1.1191-2.5-2.5-2.5Z"/><path d="M780.8999,105.7844h-135.771c-1.3809,0-2.5,1.1191-2.5,2.5s1.1191,2.5,2.5,2.5h135.771c1.3809,0,2.5-1.1191,2.5-2.5s-1.1191-2.5-2.5-2.5Z"/><path d="M551.2983,110.7844h74.0122c1.3809,0,2.5-1.1191,2.5-2.5s-1.1191-2.5-2.5-2.5h-74.0122c-1.3809,0-2.5,1.1191-2.5,2.5s1.1191,2.5,2.5,2.5Z"/><path d="M551.2983,62.7238h135.7715c1.3809,0,2.5-1.1191,2.5-2.5s-1.1191-2.5-2.5-2.5h-135.7715c-1.3809,0-2.5,1.1191-2.5,2.5s1.1191,2.5,2.5,2.5Z"/><path d="M706.8877,62.7238h74.0122c1.3809,0,2.5-1.1191,2.5-2.5s-1.1191-2.5-2.5-2.5h-74.0122c-1.3809,0-2.5,1.1191-2.5,2.5s1.1191,2.5,2.5,2.5Z"/><path d="M551.2983,158.8449h74.0122c1.3809,0,2.5-1.1191,2.5-2.5s-1.1191-2.5-2.5-2.5h-74.0122c-1.3809,0-2.5,1.1191-2.5,2.5s1.1191,2.5,2.5,2.5Z"/><path d="M645.1289,153.8449c-1.3809,0-2.5,1.1191-2.5,2.5s1.1191,2.5,2.5,2.5h37.0059c1.3809,0,2.5-1.1191,2.5-2.5s-1.1191-2.5-2.5-2.5h-37.0059Z"/></g></svg>