<?xml version="1.0" encoding="utf-8"?>
<!-- Generator: Adobe Illustrator 28.3.0, SVG Export Plug-In . SVG Version: 6.00 Build 0)  -->
<svg version="1.1" id="Layer_1" xmlns="http://www.w3.org/2000/svg" xmlns:xlink="http://www.w3.org/1999/xlink" x="0px" y="0px"
	 viewBox="0 0 1080 1080" style="enable-background:new 0 0 1080 1080;" xml:space="preserve">
<title>Application development mini illustration - White</title>
<desc>application, app, development, dev, developer, window, code, cloud</desc>
<metadata><?xpacket begin="﻿" id="W5M0MpCehiHzreSzNTczkc9d"?>
<x:xmpmeta xmlns:x="adobe:ns:meta/" x:xmptk="Adobe XMP Core 8.0-c001 1.000000, 0000/00/00-00:00:00        ">
   <rdf:RDF xmlns:rdf="http://www.w3.org/1999/02/22-rdf-syntax-ns#">
      <rdf:Description rdf:about=""
            xmlns:xmp="http://ns.adobe.com/xap/1.0/"
            xmlns:tiff="http://ns.adobe.com/tiff/1.0/"
            xmlns:dc="http://purl.org/dc/elements/1.1/">
         <xmp:rhcc-effective-on>2024-03-14T01:55:49.037Z</xmp:rhcc-effective-on>
         <xmp:rhcc-rights-restricted>no</xmp:rhcc-rights-restricted>
         <xmp:brand-content-subtype>Mini illustration</xmp:brand-content-subtype>
         <xmp:rhcc-metadata-complete-moderator>pending</xmp:rhcc-metadata-complete-moderator>
         <xmp:rhcc-translation-id>TRAb55b00f5-fa4c-4433-9fb1-701917a6774b</xmp:rhcc-translation-id>
         <xmp:brand-content-type>Illustration</xmp:brand-content-type>
         <xmp:CreateDate>2024-03-14T01:55:49.037Z</xmp:CreateDate>
         <xmp:rhcc-derivative-id>DERb55b00f5-fa4c-4433-9fb1-701917a6774b</xmp:rhcc-derivative-id>
         <xmp:rhcc-effective-on-set-on-upload>true</xmp:rhcc-effective-on-set-on-upload>
         <xmp:rhcc-metadata-complete-uploader>pending</xmp:rhcc-metadata-complete-uploader>
         <xmp:rhcc-file-last-modified>2024-03-14T01:56:04.863Z</xmp:rhcc-file-last-modified>
         <xmp:rhcc-audience>rhcc-audience:internal</xmp:rhcc-audience>
         <xmp:rhcc-notify-portal-subscribers-on-change>yes</xmp:rhcc-notify-portal-subscribers-on-change>
         <xmp:brand-colorway>White</xmp:brand-colorway>
         <tiff:ImageLength>1080</tiff:ImageLength>
         <tiff:ImageWidth>1080</tiff:ImageWidth>
         <dc:format>image/svg+xml</dc:format>
         <dc:modified>2024-03-14T01:56:36.266Z</dc:modified>
         <dc:description>
            <rdf:Alt>
               <rdf:li xml:lang="x-default">application, app, development, dev, developer, window, code, cloud</rdf:li>
            </rdf:Alt>
         </dc:description>
         <dc:title>
            <rdf:Alt>
               <rdf:li xml:lang="x-default">Application development mini illustration - White</rdf:li>
            </rdf:Alt>
         </dc:title>
      </rdf:Description>
   </rdf:RDF>
</x:xmpmeta>
                                                                                                    
                                                                                                    
                                                                                                    
                                                                                                    
                                                                                                    
                                                                                                    
                                                                                                    
                                                                                                    
                                                                                                    
                                                                                                    
                                                                                                    
                                                                                                    
                                                                                                    
                                                                                                    
                                                                                                    
                                                                                                    
                               
<?xpacket end="w"?></metadata>
<style type="text/css">
	.st0{fill:#FFFFFF;}
</style>
<g id="uuid-635b856d-0d74-47f7-9cc7-700ea1e0db85">
	<g>
		<path class="st0" d="M1042.5,469.5c0-47.7-38.8-86.5-86.5-86.5c-0.3,0-0.6,0-0.9,0c-11-62.2-64-109.2-127.1-112.8
			c-13.2-44.9-41-85.4-78.4-114c-39.1-29.9-85.9-45.8-135.3-45.8c-55.7,0-109.1,20.7-150.2,58.3c-12.1,11-22.8,23.2-32,36.4
			c-0.4-0.3-0.9-0.5-1.5-0.5h-89c-1.4,0-2.5,1.1-2.5,2.5s1.1,2.5,2.5,2.5H429c-13.8,20.7-24.1,43.5-30.3,67.7
			c-0.3-0.2-0.7-0.2-1.1-0.2H40c-1.4,0-2.5,1.1-2.5,2.5s1.1,2.5,2.5,2.5h357.5c-2.1,9-3.7,18.1-4.7,27.4c-54,0.5-99.9,36-116,84.8
			H37.5v527.3h58.3v50.7H679V858.3h146.5c1.4,0,2.5-1.1,2.5-2.5s-1.1-2.5-2.5-2.5H679V703.9h-53.3v-10.6H872c1.4,0,2.5-1.1,2.5-2.5
			V555.9h82.9c0.2,0,0.3,0,0.5,0c22.6-0.5,43.8-9.6,59.8-25.8C1033.7,513.8,1042.5,492.3,1042.5,469.5L1042.5,469.5z M394,314.4
			c0.2,0,0.3,0,0.5,0c0.2,0,0.4,0,0.6,0h0c1.3,0,2.4-1,2.5-2.3c5.1-53.6,30-103.2,69.9-139.8c40.2-36.7,92.3-57,146.8-57
			c48.3,0,94,15.5,132.2,44.8c37,28.4,64.4,68.5,77.2,113.1c0.3,1,1.2,1.8,2.3,1.8c2.3,0.1,4.5,0.3,6.8,0.5c0.8,1.3,2.3,2.1,3.9,2.1
			h0c1.2,0,2.3-0.5,3.2-1.3c54.4,8.2,98.8,50,109.7,104.4c-0.8-0.7-1.8-1.2-2.9-1.2v0h-0.2h0l0,0h-0.2v0c-2.4,0.1-4.3,2-4.4,4.4h0
			v0.2v0.2h0c0,1.1,0.5,2.2,1.3,3.1c0.8,0.8,1.9,1.3,3,1.4v0h0.2h0.2v0c1.7-0.1,3.2-1.1,3.9-2.6c0.3,1,1.3,1.7,2.5,1.7h0.3
			c0.9,0,1.8-0.1,2.6-0.1c6.5,0,12.8,0.8,18.8,2.2c17.8,11.1,29.6,30.5,29.6,52.6c0,23.3-13.1,43.6-32.5,54.3
			c0.3-0.6,0.5-1.4,0.5-2.1c0-1.2-0.5-2.4-1.3-3.3s-2-1.4-3.3-1.4c-1.2,0-2.4,0.5-3.3,1.4s-1.4,2-1.4,3.3c0,1.2,0.5,2.4,1.3,3.3
			c0.7,0.7,1.6,1.1,2.5,1.3c-8.1,3.6-17.2,5.7-26.7,5.7H679v-55.3h-53.3v-55.7H282.1C298.1,347.8,342.2,314.4,394,314.4L394,314.4z
			 M565,460.9c0,4.6-3.7,8.3-8.3,8.3s-8.3-3.7-8.3-8.3s3.7-8.3,8.3-8.3S565,456.3,565,460.9z M523.5,460.9c0,4.6-3.7,8.3-8.3,8.3
			s-8.3-3.7-8.3-8.3s3.7-8.3,8.3-8.3C519.8,452.6,523.5,456.3,523.5,460.9z M316.4,460.9c0,1.4-1.1,2.5-2.5,2.5H102.3
			c-1.4,0-2.5-1.1-2.5-2.5s1.1-2.5,2.5-2.5h211.5C315.3,458.4,316.4,459.5,316.4,460.9z M42.5,527.5h578.2v388.9H42.5V527.5z
			 M869.5,688.3H679V555.9h190.5V688.3L869.5,688.3z"/>
		<path class="st0" d="M607.7,698.2c-2.3,0-4.2,1.8-4.2,4.1c0,2.3,1.8,4.2,4.1,4.2s4.2-1.8,4.2-4.1S610,698.3,607.7,698.2
			L607.7,698.2z"/>
		<path class="st0" d="M586.8,718.9L586.8,718.9c-2.3,0-4.2,1.8-4.2,4.1l0,0c0,2.3,1.8,4.2,4.1,4.2l0,0c2.3,0,4.2-1.8,4.2-4.1l0,0
			C590.9,720.8,589.1,718.9,586.8,718.9z"/>
		<path class="st0" d="M607.2,781.5c-2.3,0-4.2,1.8-4.2,4.1c0,2.3,1.8,4.2,4.1,4.2s4.2-1.8,4.2-4.1S609.4,781.5,607.2,781.5
			L607.2,781.5z"/>
		<path class="st0" d="M607.4,739.8c-2.3,0-4.2,1.8-4.2,4.1c0,2.3,1.8,4.2,4.1,4.2s4.2-1.8,4.2-4.1S609.7,739.9,607.4,739.8
			L607.4,739.8z"/>
		<path class="st0" d="M586.2,802.1L586.2,802.1c-2.3,0-4.2,1.8-4.2,4.1l0,0c0,2.3,1.8,4.2,4.1,4.2l0,0c2.3,0,4.2-1.8,4.2-4.1l0,0
			C590.4,804,588.5,802.2,586.2,802.1z"/>
		<path class="st0" d="M586.5,760.5L586.5,760.5c-2.3,0-4.2,1.8-4.2,4.1s1.8,4.2,4.1,4.2l0,0c2.3,0,4.2-1.8,4.2-4.1
			S588.8,760.5,586.5,760.5L586.5,760.5z"/>
		<path class="st0" d="M606.6,864.7c-2.3,0-4.2,1.8-4.2,4.1c0,2.3,1.8,4.2,4.1,4.2s4.2-1.8,4.2-4.1S608.9,864.7,606.6,864.7
			L606.6,864.7z"/>
		<path class="st0" d="M606.9,823.1c-2.3,0-4.2,1.8-4.2,4.1c0,2.3,1.8,4.2,4.1,4.2s4.2-1.8,4.2-4.1S609.2,823.1,606.9,823.1
			L606.9,823.1z"/>
		<path class="st0" d="M585.7,885.3L585.7,885.3c-2.3,0-4.2,1.8-4.2,4.1l0,0c0,2.3,1.8,4.2,4.1,4.2l0,0c2.3,0,4.2-1.8,4.2-4.1l0,0
			C589.8,887.2,588,885.4,585.7,885.3z"/>
		<path class="st0" d="M585.9,843.7L585.9,843.7c-2.3,0-4.2,1.8-4.2,4.1s1.8,4.2,4.1,4.2l0,0c2.3,0,4.2-1.8,4.2-4.1
			S588.2,843.8,585.9,843.7L585.9,843.7z"/>
		<path class="st0" d="M606.3,906.3c-2.3,0-4.2,1.8-4.2,4.1c0,2.3,1.8,4.2,4.1,4.2s4.2-1.8,4.2-4.1S608.6,906.3,606.3,906.3
			L606.3,906.3z"/>
		<path class="st0" d="M544.6,801.8c-2.3,0-4.2,1.8-4.2,4.1l0,0c0,2.3,1.8,4.2,4.1,4.2s4.2-1.8,4.2-4.1l0,0
			C548.8,803.7,546.9,801.9,544.6,801.8z"/>
		<path class="st0" d="M544.9,760.2c-2.3,0-4.2,1.8-4.2,4.1s1.8,4.2,4.1,4.2c2.3,0,4.2-1.8,4.2-4.1S547.2,760.2,544.9,760.2
			L544.9,760.2z"/>
		<path class="st0" d="M524,780.9c-2.3,0-4.2,1.8-4.2,4.1c0,2.3,1.8,4.2,4.1,4.2s4.2-1.8,4.2-4.1S526.2,780.9,524,780.9L524,780.9z"
			/>
		<path class="st0" d="M565.6,781.2c-2.3,0-4.2,1.8-4.2,4.1c0,2.3,1.8,4.2,4.1,4.2s4.2-1.8,4.2-4.1S567.8,781.2,565.6,781.2
			L565.6,781.2z"/>
		<path class="st0" d="M565.8,739.6c-2.3,0-4.2,1.8-4.2,4.1c0,2.3,1.8,4.2,4.1,4.2s4.2-1.8,4.2-4.1S568.1,739.6,565.8,739.6
			L565.8,739.6z"/>
		<path class="st0" d="M503,801.6L503,801.6c-2.3,0-4.2,1.8-4.2,4.1l0,0c0,2.3,1.8,4.2,4.1,4.2l0,0c2.3,0,4.2-1.8,4.2-4.1l0,0
			C507.2,803.5,505.3,801.6,503,801.6z"/>
		<path class="st0" d="M544,885.1c-2.3,0-4.2,1.8-4.2,4.1l0,0c0,2.3,1.8,4.2,4.1,4.2s4.2-1.8,4.2-4.1l0,0
			C548.2,887,546.3,885.1,544,885.1z"/>
		<path class="st0" d="M544.3,843.5c-2.3,0-4.2,1.8-4.2,4.1s1.8,4.2,4.1,4.2c2.3,0,4.2-1.8,4.2-4.1S546.6,843.5,544.3,843.5
			L544.3,843.5z"/>
		<path class="st0" d="M523.4,864.1c-2.3,0-4.2,1.8-4.2,4.1c0,2.3,1.8,4.2,4.1,4.2s4.2-1.8,4.2-4.1S525.7,864.1,523.4,864.1
			L523.4,864.1z"/>
		<path class="st0" d="M565,864.4c-2.3,0-4.2,1.8-4.2,4.1c0,2.3,1.8,4.2,4.1,4.2s4.2-1.8,4.2-4.1S567.3,864.4,565,864.4L565,864.4z"
			/>
		<path class="st0" d="M523.7,822.5c-2.3,0-4.2,1.8-4.2,4.1c0,2.3,1.8,4.2,4.1,4.2s4.2-1.8,4.2-4.1S526,822.5,523.7,822.5
			L523.7,822.5z"/>
		<path class="st0" d="M565.3,822.8c-2.3,0-4.2,1.8-4.2,4.1c0,2.3,1.8,4.2,4.1,4.2s4.2-1.8,4.2-4.1S567.6,822.8,565.3,822.8
			L565.3,822.8z"/>
		<path class="st0" d="M502.5,884.8L502.5,884.8c-2.3,0-4.2,1.8-4.2,4.1l0,0c0,2.3,1.8,4.2,4.1,4.2l0,0c2.3,0,4.2-1.8,4.2-4.1l0,0
			C506.6,886.7,504.8,884.8,502.5,884.8z"/>
		<path class="st0" d="M502.7,843.2L502.7,843.2c-2.3,0-4.2,1.8-4.2,4.1s1.8,4.2,4.1,4.2l0,0c2.3,0,4.2-1.8,4.2-4.1
			S505,843.2,502.7,843.2L502.7,843.2z"/>
		<path class="st0" d="M523.1,905.7c-2.3,0-4.2,1.8-4.2,4.1c0,2.3,1.8,4.2,4.1,4.2s4.2-1.8,4.2-4.1S525.4,905.8,523.1,905.7
			L523.1,905.7z"/>
		<path class="st0" d="M564.7,906c-2.3,0-4.2,1.8-4.2,4.1c0,2.3,1.8,4.2,4.1,4.2s4.2-1.8,4.2-4.1S567,906,564.7,906L564.7,906z"/>
		<path class="st0" d="M460.8,884.5c-2.3,0-4.2,1.8-4.2,4.1l0,0c0,2.3,1.8,4.2,4.1,4.2c2.3,0,4.2-1.8,4.2-4.1l0,0
			C465,886.4,463.1,884.5,460.8,884.5z"/>
		<path class="st0" d="M461.1,842.9c-2.3,0-4.2,1.8-4.2,4.1s1.8,4.2,4.1,4.2c2.3,0,4.2-1.8,4.2-4.1S463.4,842.9,461.1,842.9
			L461.1,842.9z"/>
		<path class="st0" d="M440.2,863.6c-2.3,0-4.2,1.8-4.2,4.1c0,2.3,1.8,4.2,4.1,4.2c2.3,0,4.2-1.8,4.2-4.1S442.5,863.6,440.2,863.6
			L440.2,863.6z"/>
		<path class="st0" d="M481.8,863.8c-2.3,0-4.2,1.8-4.2,4.1c0,2.3,1.8,4.2,4.1,4.2c2.3,0,4.2-1.8,4.2-4.1S484.1,863.9,481.8,863.8
			L481.8,863.8z"/>
		<path class="st0" d="M482.1,822.2c-2.3,0-4.2,1.8-4.2,4.1c0,2.3,1.8,4.2,4.1,4.2c2.3,0,4.2-1.8,4.2-4.1S484.4,822.2,482.1,822.2
			L482.1,822.2z"/>
		<path class="st0" d="M419.2,884.2L419.2,884.2c-2.3,0-4.2,1.8-4.2,4.1l0,0c0,2.3,1.8,4.2,4.1,4.2l0,0c2.3,0,4.2-1.8,4.2-4.1l0,0
			C423.4,886.1,421.5,884.2,419.2,884.2z"/>
		<path class="st0" d="M439.9,905.2c-2.3,0-4.2,1.8-4.2,4.1c0,2.3,1.8,4.2,4.1,4.2c2.3,0,4.2-1.8,4.2-4.1S442.2,905.2,439.9,905.2
			L439.9,905.2z"/>
		<path class="st0" d="M481.5,905.5c-2.3,0-4.2,1.8-4.2,4.1c0,2.3,1.8,4.2,4.1,4.2c2.3,0,4.2-1.8,4.2-4.1S483.8,905.5,481.5,905.5
			L481.5,905.5z"/>
		<path class="st0" d="M398.3,904.9c-2.3,0-4.2,1.8-4.2,4.1c0,2.3,1.8,4.2,4.1,4.2c2.3,0,4.2-1.8,4.2-4.1S400.6,904.9,398.3,904.9
			L398.3,904.9z"/>
		<path class="st0" d="M244.9,620.8c-2.4-2.5-6.3-2.5-8.8-0.2L144.5,709c-1.2,1.2-1.9,2.8-1.9,4.5s0.7,3.3,1.9,4.5l91.6,88.4
			c1.2,1.2,2.8,1.7,4.3,1.7s3.2-0.6,4.4-1.9c2.4-2.5,2.3-6.4-0.2-8.8l-87-83.9l87-83.9C247.2,627.1,247.3,623.2,244.9,620.8
			L244.9,620.8z"/>
		<path class="st0" d="M525.5,713.5c0-1.7-0.7-3.3-1.9-4.5L432,620.6c-2.5-2.4-6.4-2.3-8.8,0.2c-2.4,2.5-2.3,6.4,0.2,8.8l87,83.9
			l-87,83.9c-2.5,2.4-2.5,6.3-0.2,8.8c1.2,1.3,2.8,1.9,4.5,1.9s3.1-0.6,4.3-1.7l91.6-88.4C524.8,716.8,525.4,715.2,525.5,713.5
			L525.5,713.5z"/>
		<path class="st0" d="M375.2,606.6c-3.2-1.2-6.8,0.4-8,3.6L287.1,826c-1.2,3.2,0.4,6.8,3.6,8c0.7,0.3,1.4,0.4,2.1,0.4
			c2.5,0,4.9-1.5,5.8-4l80.2-215.7C380.1,611.3,378.4,607.8,375.2,606.6L375.2,606.6z"/>
		<path class="st0" d="M1040,780.9h-59.3c-1.4,0-2.5,1.1-2.5,2.5s1.1,2.5,2.5,2.5h59.3c1.4,0,2.5-1.1,2.5-2.5
			S1041.4,780.9,1040,780.9z"/>
		<path class="st0" d="M931.7,783.4c0-1.4-1.1-2.5-2.5-2.5H734.1c-1.4,0-2.5,1.1-2.5,2.5s1.1,2.5,2.5,2.5h195.1
			C930.6,785.9,931.7,784.7,931.7,783.4z"/>
		<path class="st0" d="M932.1,853.3h-55c-1.4,0-2.5,1.1-2.5,2.5s1.1,2.5,2.5,2.5h55c1.4,0,2.5-1.1,2.5-2.5S933.4,853.3,932.1,853.3z
			"/>
		<path class="st0" d="M175.8,209.6h114.4c1.4,0,2.5-1.1,2.5-2.5s-1.1-2.5-2.5-2.5H175.8c-1.4,0-2.5,1.1-2.5,2.5
			S174.4,209.6,175.8,209.6z"/>
		<path class="st0" d="M986.7,476.3c0.9,0.9,2,1.4,3.3,1.4h0c1.2,0,2.4-0.5,3.3-1.3c0.8-0.8,1.3-1.9,1.4-3h0V473v-0.2h0
			c0-1.1-0.5-2.2-1.3-3.1c-0.9-0.9-2-1.4-3.3-1.4h0c-2.5,0-4.5,1.9-4.6,4.4h0v0.2v0.2h0C985.4,474.4,985.9,475.5,986.7,476.3
			L986.7,476.3z"/>
		<path class="st0" d="M990.3,433.5L990.3,433.5c2.6,0,4.7-2.1,4.7-4.6c0-2.6-2.1-4.7-4.6-4.7h0c-2.6,0-4.7,2.1-4.7,4.6
			c0,1.2,0.5,2.4,1.3,3.3C987.9,433,989,433.5,990.3,433.5L990.3,433.5z"/>
		<path class="st0" d="M968.1,455.4L968.1,455.4c2.6,0,4.7-2.1,4.7-4.6c0-2.6-2.1-4.7-4.6-4.7h0c-1.2,0-2.4,0.5-3.3,1.4
			c-0.9,0.9-1.4,2-1.4,3.3c0,1.2,0.5,2.4,1.3,3.3C965.6,454.9,966.8,455.4,968.1,455.4L968.1,455.4z"/>
		<path class="st0" d="M968.4,411.2L968.4,411.2c1.3,0,2.4-0.5,3.3-1.4c0.9-0.9,1.4-2,1.4-3.3c0-2.6-2.1-4.7-4.6-4.7
			c-1.2,0-2.4,0.5-3.3,1.4s-1.4,2-1.4,3.3C963.7,409.1,965.8,411.2,968.4,411.2L968.4,411.2z"/>
		<path class="st0" d="M942.5,476c0.8,0.8,1.9,1.3,3,1.4v0h0.2h0.2v0c2.4-0.1,4.3-2,4.4-4.4h0v-0.2v-0.2h0c-0.1-2.4-2-4.3-4.4-4.4v0
			h-0.2h-0.2v0c-2.4,0.1-4.3,2-4.4,4.4h0v0.2v0.2h0C941.2,474.1,941.7,475.1,942.5,476L942.5,476z"/>
		<path class="st0" d="M945.9,433.1L945.9,433.1l0.2,0h0.2v0c1.2,0,2.2-0.5,3.1-1.3c0.9-0.9,1.4-2,1.4-3.3c0-1.2-0.5-2.4-1.3-3.3
			c-0.8-0.8-1.9-1.3-3-1.4v0h-0.2h-0.2v0c-2.5,0.1-4.4,2.1-4.5,4.6c0,1.2,0.5,2.4,1.3,3.3C943.6,432.6,944.7,433.1,945.9,433.1
			L945.9,433.1z"/>
		<path class="st0" d="M855.3,298.6c0.8,0.8,1.9,1.3,3,1.4v0h0.2h0.2v0c2.4-0.1,4.3-2,4.4-4.4h0v-0.2v-0.2h0c-0.1-2.4-2-4.3-4.4-4.4
			v0h-0.2h-0.2v0c-2.4,0.1-4.3,2-4.4,4.4h0v0.2v0.2h0C854,296.7,854.5,297.7,855.3,298.6L855.3,298.6z"/>
		<path class="st0" d="M898.9,387.3c0.9,0.9,2,1.4,3.3,1.4h0c2.5,0,4.5-1.9,4.6-4.4h0V384v-0.2h0c-0.1-2.5-2.1-4.4-4.6-4.5h0
			c-2.5,0-4.5,1.9-4.6,4.4h0v0.2l0,0v0.2h0C897.6,385.4,898.1,386.5,898.9,387.3z"/>
		<path class="st0" d="M902.5,344.5L902.5,344.5c2.6,0,4.7-2.1,4.7-4.6c0-1.2-0.5-2.4-1.3-3.3c-0.9-0.9-2-1.4-3.3-1.4h0
			c-2.6,0-4.7,2.1-4.7,4.6C897.8,342.4,899.9,344.5,902.5,344.5L902.5,344.5z"/>
		<path class="st0" d="M880.2,366.4L880.2,366.4c2.6,0,4.7-2.1,4.7-4.6c0-2.6-2.1-4.7-4.6-4.7c-1.3,0-2.4,0.5-3.3,1.4
			s-1.4,2-1.4,3.3C875.6,364.3,877.7,366.4,880.2,366.4z"/>
		<path class="st0" d="M924.5,366.7L924.5,366.7c2.6,0,4.7-2.1,4.7-4.6c0-2.6-2.1-4.7-4.6-4.7h0c-1.2,0-2.4,0.5-3.3,1.4
			c-0.9,0.9-1.4,2-1.4,3.3c0,1.2,0.5,2.4,1.3,3.3C922,366.2,923.2,366.7,924.5,366.7L924.5,366.7z"/>
		<path class="st0" d="M880.5,322.2L880.5,322.2c2.6,0,4.7-2.1,4.7-4.6c0-2.6-2.1-4.7-4.6-4.7h0c-2.6,0-4.7,2.1-4.7,4.6
			c0,1.2,0.5,2.4,1.3,3.3S879.3,322.2,880.5,322.2L880.5,322.2z"/>
		<path class="st0" d="M858,344.1L858,344.1l0.2,0h0.2v0c2.5-0.1,4.4-2.1,4.5-4.6s-1.9-4.5-4.4-4.7v0h-0.2h-0.2v0
			c-2.5,0.1-4.4,2.1-4.5,4.6C853.6,342,855.6,344,858,344.1L858,344.1z"/>
		<path class="st0" d="M901.9,432.9L901.9,432.9c2.6,0,4.7-2.1,4.7-4.6c0-2.6-2.1-4.7-4.6-4.7h0c-2.6,0-4.7,2.1-4.7,4.6
			C897.2,430.8,899.3,432.9,901.9,432.9L901.9,432.9z"/>
		<path class="st0" d="M923.9,455.1L923.9,455.1c2.6,0,4.7-2.1,4.7-4.6c0-2.6-2.1-4.7-4.6-4.7h0c-1.2,0-2.4,0.5-3.3,1.4
			c-0.9,0.9-1.4,2-1.4,3.3c0,1.2,0.5,2.4,1.3,3.3C921.4,454.6,922.6,455.1,923.9,455.1L923.9,455.1z"/>
		<path class="st0" d="M880,410.6L880,410.6c1.3,0,2.4-0.5,3.3-1.3c0.9-0.9,1.4-2,1.4-3.3c0-2.6-2.1-4.7-4.6-4.7h0
			c-1.2,0-2.4,0.5-3.3,1.4c-0.9,0.9-1.4,2-1.4,3.3c0,1.2,0.5,2.4,1.3,3.3C877.5,410.1,878.7,410.6,880,410.6L880,410.6z"/>
		<path class="st0" d="M924.2,410.9L924.2,410.9c1.3,0,2.4-0.5,3.3-1.4c0.9-0.9,1.4-2,1.4-3.3c0-1.2-0.5-2.4-1.3-3.3s-2-1.4-3.3-1.4
			c-1.2,0-2.4,0.5-3.3,1.4s-1.4,2-1.4,3.3c0,1.2,0.5,2.4,1.3,3.3C921.8,410.4,922.9,410.9,924.2,410.9L924.2,410.9z"/>
		<path class="st0" d="M923.6,499.3L923.6,499.3c1.3,0,2.4-0.5,3.3-1.4c0.9-0.9,1.4-2,1.4-3.3c0-2.6-2.1-4.7-4.6-4.7
			c-1.3,0-2.4,0.5-3.3,1.4c-0.9,0.9-1.4,2-1.4,3.3c0,1.2,0.5,2.4,1.3,3.3C921.2,498.8,922.3,499.3,923.6,499.3z"/>
		<path class="st0" d="M811.1,298.3c0.9,0.9,2,1.4,3.3,1.4h0c2.5,0,4.5-1.9,4.6-4.4h0V295v-0.2h0c-0.1-2.5-2.1-4.4-4.6-4.5h0
			c-2.5,0-4.5,1.9-4.6,4.4h0v0.2v0.2h0C809.8,296.4,810.3,297.5,811.1,298.3z"/>
		<path class="st0" d="M836.3,321.9L836.3,321.9c1.3,0,2.4-0.5,3.3-1.3c0.9-0.9,1.4-2,1.4-3.3c0-2.6-2.1-4.7-4.6-4.7
			c-1.3,0-2.4,0.5-3.3,1.4c-0.9,0.9-1.4,2-1.4,3.3c0,1.2,0.5,2.4,1.3,3.3C833.9,321.4,835.1,321.9,836.3,321.9L836.3,321.9z"/>
	</g>
</g>
</svg>
