<?xml version="1.0" encoding="UTF-8"?>
<svg id="uuid-44053e94-04cb-4931-8d42-28f819daab3a" data-name="Artwork" xmlns="http://www.w3.org/2000/svg" viewBox="0 0 1080 1080">
  <title>Application development mini illustration - Black</title>
<desc>application, app, development, dev, developer, window, code, cloud</desc>
<metadata><?xpacket begin="﻿" id="W5M0MpCehiHzreSzNTczkc9d"?>
<x:xmpmeta xmlns:x="adobe:ns:meta/" x:xmptk="Adobe XMP Core 8.0-c001 1.000000, 0000/00/00-00:00:00        ">
   <rdf:RDF xmlns:rdf="http://www.w3.org/1999/02/22-rdf-syntax-ns#">
      <rdf:Description rdf:about=""
            xmlns:xmp="http://ns.adobe.com/xap/1.0/"
            xmlns:tiff="http://ns.adobe.com/tiff/1.0/"
            xmlns:dc="http://purl.org/dc/elements/1.1/">
         <xmp:rhcc-effective-on>2024-03-14T01:55:49.625Z</xmp:rhcc-effective-on>
         <xmp:rhcc-rights-restricted>no</xmp:rhcc-rights-restricted>
         <xmp:brand-content-subtype>Mini illustration</xmp:brand-content-subtype>
         <xmp:rhcc-metadata-complete-moderator>pending</xmp:rhcc-metadata-complete-moderator>
         <xmp:rhcc-translation-id>TRA23159c85-64be-433d-b623-3650bfacff32</xmp:rhcc-translation-id>
         <xmp:brand-content-type>Illustration</xmp:brand-content-type>
         <xmp:CreateDate>2024-03-14T01:55:49.625Z</xmp:CreateDate>
         <xmp:rhcc-derivative-id>DER23159c85-64be-433d-b623-3650bfacff32</xmp:rhcc-derivative-id>
         <xmp:rhcc-effective-on-set-on-upload>true</xmp:rhcc-effective-on-set-on-upload>
         <xmp:rhcc-metadata-complete-uploader>pending</xmp:rhcc-metadata-complete-uploader>
         <xmp:rhcc-file-last-modified>2024-03-14T01:55:58.712Z</xmp:rhcc-file-last-modified>
         <xmp:rhcc-audience>rhcc-audience:internal</xmp:rhcc-audience>
         <xmp:rhcc-notify-portal-subscribers-on-change>yes</xmp:rhcc-notify-portal-subscribers-on-change>
         <xmp:brand-colorway>Black</xmp:brand-colorway>
         <tiff:ImageLength>1080</tiff:ImageLength>
         <tiff:ImageWidth>1080</tiff:ImageWidth>
         <dc:format>image/svg+xml</dc:format>
         <dc:modified>2024-03-14T01:56:36.556Z</dc:modified>
         <dc:description>
            <rdf:Alt>
               <rdf:li xml:lang="x-default">application, app, development, dev, developer, window, code, cloud</rdf:li>
            </rdf:Alt>
         </dc:description>
         <dc:title>
            <rdf:Alt>
               <rdf:li xml:lang="x-default">Application development mini illustration - Black</rdf:li>
            </rdf:Alt>
         </dc:title>
      </rdf:Description>
   </rdf:RDF>
</x:xmpmeta>
                                                                                                    
                                                                                                    
                                                                                                    
                                                                                                    
                                                                                                    
                                                                                                    
                                                                                                    
                                                                                                    
                                                                                                    
                                                                                                    
                                                                                                    
                                                                                                    
                                                                                                    
                                                                                                    
                                                                                                    
                                                                                                    
                               
<?xpacket end="w"?></metadata>
<defs>
    <style>
      .uuid-32e2024b-d7cb-48d5-b912-cd63e58f5185 {
        stroke-width: 0px;
      }
    </style>
  </defs>
  <path class="uuid-32e2024b-d7cb-48d5-b912-cd63e58f5185" d="M1042.5,469.46c0-47.69-38.8-86.49-86.49-86.49-.32,0-.63,0-.94,0-11-62.17-63.95-109.19-127.07-112.77-13.23-44.93-41.03-85.35-78.42-113.98-39.12-29.95-85.9-45.78-135.29-45.78-55.74,0-109.09,20.69-150.21,58.27-12.07,11.03-22.77,23.23-32.02,36.36-.41-.29-.91-.47-1.45-.47h-88.98c-1.38,0-2.5,1.12-2.5,2.5s1.12,2.5,2.5,2.5h87.32c-13.82,20.68-24.07,43.53-30.31,67.66-.33-.16-.69-.25-1.08-.25H40c-1.38,0-2.5,1.12-2.5,2.5s1.12,2.5,2.5,2.5h357.47c-2.11,8.98-3.68,18.11-4.67,27.37-54.03.5-99.86,35.95-115.95,84.78H37.5v527.31h58.28v50.73h583.24v-113.94h146.55c1.38,0,2.5-1.12,2.5-2.5s-1.12-2.5-2.5-2.5h-146.55v-149.39h-53.28v-10.59h246.3c1.38,0,2.5-1.12,2.5-2.5v-134.84h82.87c.16,0,.31-.02.46-.04,22.64-.48,43.85-9.62,59.77-25.78,16.03-16.27,24.86-37.82,24.86-60.67ZM393.97,314.39c.17,0,.33,0,.5.01.19,0,.38.01.57.02h.02c1.29,0,2.37-.98,2.49-2.26,5.14-53.62,29.97-103.25,69.9-139.75,40.19-36.73,92.34-56.96,146.83-56.96,48.28,0,94.02,15.47,132.25,44.75,37.02,28.35,64.43,68.52,77.16,113.1.3,1.03,1.22,1.76,2.29,1.81,2.27.1,4.53.26,6.78.48.83,1.27,2.26,2.12,3.88,2.13h.03c1.22,0,2.33-.48,3.17-1.26,54.38,8.21,98.8,50,109.73,104.43-.76-.7-1.75-1.16-2.86-1.23v-.03s-.25,0-.25,0h-.03s0,0,0,0h-.22s0,.02,0,.02c-2.37.11-4.28,1.99-4.43,4.37h-.03s0,.25,0,.25v.25s.02,0,.02,0c.05,1.15.51,2.23,1.32,3.06.82.83,1.89,1.29,3.05,1.36v.02s.25,0,.25,0h.25s0-.02,0-.02c1.74-.08,3.21-1.12,3.94-2.59.35,1.02,1.33,1.72,2.45,1.69h.32c.88-.04,1.75-.08,2.63-.08,6.48,0,12.78.78,18.83,2.22,17.81,11.09,29.62,30.5,29.62,52.59,0,23.28-13.11,43.57-32.54,54.3.33-.64.53-1.35.54-2.1,0-1.25-.47-2.43-1.35-3.32-.88-.89-2.05-1.38-3.29-1.39-1.25.02-2.42.47-3.31,1.35-.89.88-1.38,2.05-1.39,3.3,0,1.25.47,2.42,1.34,3.31.69.7,1.57,1.15,2.52,1.31-8.14,3.63-17.18,5.67-26.72,5.67h-261.24v-55.31h-53.28v-55.73h-343.62c16.01-46.38,60.1-79.79,111.85-79.79ZM565.01,460.86c0,4.58-3.72,8.3-8.3,8.3s-8.3-3.72-8.3-8.3,3.72-8.3,8.3-8.3,8.3,3.72,8.3,8.3ZM523.51,460.86c0,4.58-3.72,8.3-8.3,8.3s-8.3-3.72-8.3-8.3,3.72-8.3,8.3-8.3,8.3,3.72,8.3,8.3ZM316.38,460.86c0,1.38-1.12,2.5-2.5,2.5H102.34c-1.38,0-2.5-1.12-2.5-2.5s1.12-2.5,2.5-2.5h211.54c1.38,0,2.5,1.12,2.5,2.5ZM42.5,527.54h578.24v388.94H42.5v-388.94ZM869.54,688.29h-190.52v-132.34h190.52v132.34Z"/>
  <path class="uuid-32e2024b-d7cb-48d5-b912-cd63e58f5185" d="M607.72,698.25c-2.3-.02-4.17,1.83-4.19,4.14-.02,2.3,1.83,4.17,4.13,4.19,2.3.02,4.17-1.83,4.19-4.13.02-2.3-1.84-4.18-4.13-4.19Z"/>
  <path class="uuid-32e2024b-d7cb-48d5-b912-cd63e58f5185" d="M586.78,718.91s0,0,0,0c-2.3-.02-4.17,1.83-4.19,4.13,0,0,0,0,0,0-.02,2.3,1.83,4.17,4.13,4.19,0,0,0,0,0,0,2.3.02,4.17-1.83,4.19-4.13h0c.02-2.3-1.83-4.17-4.13-4.19Z"/>
  <path class="uuid-32e2024b-d7cb-48d5-b912-cd63e58f5185" d="M607.16,781.46c-2.3-.02-4.17,1.83-4.19,4.14-.02,2.3,1.83,4.17,4.13,4.19,2.3.02,4.17-1.83,4.19-4.13.02-2.3-1.84-4.18-4.13-4.19Z"/>
  <path class="uuid-32e2024b-d7cb-48d5-b912-cd63e58f5185" d="M607.44,739.85c-2.3-.02-4.17,1.83-4.19,4.14-.02,2.3,1.83,4.17,4.13,4.19,2.3.02,4.17-1.83,4.19-4.13.02-2.3-1.84-4.18-4.13-4.19Z"/>
  <path class="uuid-32e2024b-d7cb-48d5-b912-cd63e58f5185" d="M586.22,802.13s0,0,0,0c-2.3-.02-4.17,1.83-4.19,4.13,0,0,0,0,0,0-.02,2.3,1.83,4.17,4.13,4.19,0,0,0,0,0,0,2.3.02,4.17-1.83,4.19-4.13h0c.02-2.3-1.83-4.17-4.13-4.19Z"/>
  <path class="uuid-32e2024b-d7cb-48d5-b912-cd63e58f5185" d="M586.5,760.52s0,0,0,0c-2.3-.02-4.17,1.83-4.19,4.13-.02,2.3,1.83,4.18,4.13,4.19,0,0,0,0,0,0,2.3.02,4.17-1.84,4.19-4.14.02-2.3-1.83-4.17-4.13-4.19Z"/>
  <path class="uuid-32e2024b-d7cb-48d5-b912-cd63e58f5185" d="M606.6,864.68c-2.3-.02-4.17,1.83-4.19,4.14-.02,2.3,1.83,4.17,4.13,4.19,2.3.02,4.17-1.83,4.19-4.13.02-2.3-1.84-4.18-4.13-4.19Z"/>
  <path class="uuid-32e2024b-d7cb-48d5-b912-cd63e58f5185" d="M606.88,823.07c-2.3-.02-4.17,1.83-4.19,4.14-.02,2.3,1.83,4.17,4.13,4.19,2.3.02,4.17-1.83,4.19-4.13.02-2.3-1.84-4.18-4.13-4.19Z"/>
  <path class="uuid-32e2024b-d7cb-48d5-b912-cd63e58f5185" d="M585.66,885.35s0,0,0,0c-2.3-.02-4.17,1.83-4.19,4.13,0,0,0,0,0,0-.02,2.3,1.83,4.17,4.13,4.19,0,0,0,0,0,0,2.3.02,4.17-1.83,4.19-4.13h0c.02-2.3-1.83-4.17-4.13-4.19Z"/>
  <path class="uuid-32e2024b-d7cb-48d5-b912-cd63e58f5185" d="M585.94,843.74s0,0,0,0c-2.3-.02-4.17,1.83-4.19,4.13-.02,2.3,1.83,4.18,4.13,4.19,0,0,0,0,0,0,2.3.02,4.17-1.84,4.19-4.14.02-2.3-1.83-4.17-4.13-4.19Z"/>
  <path class="uuid-32e2024b-d7cb-48d5-b912-cd63e58f5185" d="M606.32,906.29c-2.3-.02-4.17,1.83-4.19,4.14-.02,2.3,1.83,4.17,4.13,4.19,2.3.02,4.17-1.83,4.19-4.13.02-2.3-1.84-4.18-4.13-4.19Z"/>
  <path class="uuid-32e2024b-d7cb-48d5-b912-cd63e58f5185" d="M544.61,801.85c-2.3-.02-4.17,1.83-4.19,4.13,0,0,0,0,0,0-.02,2.3,1.83,4.17,4.13,4.19,2.3.02,4.17-1.83,4.19-4.13h0c.02-2.3-1.84-4.17-4.13-4.19Z"/>
  <path class="uuid-32e2024b-d7cb-48d5-b912-cd63e58f5185" d="M544.89,760.24c-2.3-.02-4.17,1.83-4.19,4.13-.02,2.3,1.83,4.18,4.13,4.19,2.3.02,4.17-1.84,4.19-4.14.02-2.3-1.84-4.17-4.13-4.19Z"/>
  <path class="uuid-32e2024b-d7cb-48d5-b912-cd63e58f5185" d="M523.95,780.9c-2.3-.02-4.17,1.83-4.19,4.14-.02,2.3,1.83,4.17,4.13,4.19,2.3.02,4.17-1.83,4.19-4.13.02-2.3-1.84-4.18-4.13-4.19Z"/>
  <path class="uuid-32e2024b-d7cb-48d5-b912-cd63e58f5185" d="M565.56,781.18c-2.3-.02-4.17,1.83-4.19,4.14-.02,2.3,1.83,4.17,4.13,4.19,2.3.02,4.17-1.83,4.19-4.13.02-2.3-1.84-4.18-4.13-4.19Z"/>
  <path class="uuid-32e2024b-d7cb-48d5-b912-cd63e58f5185" d="M565.84,739.57c-2.3-.02-4.17,1.83-4.19,4.14-.02,2.3,1.83,4.17,4.13,4.19,2.3.02,4.17-1.83,4.19-4.13.02-2.3-1.84-4.18-4.13-4.19Z"/>
  <path class="uuid-32e2024b-d7cb-48d5-b912-cd63e58f5185" d="M503.01,801.57s0,0,0,0c-2.3-.02-4.17,1.83-4.19,4.13,0,0,0,0,0,0-.02,2.3,1.83,4.17,4.13,4.19,0,0,0,0,0,0,2.3.02,4.17-1.83,4.19-4.13h0c.02-2.3-1.83-4.17-4.13-4.19Z"/>
  <path class="uuid-32e2024b-d7cb-48d5-b912-cd63e58f5185" d="M544.05,885.06c-2.3-.02-4.17,1.83-4.19,4.13,0,0,0,0,0,0-.02,2.3,1.83,4.17,4.13,4.19,2.3.02,4.17-1.83,4.19-4.13,0,0,0,0,0,0,.02-2.3-1.84-4.17-4.13-4.19Z"/>
  <path class="uuid-32e2024b-d7cb-48d5-b912-cd63e58f5185" d="M544.33,843.46c-2.3-.02-4.17,1.83-4.19,4.13-.02,2.3,1.83,4.18,4.13,4.19,2.3.02,4.17-1.84,4.19-4.14.02-2.3-1.84-4.17-4.13-4.19Z"/>
  <path class="uuid-32e2024b-d7cb-48d5-b912-cd63e58f5185" d="M523.39,864.12c-2.3-.02-4.17,1.83-4.19,4.14-.02,2.3,1.83,4.17,4.13,4.19,2.3.02,4.17-1.83,4.19-4.13.02-2.3-1.84-4.18-4.13-4.19Z"/>
  <path class="uuid-32e2024b-d7cb-48d5-b912-cd63e58f5185" d="M565,864.4c-2.3-.02-4.17,1.83-4.19,4.14-.02,2.3,1.83,4.17,4.13,4.19,2.3.02,4.17-1.83,4.19-4.13.02-2.3-1.84-4.18-4.13-4.19Z"/>
  <path class="uuid-32e2024b-d7cb-48d5-b912-cd63e58f5185" d="M523.67,822.51c-2.3-.02-4.17,1.83-4.19,4.14-.02,2.3,1.83,4.17,4.13,4.19,2.3.02,4.17-1.83,4.19-4.13.02-2.3-1.84-4.18-4.13-4.19Z"/>
  <path class="uuid-32e2024b-d7cb-48d5-b912-cd63e58f5185" d="M565.28,822.79c-2.3-.02-4.17,1.83-4.19,4.14-.02,2.3,1.83,4.17,4.13,4.19,2.3.02,4.17-1.83,4.19-4.13.02-2.3-1.84-4.18-4.13-4.19Z"/>
  <path class="uuid-32e2024b-d7cb-48d5-b912-cd63e58f5185" d="M502.45,884.78s0,0,0,0c-2.3-.02-4.17,1.83-4.19,4.13,0,0,0,0,0,0-.02,2.3,1.83,4.17,4.13,4.19,0,0,0,0,0,0,2.3.02,4.17-1.83,4.19-4.13h0c.02-2.3-1.83-4.17-4.13-4.19Z"/>
  <path class="uuid-32e2024b-d7cb-48d5-b912-cd63e58f5185" d="M502.73,843.18s0,0,0,0c-2.3-.02-4.17,1.83-4.19,4.13-.02,2.3,1.83,4.18,4.13,4.19,0,0,0,0,0,0,2.3.02,4.17-1.84,4.19-4.14.02-2.3-1.83-4.17-4.13-4.19Z"/>
  <path class="uuid-32e2024b-d7cb-48d5-b912-cd63e58f5185" d="M523.11,905.73c-2.3-.02-4.17,1.83-4.19,4.14-.02,2.3,1.83,4.17,4.13,4.19,2.3.02,4.17-1.83,4.19-4.13.02-2.3-1.84-4.18-4.13-4.19Z"/>
  <path class="uuid-32e2024b-d7cb-48d5-b912-cd63e58f5185" d="M564.72,906.01c-2.3-.02-4.17,1.83-4.19,4.14-.02,2.3,1.83,4.17,4.13,4.19,2.3.02,4.17-1.83,4.19-4.13.02-2.3-1.84-4.18-4.13-4.19Z"/>
  <path class="uuid-32e2024b-d7cb-48d5-b912-cd63e58f5185" d="M460.84,884.5c-2.3-.02-4.17,1.83-4.19,4.13,0,0,0,0,0,0-.02,2.3,1.83,4.17,4.13,4.19,2.3.02,4.17-1.83,4.19-4.13,0,0,0,0,0,0,.02-2.3-1.84-4.17-4.13-4.19Z"/>
  <path class="uuid-32e2024b-d7cb-48d5-b912-cd63e58f5185" d="M461.12,842.9c-2.3-.02-4.17,1.83-4.19,4.13-.02,2.3,1.83,4.18,4.13,4.19,2.3.02,4.17-1.84,4.19-4.14.02-2.3-1.84-4.17-4.13-4.19Z"/>
  <path class="uuid-32e2024b-d7cb-48d5-b912-cd63e58f5185" d="M440.18,863.56c-2.3-.02-4.17,1.83-4.19,4.14-.02,2.3,1.83,4.17,4.13,4.19,2.3.02,4.17-1.83,4.19-4.13.02-2.3-1.84-4.18-4.13-4.19Z"/>
  <path class="uuid-32e2024b-d7cb-48d5-b912-cd63e58f5185" d="M481.78,863.84c-2.3-.02-4.17,1.83-4.19,4.14-.02,2.3,1.83,4.17,4.13,4.19,2.3.02,4.17-1.83,4.19-4.13.02-2.3-1.84-4.18-4.13-4.19Z"/>
  <path class="uuid-32e2024b-d7cb-48d5-b912-cd63e58f5185" d="M482.06,822.23c-2.3-.02-4.17,1.83-4.19,4.14-.02,2.3,1.83,4.17,4.13,4.19,2.3.02,4.17-1.83,4.19-4.13.02-2.3-1.84-4.18-4.13-4.19Z"/>
  <path class="uuid-32e2024b-d7cb-48d5-b912-cd63e58f5185" d="M419.24,884.22s0,0,0,0c-2.3-.02-4.17,1.83-4.19,4.13h0c-.02,2.3,1.83,4.17,4.13,4.19,0,0,0,0,0,0,2.3.02,4.17-1.83,4.19-4.13h0c.02-2.3-1.83-4.17-4.13-4.19Z"/>
  <path class="uuid-32e2024b-d7cb-48d5-b912-cd63e58f5185" d="M439.9,905.17c-2.3-.02-4.17,1.83-4.19,4.14-.02,2.3,1.83,4.17,4.13,4.19,2.3.02,4.17-1.83,4.19-4.13.02-2.3-1.84-4.18-4.13-4.19Z"/>
  <path class="uuid-32e2024b-d7cb-48d5-b912-cd63e58f5185" d="M481.5,905.45c-2.3-.02-4.17,1.83-4.19,4.14-.02,2.3,1.83,4.17,4.13,4.19,2.3.02,4.17-1.83,4.19-4.13.02-2.3-1.84-4.18-4.13-4.19Z"/>
  <path class="uuid-32e2024b-d7cb-48d5-b912-cd63e58f5185" d="M398.29,904.89c-2.3-.02-4.17,1.83-4.19,4.14-.02,2.3,1.83,4.17,4.13,4.19,2.3.02,4.17-1.83,4.19-4.13.02-2.3-1.84-4.18-4.13-4.19Z"/>
  <path class="uuid-32e2024b-d7cb-48d5-b912-cd63e58f5185" d="M244.9,620.77c-2.37-2.46-6.29-2.53-8.75-.16l-91.61,88.39c-1.21,1.17-1.89,2.77-1.89,4.45s.68,3.29,1.89,4.45l91.61,88.39c1.2,1.16,2.75,1.73,4.29,1.73s3.24-.63,4.45-1.89c2.37-2.46,2.3-6.38-.16-8.75l-86.99-83.94,86.99-83.94c2.46-2.37,2.53-6.29.16-8.75Z"/>
  <path class="uuid-32e2024b-d7cb-48d5-b912-cd63e58f5185" d="M525.45,713.46c0-1.68-.68-3.29-1.89-4.45l-91.61-88.39c-2.46-2.37-6.38-2.3-8.75.16-2.37,2.46-2.3,6.38.16,8.75l86.99,83.94-86.99,83.94c-2.46,2.37-2.53,6.29-.16,8.75,1.21,1.26,2.83,1.89,4.45,1.89s3.09-.58,4.29-1.73l91.61-88.39c1.21-1.17,1.89-2.77,1.89-4.45Z"/>
  <path class="uuid-32e2024b-d7cb-48d5-b912-cd63e58f5185" d="M375.23,606.57c-3.2-1.19-6.76.44-7.95,3.64l-80.17,215.74c-1.19,3.2.44,6.76,3.64,7.95.71.26,1.44.39,2.15.39,2.51,0,4.87-1.54,5.8-4.03l80.17-215.74c1.19-3.2-.44-6.76-3.64-7.95Z"/>
  <path class="uuid-32e2024b-d7cb-48d5-b912-cd63e58f5185" d="M1040,780.86h-59.35c-1.38,0-2.5,1.12-2.5,2.5s1.12,2.5,2.5,2.5h59.35c1.38,0,2.5-1.12,2.5-2.5s-1.12-2.5-2.5-2.5Z"/>
  <path class="uuid-32e2024b-d7cb-48d5-b912-cd63e58f5185" d="M931.72,783.36c0-1.38-1.12-2.5-2.5-2.5h-195.11c-1.38,0-2.5,1.12-2.5,2.5s1.12,2.5,2.5,2.5h195.11c1.38,0,2.5-1.12,2.5-2.5Z"/>
  <path class="uuid-32e2024b-d7cb-48d5-b912-cd63e58f5185" d="M932.06,853.27h-55.05c-1.38,0-2.5,1.12-2.5,2.5s1.12,2.5,2.5,2.5h55.05c1.38,0,2.5-1.12,2.5-2.5s-1.12-2.5-2.5-2.5Z"/>
  <path class="uuid-32e2024b-d7cb-48d5-b912-cd63e58f5185" d="M175.82,209.61h114.38c1.38,0,2.5-1.12,2.5-2.5s-1.12-2.5-2.5-2.5h-114.38c-1.38,0-2.5,1.12-2.5,2.5s1.12,2.5,2.5,2.5Z"/>
  <path class="uuid-32e2024b-d7cb-48d5-b912-cd63e58f5185" d="M986.72,476.28c.88.89,2.04,1.38,3.29,1.39h.03c1.23,0,2.4-.48,3.28-1.34.83-.82,1.3-1.89,1.36-3.04h.02s0-.25,0-.25v-.25s-.02,0-.02,0c-.05-1.15-.51-2.23-1.32-3.06-.88-.89-2.05-1.38-3.29-1.39h-.03c-2.47,0-4.49,1.94-4.64,4.39h-.03s0,.25,0,.25v.25s.02,0,.02,0c.05,1.15.51,2.23,1.32,3.06Z"/>
  <path class="uuid-32e2024b-d7cb-48d5-b912-cd63e58f5185" d="M990.31,433.48h.03c2.56,0,4.65-2.08,4.67-4.64.02-2.57-2.06-4.68-4.64-4.7h-.03c-2.56,0-4.65,2.07-4.67,4.64,0,1.25.47,2.42,1.34,3.31.88.89,2.04,1.38,3.29,1.39Z"/>
  <path class="uuid-32e2024b-d7cb-48d5-b912-cd63e58f5185" d="M968.06,455.42h.03c2.56,0,4.65-2.07,4.67-4.64.02-2.58-2.06-4.69-4.64-4.71h-.03c-1.24,0-2.4.48-3.28,1.35-.89.88-1.38,2.05-1.39,3.3,0,1.25.47,2.42,1.34,3.31.88.89,2.04,1.38,3.29,1.39Z"/>
  <path class="uuid-32e2024b-d7cb-48d5-b912-cd63e58f5185" d="M968.36,411.22h.03c1.23,0,2.4-.48,3.28-1.35.89-.88,1.38-2.05,1.39-3.29.02-2.58-2.06-4.69-4.64-4.71-1.22,0-2.42.47-3.31,1.35-.89.88-1.38,2.05-1.39,3.3-.02,2.57,2.06,4.68,4.64,4.7Z"/>
  <path class="uuid-32e2024b-d7cb-48d5-b912-cd63e58f5185" d="M942.52,475.98c.82.83,1.89,1.29,3.05,1.36v.02s.25,0,.25,0h.25s0-.02,0-.02c2.37-.11,4.28-1.99,4.42-4.37h.03s0-.25,0-.25v-.25s-.02,0-.02,0c-.11-2.37-1.99-4.28-4.36-4.42v-.03s-.25,0-.25,0h-.25s0,.03,0,.03c-2.36.13-4.28,1.99-4.43,4.36h-.03s0,.25,0,.25v.25s.02,0,.02,0c.05,1.15.51,2.23,1.32,3.06Z"/>
  <path class="uuid-32e2024b-d7cb-48d5-b912-cd63e58f5185" d="M945.86,433.15v.02s.25,0,.25,0h.25s0-.02,0-.02c1.15-.05,2.23-.51,3.06-1.33.89-.88,1.38-2.05,1.39-3.29,0-1.25-.47-2.42-1.34-3.31-.82-.83-1.89-1.29-3.04-1.36v-.02s-.25,0-.25,0h-.25s0,.02,0,.02c-2.46.12-4.44,2.13-4.45,4.62,0,1.25.47,2.42,1.35,3.31.82.83,1.89,1.3,3.05,1.37Z"/>
  <path class="uuid-32e2024b-d7cb-48d5-b912-cd63e58f5185" d="M855.3,298.58c.82.83,1.89,1.29,3.05,1.36v.02s.25,0,.25,0h.25s0-.02,0-.02c2.37-.11,4.28-2,4.42-4.37h.03s0-.25,0-.25v-.25s-.02,0-.02,0c-.11-2.37-1.99-4.28-4.36-4.42v-.03s-.25,0-.25,0h-.25s0,.02,0,.02c-2.37.11-4.28,1.99-4.43,4.37h-.03s0,.25,0,.25v.25s.02,0,.02,0c.05,1.15.51,2.23,1.32,3.06Z"/>
  <path class="uuid-32e2024b-d7cb-48d5-b912-cd63e58f5185" d="M898.91,387.28c.88.89,2.04,1.38,3.29,1.39h.03c2.48,0,4.5-1.94,4.64-4.39h.03s0-.25,0-.25v-.25s-.02,0-.02,0c-.12-2.46-2.13-4.43-4.62-4.45h-.03c-2.47,0-4.49,1.94-4.64,4.39h-.02s0,.25,0,.25h0s0,.25,0,.25h.02c.05,1.15.51,2.23,1.32,3.06Z"/>
  <path class="uuid-32e2024b-d7cb-48d5-b912-cd63e58f5185" d="M902.5,344.48h.03c2.56,0,4.65-2.08,4.67-4.64,0-1.25-.47-2.42-1.35-3.31-.88-.89-2.05-1.38-3.29-1.39h-.03c-2.56,0-4.65,2.07-4.67,4.64-.02,2.58,2.06,4.69,4.64,4.71Z"/>
  <path class="uuid-32e2024b-d7cb-48d5-b912-cd63e58f5185" d="M880.25,366.42h.03c2.56,0,4.65-2.07,4.67-4.64.02-2.58-2.06-4.69-4.64-4.71-1.26.01-2.42.47-3.31,1.35-.89.88-1.38,2.05-1.39,3.3-.02,2.57,2.06,4.68,4.64,4.7Z"/>
  <path class="uuid-32e2024b-d7cb-48d5-b912-cd63e58f5185" d="M924.45,366.72h.03c2.56,0,4.65-2.07,4.67-4.64.02-2.58-2.06-4.69-4.64-4.71h-.03c-1.24,0-2.4.48-3.28,1.35-.89.88-1.38,2.05-1.39,3.3,0,1.25.47,2.42,1.35,3.31.88.89,2.05,1.38,3.29,1.39Z"/>
  <path class="uuid-32e2024b-d7cb-48d5-b912-cd63e58f5185" d="M880.55,322.22h.03c2.56,0,4.65-2.07,4.67-4.64.02-2.58-2.06-4.69-4.64-4.71h-.03c-2.56,0-4.65,2.08-4.67,4.64,0,1.25.47,2.42,1.34,3.31s2.04,1.38,3.29,1.39Z"/>
  <path class="uuid-32e2024b-d7cb-48d5-b912-cd63e58f5185" d="M858.05,344.15v.03s.25,0,.25,0h.25s0-.02,0-.02c2.46-.12,4.43-2.13,4.45-4.62.02-2.49-1.93-4.52-4.39-4.67v-.03s-.25,0-.25,0h-.25s0,.02,0,.02c-2.46.12-4.44,2.13-4.45,4.62-.02,2.49,1.93,4.53,4.39,4.68Z"/>
  <path class="uuid-32e2024b-d7cb-48d5-b912-cd63e58f5185" d="M901.91,432.88h.03c2.56,0,4.65-2.08,4.67-4.64.02-2.57-2.06-4.68-4.64-4.7h-.03c-2.56,0-4.65,2.07-4.67,4.64-.02,2.58,2.06,4.69,4.64,4.71Z"/>
  <path class="uuid-32e2024b-d7cb-48d5-b912-cd63e58f5185" d="M923.86,455.13h.03c2.56,0,4.65-2.07,4.67-4.64.02-2.58-2.06-4.69-4.64-4.71h-.03c-1.24,0-2.4.48-3.28,1.35-.89.88-1.38,2.05-1.39,3.3,0,1.25.47,2.42,1.35,3.31.88.89,2.05,1.38,3.29,1.39Z"/>
  <path class="uuid-32e2024b-d7cb-48d5-b912-cd63e58f5185" d="M879.95,410.63h.03c1.23,0,2.4-.48,3.28-1.34.89-.88,1.38-2.05,1.39-3.29.02-2.58-2.06-4.69-4.64-4.71h-.03c-1.24,0-2.4.48-3.28,1.35-.89.88-1.38,2.05-1.39,3.3,0,1.25.47,2.42,1.34,3.31.88.89,2.04,1.38,3.29,1.39Z"/>
  <path class="uuid-32e2024b-d7cb-48d5-b912-cd63e58f5185" d="M924.16,410.92h.03c1.24,0,2.4-.48,3.28-1.35.89-.88,1.38-2.04,1.39-3.29,0-1.25-.47-2.43-1.35-3.32-.88-.89-2.05-1.38-3.29-1.39-1.24-.02-2.42.47-3.31,1.35-.89.88-1.38,2.05-1.39,3.3,0,1.25.47,2.42,1.35,3.31.88.89,2.05,1.38,3.29,1.39Z"/>
  <path class="uuid-32e2024b-d7cb-48d5-b912-cd63e58f5185" d="M923.56,499.33h.03c1.24,0,2.4-.48,3.28-1.35.89-.88,1.38-2.05,1.39-3.29.02-2.58-2.06-4.69-4.64-4.71-1.27-.02-2.43.47-3.31,1.35-.89.88-1.38,2.05-1.39,3.3,0,1.25.47,2.42,1.35,3.31.88.89,2.05,1.38,3.29,1.39Z"/>
  <path class="uuid-32e2024b-d7cb-48d5-b912-cd63e58f5185" d="M811.1,298.28c.88.89,2.04,1.38,3.29,1.39h.03c2.48,0,4.49-1.94,4.64-4.39h.03s0-.25,0-.25v-.25s-.02,0-.02,0c-.12-2.46-2.13-4.43-4.62-4.45h-.03c-2.47,0-4.49,1.94-4.64,4.39h-.02s0,.25,0,.25v.25s.02,0,.02,0c.05,1.15.51,2.23,1.32,3.06Z"/>
  <path class="uuid-32e2024b-d7cb-48d5-b912-cd63e58f5185" d="M836.35,321.92h.03c1.23,0,2.4-.48,3.28-1.34.89-.88,1.38-2.05,1.39-3.29.02-2.58-2.06-4.69-4.64-4.71-1.27,0-2.43.47-3.31,1.35-.89.88-1.38,2.05-1.39,3.3,0,1.25.47,2.42,1.35,3.31.88.89,2.05,1.38,3.29,1.39Z"/>
</svg>