<svg width="86" height="100" viewBox="0 0 86 100" fill="none" xmlns="http://www.w3.org/2000/svg">
<path d="M56.6851 0H1.92404C0.861909 0.00117734 0.00117619 0.862754 0 1.92593V76C0.00120224 77.0632 0.86192 77.9247 1.92404 77.9259H56.6851C57.7473 77.9247 58.608 77.0632 58.6092 76V1.92593C58.608 0.862765 57.7473 0.00120342 56.6851 0Z" fill="#EEEBEF"/>
<path d="M3.6157 2.37036C2.87469 2.38294 2.28357 2.99335 2.29408 3.73512V74.1908C2.28357 74.9326 2.87469 75.543 3.6157 75.5555H54.9936C55.7346 75.543 56.3257 74.9326 56.3152 74.1908V3.73512C56.3257 2.99335 55.7346 2.38294 54.9936 2.37036H3.6157Z" fill="white"/>
<path d="M6.29024 5.62964C5.80056 5.62964 5.40222 6.07963 5.40222 6.63281V16.3302C5.40222 16.8834 5.80056 17.3333 6.29024 17.3333H52.3192C52.8088 17.3333 53.2072 16.8834 53.2072 16.3302V6.63281C53.2072 6.07963 52.8088 5.62964 52.3192 5.62964H6.29024Z" fill="#EEEBEF"/>
<path d="M6.29007 22.0371C5.79287 22.0448 5.39566 22.4538 5.40205 22.9515V43.6782C5.39566 44.176 5.79287 44.585 6.29007 44.5927H52.319C52.8162 44.585 53.2134 44.176 53.207 43.6782V22.9515C53.2134 22.4538 52.8162 22.0448 52.319 22.0371H6.29007Z" fill="#EEEBEF"/>
<rect x="11.1002" y="7" width="36.4087" height="2.07407" fill="white"/>
<rect x="11.1742" y="11.3704" width="36.4087" height="0.962963" fill="white"/>
<rect x="11.1742" y="13.074" width="36.4087" height="0.962963" fill="white"/>
<rect x="11.1742" y="14.7778" width="36.4087" height="0.962963" fill="white"/>
<path d="M32.7326 44.6298H49.4882C49.7063 44.6297 49.903 44.4982 49.9865 44.2965C50.07 44.0947 50.0239 43.8625 49.8696 43.7081L39.1458 32.9738C38.9351 32.7633 38.5938 32.7633 38.3831 32.9738L35.7163 35.6431C35.5042 35.8555 35.2164 35.9749 34.9164 35.9749C34.6163 35.9749 34.3286 35.8555 34.1164 35.6431L25.7639 27.2824C25.5531 27.0719 25.2118 27.0719 25.001 27.2824L8.66539 43.634C8.51116 43.7884 8.46504 44.0207 8.54853 44.2224C8.63201 44.4241 8.82867 44.5557 9.04682 44.5557H32.7541L32.7326 44.6298Z" fill="white"/>
<ellipse cx="12.8024" cy="26.9259" rx="2.07204" ry="2.07407" fill="white"/>
<path d="M6.29007 49.4443C5.79287 49.452 5.39566 49.861 5.40205 50.3588V71.0855C5.39566 71.5832 5.79287 71.9922 6.29007 71.9999H52.319C52.8162 71.9922 53.2134 71.5832 53.207 71.0855V50.3588C53.2134 49.861 52.8162 49.452 52.319 49.4443H6.29007Z" fill="#EEEBEF"/>
<path d="M32.7326 72.0371H49.4882C49.7063 72.0371 49.903 71.9055 49.9865 71.7038C50.07 71.502 50.0238 71.2698 49.8696 71.1154L39.1458 60.3812C38.935 60.1708 38.5939 60.1708 38.3831 60.3812L35.7163 63.0504C35.5042 63.2629 35.2164 63.3823 34.9163 63.3823C34.6162 63.3823 34.3284 63.2629 34.1163 63.0504L25.7638 54.6898C25.553 54.4794 25.2119 54.4794 25.001 54.6898L8.66539 71.0413C8.51116 71.1957 8.46504 71.428 8.54853 71.6297C8.63201 71.8314 8.82866 71.963 9.04681 71.963H32.7541L32.7326 72.0371Z" fill="white"/>
<ellipse cx="12.8024" cy="54.3334" rx="2.07204" ry="2.07407" fill="white"/>
<path d="M21.1644 17.0371C20.4291 17.038 19.8333 17.6344 19.8324 18.3704V92.4445C19.8332 93.1806 20.4291 93.777 21.1644 93.7779H75.9255C76.6609 93.7771 77.2568 93.1806 77.2576 92.4445V18.3704C77.2567 17.6344 76.6608 17.0379 75.9255 17.0371L21.1644 17.0371Z" fill="#EEEBEF"/>
<path d="M22.7821 19.1111C22.0411 19.1237 21.45 19.7341 21.4605 20.4758V90.9315C21.45 91.6733 22.0411 92.2837 22.7821 92.2963H74.1599C74.9009 92.2837 75.4921 91.6733 75.4816 90.9315V20.4758C75.4921 19.7341 74.9009 19.1237 74.1599 19.1111H22.7821Z" fill="white"/>
<path d="M30.8216 29.3604C30.4948 29.3607 30.23 29.6258 30.2296 29.9529V32.6728C30.23 32.9999 30.4948 33.265 30.8216 33.2654H65.7503C66.0771 33.265 66.342 32.9999 66.3423 32.6728V29.9529C66.342 29.6258 66.0771 29.3607 65.7503 29.3604H30.8216Z" fill="#F56D6D"/>
<path d="M30.5997 38.3613C30.518 38.3614 30.4518 38.4277 30.4517 38.5095V39.5713C30.4518 39.653 30.518 39.7193 30.5997 39.7194H66.1204C66.2021 39.7193 66.2683 39.653 66.2684 39.5713V38.5095C66.2683 38.4277 66.2021 38.3614 66.1204 38.3613L30.5997 38.3613Z" fill="#EEEBEF"/>
<path d="M30.5997 41.8125C30.518 41.8126 30.4518 41.8789 30.4517 41.9606V43.0224C30.4518 43.1042 30.518 43.1705 30.5997 43.1706H66.1204C66.2021 43.1705 66.2683 43.1042 66.2684 43.0224V41.9606C66.2683 41.8789 66.2021 41.8126 66.1204 41.8125L30.5997 41.8125Z" fill="#EEEBEF"/>
<path d="M30.5997 45.2634C30.518 45.2635 30.4518 45.3298 30.4517 45.4116V46.4733C30.4518 46.5551 30.518 46.6213 30.5997 46.6214H66.1204C66.2021 46.6213 66.2683 46.5551 66.2684 46.4733V45.4116C66.2683 45.3298 66.2021 45.2635 66.1204 45.2634H30.5997Z" fill="#EEEBEF"/>
<path d="M30.5256 52.1572C30.4439 52.1573 30.3777 52.2236 30.3776 52.3054V53.3671C30.3777 53.4489 30.4439 53.5151 30.5256 53.5152H66.0463C66.128 53.5151 66.1942 53.4489 66.1943 53.3671V52.3054C66.1942 52.2236 66.128 52.1573 66.0463 52.1572L30.5256 52.1572Z" fill="#EEEBEF"/>
<path d="M30.5256 55.6084C30.4439 55.6085 30.3777 55.6748 30.3776 55.7565V56.8183C30.3777 56.9 30.4439 56.9663 30.5256 56.9664H66.0463C66.128 56.9663 66.1942 56.9 66.1943 56.8183V55.7565C66.1942 55.6748 66.128 55.6085 66.0463 55.6084L30.5256 55.6084Z" fill="#EEEBEF"/>
<path d="M30.5256 59.0593C30.4439 59.0594 30.3776 59.1257 30.3776 59.2075V60.2693C30.3776 60.351 30.4439 60.4173 30.5256 60.4174H66.0463C66.128 60.4173 66.1942 60.351 66.1943 60.2693V59.2075C66.1942 59.1257 66.128 59.0594 66.0463 59.0593H30.5256Z" fill="#EEEBEF"/>
<path d="M30.5256 62.5276C30.4439 62.5277 30.3776 62.5939 30.3776 62.6757V63.7375C30.3776 63.8193 30.4439 63.8856 30.5256 63.8857H66.0463C66.128 63.8856 66.1942 63.8193 66.1943 63.7375V62.6757C66.1942 62.5939 66.128 62.5276 66.0463 62.5276H30.5256Z" fill="#EEEBEF"/>
<path d="M30.5256 65.9785C30.4439 65.9786 30.3776 66.0449 30.3776 66.1267V67.1884C30.3776 67.2702 30.4439 67.3365 30.5256 67.3366H66.0463C66.128 67.3365 66.1942 67.2702 66.1943 67.1884V66.1267C66.1942 66.0449 66.128 65.9786 66.0463 65.9785L30.5256 65.9785Z" fill="#EEEBEF"/>
<path d="M30.5256 69.4297C30.4439 69.4298 30.3776 69.496 30.3776 69.5778V70.6396C30.3776 70.7214 30.4439 70.7877 30.5256 70.7878H66.0463C66.128 70.7877 66.1942 70.7214 66.1943 70.6396V69.5778C66.1942 69.496 66.128 69.4297 66.0463 69.4297H30.5256Z" fill="#EEEBEF"/>
<path d="M30.5256 72.8979C30.4439 72.898 30.3776 72.9643 30.3776 73.0461V74.1079C30.3776 74.1897 30.4439 74.2559 30.5256 74.256H66.0463C66.128 74.256 66.1942 74.1897 66.1943 74.1079V73.0461C66.1942 72.9643 66.128 72.898 66.0463 72.8979L30.5256 72.8979Z" fill="#EEEBEF"/>
<path d="M30.5256 76.3489C30.4439 76.349 30.3776 76.4152 30.3776 76.497V77.5588C30.3776 77.6406 30.4439 77.7069 30.5256 77.707H66.0463C66.128 77.7069 66.1942 77.6406 66.1943 77.5588V76.497C66.1942 76.4152 66.128 76.3489 66.0463 76.3489L30.5256 76.3489Z" fill="#EEEBEF"/>
<path d="M30.5256 79.8C30.4439 79.8001 30.3776 79.8664 30.3776 79.9482V81.01C30.3776 81.0918 30.4439 81.158 30.5256 81.1581H66.0463C66.128 81.1581 66.1942 81.0918 66.1943 81.01V79.9482C66.1942 79.8664 66.128 79.8001 66.0463 79.8L30.5256 79.8Z" fill="#EEEBEF"/>
<ellipse cx="74.7416" cy="89.1852" rx="10.8042" ry="10.8148" fill="#ADDDDD"/>
<path fill-rule="evenodd" clip-rule="evenodd" d="M73.712 93.7504L70.4781 89.5887L72.3587 88.1244L73.8899 90.095L79.0625 84.6294L80.7922 86.2697L73.712 93.7504Z" fill="#2E676C"/>
</svg>
