<?xml version="1.0" encoding="UTF-8"?><svg id="uuid-919d02b6-bb2c-43b2-a159-5d65355fe7b2" xmlns="http://www.w3.org/2000/svg" viewBox="0 0 1080 1080"><title>Digital transformation mini illustration - Black</title>
<desc>digital transformation, collaboration, bubbles, code, technology</desc>
<metadata><?xpacket begin="﻿" id="W5M0MpCehiHzreSzNTczkc9d"?>
<x:xmpmeta xmlns:x="adobe:ns:meta/" x:xmptk="Adobe XMP Core 8.0-c001 1.000000, 0000/00/00-00:00:00        ">
   <rdf:RDF xmlns:rdf="http://www.w3.org/1999/02/22-rdf-syntax-ns#">
      <rdf:Description rdf:about=""
            xmlns:xmp="http://ns.adobe.com/xap/1.0/"
            xmlns:dc="http://purl.org/dc/elements/1.1/"
            xmlns:cq="http://www.day.com/jcr/cq/1.0"
            xmlns:tiff="http://ns.adobe.com/tiff/1.0/">
         <xmp:rhcc-effective-on>2024-01-05T15:47:01.194Z</xmp:rhcc-effective-on>
         <xmp:rhcc-metadata-complete-moderator>pending</xmp:rhcc-metadata-complete-moderator>
         <xmp:rhcc-translation-id>TRA96548f2e-65dd-4486-9299-929a817f72cf</xmp:rhcc-translation-id>
         <xmp:brand-content-type>Illustration</xmp:brand-content-type>
         <xmp:CreateDate>2024-01-05T15:47:01.194Z</xmp:CreateDate>
         <xmp:rhcc-effective-on-set-on-upload>true</xmp:rhcc-effective-on-set-on-upload>
         <xmp:rhcc-metadata-complete-uploader>pending</xmp:rhcc-metadata-complete-uploader>
         <xmp:rhcc-file-last-modified>2024-01-05T15:47:13.635Z</xmp:rhcc-file-last-modified>
         <xmp:rhcc-audience>rhcc-audience:internal</xmp:rhcc-audience>
         <xmp:rhcc-rights-restricted>no</xmp:rhcc-rights-restricted>
         <xmp:brand-content-subtype>Mini illustration</xmp:brand-content-subtype>
         <xmp:rhcc-derivative-id>DER96548f2e-65dd-4486-9299-929a817f72cf</xmp:rhcc-derivative-id>
         <xmp:rhcc-notify-portal-subscribers-on-change>yes</xmp:rhcc-notify-portal-subscribers-on-change>
         <xmp:brand-colorway>
            <rdf:Bag>
               <rdf:li>Black</rdf:li>
            </rdf:Bag>
         </xmp:brand-colorway>
         <dc:format>image/svg+xml</dc:format>
         <dc:modified>2024-02-09T18:52:46.120Z</dc:modified>
         <dc:title>
            <rdf:Alt>
               <rdf:li xml:lang="x-default">Digital transformation mini illustration - Black</rdf:li>
            </rdf:Alt>
         </dc:title>
         <dc:description>
            <rdf:Alt>
               <rdf:li xml:lang="x-default">digital transformation, collaboration, bubbles, code, technology</rdf:li>
            </rdf:Alt>
         </dc:description>
         <cq:lastReplicationAction_scene7>Activate</cq:lastReplicationAction_scene7>
         <cq:lastReplicationAction_publish>Activate</cq:lastReplicationAction_publish>
         <cq:lastReplicated_publish>2024-02-09T18:56:53.741Z</cq:lastReplicated_publish>
         <cq:lastReplicatedBy>workflow-process-service</cq:lastReplicatedBy>
         <cq:lastReplicationAction>Activate</cq:lastReplicationAction>
         <cq:lastReplicatedBy_publish>workflow-process-service</cq:lastReplicatedBy_publish>
         <cq:isDelivered>true</cq:isDelivered>
         <cq:lastReplicated>2024-02-09T18:56:53.741Z</cq:lastReplicated>
         <cq:lastReplicatedBy_scene7>workflow-process-service</cq:lastReplicatedBy_scene7>
         <cq:lastReplicated_scene7>2024-02-09T18:56:53.741Z</cq:lastReplicated_scene7>
         <tiff:ImageLength>1080</tiff:ImageLength>
         <tiff:ImageWidth>1080</tiff:ImageWidth>
      </rdf:Description>
   </rdf:RDF>
</x:xmpmeta>
                                                                                                    
                                                                                                    
                                                                                                    
                                                                                                    
                                                                                                    
                                                                                                    
                                                                                                    
                                                                                                    
                                                                                                    
                                                                                                    
                             
<?xpacket end="w"?></metadata>
<rect x="932.4097" y="265.2215" width="7.4074" height="7.4075" rx="3.7037" ry="3.7037"/><path d="M899.0765,154.1104h-.0002c-2.0455,0-3.7037,1.6582-3.7037,3.7036s1.6582,3.7039,3.7037,3.7039h.0002c2.0455-.0002,3.7036-1.6584,3.7036-3.7039s-1.6581-3.7036-3.7036-3.7036Z"/><path d="M899.0765,191.1476h-.0002c-2.0455,0-3.7037,1.6582-3.7037,3.7036s1.6582,3.7036,3.7037,3.7036h.0002c2.0455,0,3.7036-1.6582,3.7036-3.7036s-1.6581-3.7036-3.7036-3.7036Z"/><path d="M917.5948,217.0733c2.0455,0,3.7037-1.6582,3.7037-3.7036s-1.6582-3.7036-3.7037-3.7036-3.7037,1.6582-3.7037,3.7036,1.6582,3.7036,3.7037,3.7036Z"/><path d="M899.0765,228.1847h-.0002c-2.0455,0-3.7037,1.6582-3.7037,3.7036s1.6582,3.7036,3.7037,3.7036h.0002c2.0455,0,3.7036-1.6582,3.7036-3.7036s-1.6581-3.7036-3.7036-3.7036Z"/><path d="M917.5948,254.1104c2.0455,0,3.7037-1.6582,3.7037-3.7036s-1.6582-3.7039-3.7037-3.7039-3.7037,1.6582-3.7037,3.7039,1.6582,3.7036,3.7037,3.7036Z"/><rect x="895.3726" y="265.2215" width="7.4074" height="7.4075" rx="3.7036" ry="3.7036"/><path d="M936.1133,235.5919h.0002c2.0455,0,3.7036-1.6582,3.7036-3.7036s-1.6581-3.7036-3.7036-3.7036h-.0002c-2.0455,0-3.7037,1.6582-3.7037,3.7036s1.6582,3.7036,3.7037,3.7036Z"/><path d="M880.5578,135.5919c-2.0455,0-3.7037,1.6582-3.7037,3.7036s1.6582,3.7039,3.7037,3.7039,3.7037-1.6582,3.7037-3.7039-1.6582-3.7036-3.7037-3.7036Z"/><path d="M862.0394,154.1104h-.0001c-2.0455,0-3.7037,1.6582-3.7037,3.7036s1.6582,3.7039,3.7037,3.7039h.0001c2.0454-.0002,3.7036-1.6584,3.7036-3.7039s-1.6581-3.7036-3.7036-3.7036Z"/><path d="M880.5578,172.629c-2.0455,0-3.7037,1.6582-3.7037,3.7036s1.6582,3.7036,3.7037,3.7036,3.7037-1.6582,3.7037-3.7036-1.6582-3.7036-3.7037-3.7036Z"/><path d="M862.0394,191.1476h-.0001c-2.0455,0-3.7037,1.6582-3.7037,3.7036s1.6582,3.7036,3.7037,3.7036h.0001c2.0454,0,3.7036-1.6582,3.7036-3.7036s-1.6581-3.7036-3.7036-3.7036Z"/><path d="M880.5578,209.6661c-2.0455,0-3.7037,1.6582-3.7037,3.7036s1.6582,3.7036,3.7037,3.7036,3.7037-1.6582,3.7037-3.7036-1.6582-3.7036-3.7037-3.7036Z"/><path d="M862.0394,228.1847h-.0001c-2.0455,0-3.7037,1.6582-3.7037,3.7036s1.6582,3.7036,3.7037,3.7036h.0001c2.0454,0,3.7036-1.6582,3.7036-3.7036s-1.6581-3.7036-3.7036-3.7036Z"/><path d="M880.5578,246.703c-2.0455,0-3.7037,1.6582-3.7037,3.7039s1.6582,3.7036,3.7037,3.7036,3.7037-1.6582,3.7037-3.7036-1.6582-3.7039-3.7037-3.7039Z"/><rect x="858.3356" y="265.2215" width="7.4074" height="7.4075" rx="3.7036" ry="3.7036"/><rect x="821.2985" y="117.0733" width="7.4074" height="7.4075" rx="3.7036" ry="3.7036"/><path d="M843.5207,135.5919c-2.0455,0-3.7037,1.6582-3.7037,3.7036s1.6582,3.7039,3.7037,3.7039,3.7037-1.6582,3.7037-3.7039-1.6582-3.7036-3.7037-3.7036Z"/><path d="M825.0024,154.1104h-.0001c-2.0455,0-3.7037,1.6582-3.7037,3.7036s1.6582,3.7039,3.7037,3.7039h.0001c2.0454-.0002,3.7036-1.6584,3.7036-3.7039s-1.6581-3.7036-3.7036-3.7036Z"/><path d="M843.5207,172.629c-2.0455,0-3.7037,1.6582-3.7037,3.7036s1.6582,3.7036,3.7037,3.7036,3.7037-1.6582,3.7037-3.7036-1.6582-3.7036-3.7037-3.7036Z"/><path d="M825.0024,191.1476h-.0001c-2.0455,0-3.7037,1.6582-3.7037,3.7036s1.6582,3.7036,3.7037,3.7036h.0001c2.0454,0,3.7036-1.6582,3.7036-3.7036s-1.6581-3.7036-3.7036-3.7036Z"/><path d="M843.5207,209.6661c-2.0455,0-3.7037,1.6582-3.7037,3.7036s1.6582,3.7036,3.7037,3.7036,3.7037-1.6582,3.7037-3.7036-1.6582-3.7036-3.7037-3.7036Z"/><path d="M825.0024,228.1847h-.0001c-2.0455,0-3.7037,1.6582-3.7037,3.7036s1.6582,3.7036,3.7037,3.7036h.0001c2.0454,0,3.7036-1.6582,3.7036-3.7036s-1.6581-3.7036-3.7036-3.7036Z"/><path d="M843.5207,246.703c-2.0455,0-3.7037,1.6582-3.7037,3.7039s1.6582,3.7036,3.7037,3.7036,3.7037-1.6582,3.7037-3.7036-1.6582-3.7039-3.7037-3.7039Z"/><rect x="821.2985" y="265.2215" width="7.4074" height="7.4075" rx="3.7036" ry="3.7036"/><path d="M843.5207,283.7401c-2.0455,0-3.7037,1.6582-3.7037,3.7036s1.6582,3.7039,3.7037,3.7039,3.7037-1.6582,3.7037-3.7039-1.6582-3.7036-3.7037-3.7036Z"/><path d="M825.0024,302.2586h-.0001c-2.0455,0-3.7037,1.658-3.7037,3.7036s1.6582,3.7039,3.7037,3.7039h.0001c2.0454-.0002,3.7036-1.6584,3.7036-3.7039s-1.6581-3.7036-3.7036-3.7036Z"/><rect x="784.2615" y="117.0733" width="7.4074" height="7.4075" rx="3.7036" ry="3.7036"/><path d="M806.4837,135.5919c-2.0455,0-3.7037,1.6582-3.7037,3.7036s1.6582,3.7039,3.7037,3.7039,3.7037-1.6582,3.7037-3.7039-1.6582-3.7036-3.7037-3.7036Z"/><path d="M787.9653,154.1104h-.0001c-2.0455,0-3.7037,1.6582-3.7037,3.7036s1.6582,3.7039,3.7037,3.7039h.0001c2.0454-.0002,3.7036-1.6584,3.7036-3.7039s-1.6581-3.7036-3.7036-3.7036Z"/><path d="M806.4837,172.629c-2.0455,0-3.7037,1.6582-3.7037,3.7036s1.6582,3.7036,3.7037,3.7036,3.7037-1.6582,3.7037-3.7036-1.6582-3.7036-3.7037-3.7036Z"/><path d="M787.9653,191.1476h-.0001c-2.0455,0-3.7037,1.6582-3.7037,3.7036s1.6582,3.7036,3.7037,3.7036h.0001c2.0454,0,3.7036-1.6582,3.7036-3.7036s-1.6581-3.7036-3.7036-3.7036Z"/><path d="M806.4837,209.6661c-2.0455,0-3.7037,1.6582-3.7037,3.7036s1.6582,3.7036,3.7037,3.7036,3.7037-1.6582,3.7037-3.7036-1.6582-3.7036-3.7037-3.7036Z"/><path d="M787.9653,228.1847h-.0001c-2.0455,0-3.7037,1.6582-3.7037,3.7036s1.6582,3.7036,3.7037,3.7036h.0001c2.0454,0,3.7036-1.6582,3.7036-3.7036s-1.6581-3.7036-3.7036-3.7036Z"/><path d="M806.4837,246.703c-2.0455,0-3.7037,1.6582-3.7037,3.7039s1.6582,3.7036,3.7037,3.7036,3.7037-1.6582,3.7037-3.7036-1.6582-3.7039-3.7037-3.7039Z"/><rect x="784.2615" y="265.2215" width="7.4074" height="7.4075" rx="3.7036" ry="3.7036"/><path d="M806.4837,283.7401c-2.0455,0-3.7037,1.6582-3.7037,3.7036s1.6582,3.7039,3.7037,3.7039,3.7037-1.6582,3.7037-3.7039-1.6582-3.7036-3.7037-3.7036Z"/><path d="M769.4466,98.5548c-2.0455,0-3.7037,1.6582-3.7037,3.7039s1.6582,3.7036,3.7037,3.7036,3.7037-1.6582,3.7037-3.7036-1.6582-3.7039-3.7037-3.7039Z"/><rect x="747.2245" y="117.0733" width="7.4074" height="7.4075" rx="3.7036" ry="3.7036"/><path d="M769.4466,135.5919c-2.0455,0-3.7037,1.6582-3.7037,3.7036s1.6582,3.7039,3.7037,3.7039,3.7037-1.6582,3.7037-3.7039-1.6582-3.7036-3.7037-3.7036Z"/><path d="M750.9283,154.1104h-.0002c-2.0455,0-3.7037,1.6582-3.7037,3.7036s1.6582,3.7039,3.7037,3.7039h.0002c2.0455-.0002,3.7036-1.6584,3.7036-3.7039s-1.6581-3.7036-3.7036-3.7036Z"/><path d="M769.4466,172.629c-2.0455,0-3.7037,1.6582-3.7037,3.7036s1.6582,3.7036,3.7037,3.7036,3.7037-1.6582,3.7037-3.7036-1.6582-3.7036-3.7037-3.7036Z"/><path d="M750.9283,191.1476h-.0002c-2.0455,0-3.7037,1.6582-3.7037,3.7036s1.6582,3.7036,3.7037,3.7036h.0002c2.0455,0,3.7036-1.6582,3.7036-3.7036s-1.6581-3.7036-3.7036-3.7036Z"/><path d="M769.4466,209.6661c-2.0455,0-3.7037,1.6582-3.7037,3.7036s1.6582,3.7036,3.7037,3.7036,3.7037-1.6582,3.7037-3.7036-1.6582-3.7036-3.7037-3.7036Z"/><path d="M750.9283,228.1847h-.0002c-2.0455,0-3.7037,1.6582-3.7037,3.7036s1.6582,3.7036,3.7037,3.7036h.0002c2.0455,0,3.7036-1.6582,3.7036-3.7036s-1.6581-3.7036-3.7036-3.7036Z"/><path d="M769.4466,246.703c-2.0455,0-3.7037,1.6582-3.7037,3.7039s1.6582,3.7036,3.7037,3.7036,3.7037-1.6582,3.7037-3.7036-1.6582-3.7039-3.7037-3.7039Z"/><rect x="710.1874" y="117.0733" width="7.4074" height="7.4075" rx="3.7036" ry="3.7036"/><path d="M732.4097,135.5919c-2.0455,0-3.7037,1.6582-3.7037,3.7036s1.6582,3.7039,3.7037,3.7039,3.7037-1.6582,3.7037-3.7039-1.6582-3.7036-3.7037-3.7036Z"/><path d="M713.8913,154.1104h-.0002c-2.0455,0-3.7037,1.6582-3.7037,3.7036s1.6582,3.7039,3.7037,3.7039h.0002c2.0455-.0002,3.7036-1.6584,3.7036-3.7039s-1.6581-3.7036-3.7036-3.7036Z"/><path d="M732.4097,172.629c-2.0455,0-3.7037,1.6582-3.7037,3.7036s1.6582,3.7036,3.7037,3.7036,3.7037-1.6582,3.7037-3.7036-1.6582-3.7036-3.7037-3.7036Z"/><path d="M713.8913,191.1476h-.0002c-2.0455,0-3.7037,1.6582-3.7037,3.7036s1.6582,3.7036,3.7037,3.7036h.0002c2.0455,0,3.7036-1.6582,3.7036-3.7036s-1.6581-3.7036-3.7036-3.7036Z"/><path d="M732.4097,209.6661c-2.0455,0-3.7037,1.6582-3.7037,3.7036s1.6582,3.7036,3.7037,3.7036,3.7037-1.6582,3.7037-3.7036-1.6582-3.7036-3.7037-3.7036Z"/><path d="M713.8913,228.1847h-.0002c-2.0455,0-3.7037,1.6582-3.7037,3.7036s1.6582,3.7036,3.7037,3.7036h.0002c2.0455,0,3.7036-1.6582,3.7036-3.7036s-1.6581-3.7036-3.7036-3.7036Z"/><path d="M732.4097,246.703c-2.0455,0-3.7037,1.6582-3.7037,3.7039s1.6582,3.7036,3.7037,3.7036,3.7037-1.6582,3.7037-3.7036-1.6582-3.7039-3.7037-3.7039Z"/><path d="M695.3726,135.5919c-2.0455,0-3.7037,1.6582-3.7037,3.7036s1.6582,3.7039,3.7037,3.7039,3.7037-1.6582,3.7037-3.7039-1.6582-3.7036-3.7037-3.7036Z"/><path d="M676.8542,154.1104h-.0002c-2.0455,0-3.7037,1.6582-3.7037,3.7036s1.6582,3.7039,3.7037,3.7039h.0002c2.0455-.0002,3.7036-1.6584,3.7036-3.7039s-1.6581-3.7036-3.7036-3.7036Z"/><path d="M695.3726,172.629c-2.0455,0-3.7037,1.6582-3.7037,3.7036s1.6582,3.7036,3.7037,3.7036,3.7037-1.6582,3.7037-3.7036-1.6582-3.7036-3.7037-3.7036Z"/><path d="M676.8542,191.1476h-.0002c-2.0455,0-3.7037,1.6582-3.7037,3.7036s1.6582,3.7036,3.7037,3.7036h.0002c2.0455,0,3.7036-1.6582,3.7036-3.7036s-1.6581-3.7036-3.7036-3.7036Z"/><path d="M695.3726,209.6661c-2.0455,0-3.7037,1.6582-3.7037,3.7036s1.6582,3.7036,3.7037,3.7036,3.7037-1.6582,3.7037-3.7036-1.6582-3.7036-3.7037-3.7036Z"/><path d="M658.3356,172.629c-2.0455,0-3.7037,1.6582-3.7037,3.7036s1.6582,3.7036,3.7037,3.7036,3.7037-1.6582,3.7037-3.7036-1.6582-3.7036-3.7037-3.7036Z"/><path d="M639.8172,191.1476h-.0001c-2.0455,0-3.7037,1.6582-3.7037,3.7036s1.6582,3.7036,3.7037,3.7036h.0001c2.0454,0,3.7036-1.6582,3.7036-3.7036s-1.6581-3.7036-3.7036-3.7036Z"/><path d="M658.3356,209.6661c-2.0455,0-3.7037,1.6582-3.7037,3.7036s1.6582,3.7036,3.7037,3.7036,3.7037-1.6582,3.7037-3.7036-1.6582-3.7036-3.7037-3.7036Z"/><path d="M269.4468,783.7401h-.0001c-2.0455,0-3.7037,1.6582-3.7037,3.7036s1.6582,3.7039,3.7037,3.7039h.0001c2.0455-.0002,3.7036-1.6582,3.7036-3.7039s-1.6581-3.7034-3.7036-3.7036Z"/><path d="M269.4468,820.7772h-.0001c-2.0455,0-3.7037,1.6582-3.7037,3.7036s1.6582,3.7039,3.7037,3.7039h.0001c2.0455-.0002,3.7036-1.6584,3.7036-3.7039s-1.6581-3.7036-3.7036-3.7036Z"/><path d="M287.9652,839.2955c-2.0455,0-3.7037,1.6582-3.7037,3.7039s1.6582,3.7036,3.7037,3.7036,3.7037-1.6582,3.7037-3.7036-1.6582-3.7039-3.7037-3.7039Z"/><rect x="265.7429" y="857.8141" width="7.4075" height="7.4075" rx="3.7036" ry="3.7036"/><path d="M232.4098,746.703h-.0001c-2.0455,0-3.7037,1.6582-3.7037,3.7039s1.6582,3.7036,3.7037,3.7036h.0001c2.0454,0,3.7035-1.6582,3.7035-3.7036s-1.6581-3.7036-3.7035-3.7039Z"/><path d="M250.9282,765.2215c-2.0455,0-3.7037,1.6582-3.7037,3.7039s1.6582,3.7036,3.7037,3.7036,3.7036-1.6582,3.7036-3.7036-1.6582-3.7039-3.7036-3.7039Z"/><path d="M232.4098,783.7401h-.0001c-2.0455,0-3.7037,1.6582-3.7037,3.7036s1.6582,3.7039,3.7037,3.7039h.0001c2.0454-.0002,3.7035-1.6582,3.7035-3.7039s-1.6581-3.7034-3.7035-3.7036Z"/><path d="M250.9282,802.2586c-2.0455,0-3.7037,1.6582-3.7037,3.7036s1.6582,3.7039,3.7037,3.7039,3.7036-1.6582,3.7036-3.7039-1.6582-3.7036-3.7036-3.7036Z"/><path d="M232.4098,820.7772h-.0001c-2.0455,0-3.7037,1.6582-3.7037,3.7036s1.6582,3.7039,3.7037,3.7039h.0001c2.0454-.0002,3.7035-1.6584,3.7035-3.7039s-1.6581-3.7036-3.7035-3.7036Z"/><path d="M250.9282,839.2955c-2.0455,0-3.7037,1.6582-3.7037,3.7039s1.6582,3.7036,3.7037,3.7036,3.7036-1.6582,3.7036-3.7036-1.6582-3.7039-3.7036-3.7039Z"/><path d="M232.4094,857.8141h.0001c2.0441,0,3.7037,1.6596,3.7037,3.7037h0c0,2.0442-1.6596,3.7037-3.7037,3.7037h-.0001c-2.044,0-3.7035-1.6595-3.7035-3.7035v-.0005c0-2.044,1.6595-3.7035,3.7035-3.7035Z"/><path d="M250.9282,876.3326c-2.0455,0-3.7037,1.6582-3.7037,3.7036s1.6582,3.7039,3.7037,3.7039,3.7036-1.6582,3.7036-3.7039-1.6582-3.7036-3.7036-3.7036Z"/><path d="M195.3728,709.6661h-.0002c-2.0454,0-3.7036,1.658-3.7036,3.7036s1.6582,3.7036,3.7036,3.7036h.0002c2.0454,0,3.7035-1.6582,3.7035-3.7036s-1.6581-3.7036-3.7035-3.7036Z"/><path d="M213.8911,728.1847c-2.0454,0-3.7036,1.6582-3.7036,3.7036s1.6582,3.7036,3.7036,3.7036,3.7037-1.6582,3.7037-3.7036-1.6582-3.7036-3.7037-3.7036Z"/><path d="M195.3728,746.703h-.0002c-2.0454,0-3.7036,1.6582-3.7036,3.7039s1.6582,3.7036,3.7036,3.7036h.0002c2.0454,0,3.7035-1.6582,3.7035-3.7036s-1.6581-3.7036-3.7035-3.7039Z"/><path d="M213.8911,765.2215c-2.0454,0-3.7036,1.6582-3.7036,3.7039s1.6582,3.7036,3.7036,3.7036,3.7037-1.6582,3.7037-3.7036-1.6582-3.7039-3.7037-3.7039Z"/><path d="M195.3728,783.7401h-.0002c-2.0454,0-3.7036,1.6582-3.7036,3.7036s1.6582,3.7039,3.7036,3.7039h.0002c2.0454-.0002,3.7035-1.6582,3.7035-3.7039s-1.6581-3.7034-3.7035-3.7036Z"/><path d="M213.8911,802.2586c-2.0454,0-3.7036,1.6582-3.7036,3.7036s1.6582,3.7039,3.7036,3.7039,3.7037-1.6582,3.7037-3.7039-1.6582-3.7036-3.7037-3.7036Z"/><path d="M195.3728,820.7772h-.0002c-2.0454,0-3.7036,1.6582-3.7036,3.7036s1.6582,3.7039,3.7036,3.7039h.0002c2.0454-.0002,3.7035-1.6584,3.7035-3.7039s-1.6581-3.7036-3.7035-3.7036Z"/><path d="M213.8911,839.2955c-2.0454,0-3.7036,1.6582-3.7036,3.7039s1.6582,3.7036,3.7036,3.7036,3.7037-1.6582,3.7037-3.7036-1.6582-3.7039-3.7037-3.7039Z"/><path d="M195.3725,857.8141h.0001c2.0441,0,3.7036,1.6595,3.7036,3.7036v.0002c0,2.0441-1.6595,3.7036-3.7036,3.7036h-.0002c-2.044,0-3.7035-1.6595-3.7035-3.7035v-.0004c0-2.0441,1.6595-3.7036,3.7036-3.7036Z"/><path d="M213.8911,876.3326c-2.0454,0-3.7036,1.6582-3.7036,3.7036s1.6582,3.7039,3.7036,3.7039,3.7037-1.6582,3.7037-3.7039-1.6582-3.7036-3.7037-3.7036Z"/><path d="M195.3728,894.8512h-.0002c-2.0454,0-3.7036,1.6582-3.7036,3.7036s1.6582,3.7039,3.7036,3.7039h.0002c2.0454-.0002,3.7035-1.6584,3.7035-3.7039s-1.6581-3.7036-3.7035-3.7036Z"/><path d="M158.3357,709.6661h-.0001c-2.0455,0-3.7037,1.658-3.7037,3.7036s1.6582,3.7036,3.7037,3.7036h.0001c2.0455,0,3.7036-1.6582,3.7036-3.7036s-1.6581-3.7036-3.7036-3.7036Z"/><path d="M176.854,728.1847c-2.0454,0-3.7036,1.6582-3.7036,3.7036s1.6582,3.7036,3.7036,3.7036,3.7039-1.6582,3.7039-3.7036-1.6582-3.7036-3.7039-3.7036Z"/><path d="M158.3357,746.703h-.0001c-2.0455,0-3.7037,1.6582-3.7037,3.7039s1.6582,3.7036,3.7037,3.7036h.0001c2.0455,0,3.7036-1.6582,3.7036-3.7036s-1.6581-3.7036-3.7036-3.7039Z"/><path d="M176.854,765.2215c-2.0454,0-3.7036,1.6582-3.7036,3.7039s1.6582,3.7036,3.7036,3.7036,3.7039-1.6582,3.7039-3.7036-1.6582-3.7039-3.7039-3.7039Z"/><path d="M158.3357,783.7401h-.0001c-2.0455,0-3.7037,1.6582-3.7037,3.7036s1.6582,3.7039,3.7037,3.7039h.0001c2.0455-.0002,3.7036-1.6582,3.7036-3.7039s-1.6581-3.7034-3.7036-3.7036Z"/><path d="M176.854,802.2586c-2.0454,0-3.7036,1.6582-3.7036,3.7036s1.6582,3.7039,3.7036,3.7039,3.7039-1.6582,3.7039-3.7039-1.6582-3.7036-3.7039-3.7036Z"/><path d="M158.3357,820.7772h-.0001c-2.0455,0-3.7037,1.6582-3.7037,3.7036s1.6582,3.7039,3.7037,3.7039h.0001c2.0455-.0002,3.7036-1.6584,3.7036-3.7039s-1.6581-3.7036-3.7036-3.7036Z"/><path d="M176.854,839.2955c-2.0454,0-3.7036,1.6582-3.7036,3.7039s1.6582,3.7036,3.7036,3.7036,3.7039-1.6582,3.7039-3.7036-1.6582-3.7039-3.7039-3.7039Z"/><rect x="154.6318" y="857.8141" width="7.4075" height="7.4075" rx="3.7036" ry="3.7036"/><path d="M176.854,876.3326c-2.0454,0-3.7036,1.6582-3.7036,3.7036s1.6582,3.7039,3.7036,3.7039,3.7039-1.6582,3.7039-3.7039-1.6582-3.7036-3.7039-3.7036Z"/><path d="M121.2987,709.6661h-.0001c-2.0455,0-3.7037,1.658-3.7037,3.7036s1.6582,3.7036,3.7037,3.7036h.0001c2.0455,0,3.7035-1.6582,3.7035-3.7036s-1.658-3.7036-3.7035-3.7036Z"/><path d="M139.8171,728.1847c-2.0457,0-3.7039,1.6582-3.7039,3.7036s1.6582,3.7036,3.7039,3.7036,3.7036-1.6582,3.7036-3.7036-1.6582-3.7036-3.7036-3.7036Z"/><path d="M121.2987,746.703h-.0001c-2.0455,0-3.7037,1.6582-3.7037,3.7039s1.6582,3.7036,3.7037,3.7036h.0001c2.0455,0,3.7035-1.6582,3.7035-3.7036s-1.658-3.7036-3.7035-3.7039Z"/><path d="M139.8171,765.2215c-2.0457,0-3.7039,1.6582-3.7039,3.7039s1.6582,3.7036,3.7039,3.7036,3.7036-1.6582,3.7036-3.7036-1.6582-3.7039-3.7036-3.7039Z"/><path d="M121.2987,783.7401h-.0001c-2.0455,0-3.7037,1.6582-3.7037,3.7036s1.6582,3.7039,3.7037,3.7039h.0001c2.0455-.0002,3.7035-1.6582,3.7035-3.7039s-1.658-3.7034-3.7035-3.7036Z"/><path d="M139.8171,802.2586c-2.0457,0-3.7039,1.6582-3.7039,3.7036s1.6582,3.7039,3.7039,3.7039,3.7036-1.6582,3.7036-3.7039-1.6582-3.7036-3.7036-3.7036Z"/><path d="M121.2987,820.7772h-.0001c-2.0455,0-3.7037,1.6582-3.7037,3.7036s1.6582,3.7039,3.7037,3.7039h.0001c2.0455-.0002,3.7035-1.6584,3.7035-3.7039s-1.658-3.7036-3.7035-3.7036Z"/><path d="M139.8171,839.2955c-2.0457,0-3.7039,1.6582-3.7039,3.7039s1.6582,3.7036,3.7039,3.7036,3.7036-1.6582,3.7036-3.7036-1.6582-3.7039-3.7036-3.7039Z"/><path d="M121.2983,857.8141h.0001c2.0441,0,3.7037,1.6596,3.7037,3.7037h0c0,2.0442-1.6596,3.7037-3.7037,3.7037h-.0001c-2.044,0-3.7035-1.6595-3.7035-3.7035v-.0005c0-2.044,1.6595-3.7035,3.7035-3.7035Z"/><path d="M139.8171,876.3326c-2.0457,0-3.7039,1.6582-3.7039,3.7036s1.6582,3.7039,3.7039,3.7039,3.7036-1.6582,3.7036-3.7039-1.6582-3.7036-3.7036-3.7036Z"/><path d="M84.2617,672.629h-.0002c-2.0454,0-3.7036,1.6582-3.7036,3.7036s1.6582,3.7036,3.7036,3.7036h.0002c2.0454,0,3.7035-1.6582,3.7035-3.7036s-1.6581-3.7036-3.7035-3.7036Z"/><path d="M102.78,691.1476c-2.0455,0-3.7037,1.6582-3.7037,3.7036s1.6582,3.7036,3.7037,3.7036,3.7036-1.6582,3.7036-3.7036-1.6582-3.7036-3.7036-3.7036Z"/><path d="M84.2617,709.6661h-.0002c-2.0454,0-3.7036,1.658-3.7036,3.7036s1.6582,3.7036,3.7036,3.7036h.0002c2.0454,0,3.7035-1.6582,3.7035-3.7036s-1.6581-3.7036-3.7035-3.7036Z"/><path d="M102.78,728.1847c-2.0455,0-3.7037,1.6582-3.7037,3.7036s1.6582,3.7036,3.7037,3.7036,3.7036-1.6582,3.7036-3.7036-1.6582-3.7036-3.7036-3.7036Z"/><path d="M84.2617,746.703h-.0002c-2.0454,0-3.7036,1.6582-3.7036,3.7039s1.6582,3.7036,3.7036,3.7036h.0002c2.0454,0,3.7035-1.6582,3.7035-3.7036s-1.6581-3.7036-3.7035-3.7039Z"/><path d="M102.78,765.2215c-2.0455,0-3.7037,1.6582-3.7037,3.7039s1.6582,3.7036,3.7037,3.7036,3.7036-1.6582,3.7036-3.7036-1.6582-3.7039-3.7036-3.7039Z"/><path d="M84.2617,783.7401h-.0002c-2.0454,0-3.7036,1.6582-3.7036,3.7036s1.6582,3.7039,3.7036,3.7039h.0002c2.0454-.0002,3.7035-1.6582,3.7035-3.7039s-1.6581-3.7034-3.7035-3.7036Z"/><path d="M102.78,802.2586c-2.0455,0-3.7037,1.6582-3.7037,3.7036s1.6582,3.7039,3.7037,3.7039,3.7036-1.6582,3.7036-3.7039-1.6582-3.7036-3.7036-3.7036Z"/><path d="M84.2617,820.7772h-.0002c-2.0454,0-3.7036,1.6582-3.7036,3.7036s1.6582,3.7039,3.7036,3.7039h.0002c2.0454-.0002,3.7035-1.6584,3.7035-3.7039s-1.6581-3.7036-3.7035-3.7036Z"/><path d="M102.78,839.2955c-2.0455,0-3.7037,1.6582-3.7037,3.7039s1.6582,3.7036,3.7037,3.7036,3.7036-1.6582,3.7036-3.7036-1.6582-3.7039-3.7036-3.7039Z"/><path d="M65.7429,691.1476c-2.0454,0-3.7036,1.6582-3.7036,3.7036s1.6582,3.7036,3.7036,3.7036,3.7037-1.6582,3.7037-3.7036-1.6582-3.7036-3.7037-3.7036Z"/><path d="M65.7429,728.1847c-2.0454,0-3.7036,1.6582-3.7036,3.7036s1.6582,3.7036,3.7036,3.7036,3.7037-1.6582,3.7037-3.7036-1.6582-3.7036-3.7037-3.7036Z"/><path d="M47.2246,746.703h-.0001c-2.0455,0-3.7037,1.6582-3.7037,3.7039s1.6582,3.7036,3.7037,3.7036h.0001c2.0454,0,3.7036-1.6582,3.7036-3.7036s-1.6582-3.7036-3.7036-3.7039Z"/><path d="M65.7429,765.2215c-2.0454,0-3.7036,1.6582-3.7036,3.7039s1.6582,3.7036,3.7036,3.7036,3.7037-1.6582,3.7037-3.7036-1.6582-3.7039-3.7037-3.7039Z"/><path d="M65.7429,802.2586c-2.0454,0-3.7036,1.6582-3.7036,3.7036s1.6582,3.7039,3.7036,3.7039,3.7037-1.6582,3.7037-3.7039-1.6582-3.7036-3.7037-3.7036Z"/><path d="M713.0967,858.7335c-47.6689,24.0957-99.1162,36.3125-152.9121,36.3125-90.665,0-175.9033-35.3066-240.0127-99.417-34.1954-34.1948-60.1902-74.4033-77.0096-118.2378,21.493-18.814,35.0697-46.4482,35.0697-77.2568,0-39.2427-22.0259-73.3364-54.3867-90.6064,7.3206-54.2031,27.5806-105.5161,59.6633-150.5591l13.5237,84.5996c.1963,1.2295,1.2588,2.1055,2.4658,2.1055,.1309,0,.2637-.0098,.3975-.0312,1.3633-.2178,2.292-1.5,2.0742-2.8633l-14.9639-93.6064c-.1133-.7109-.5283-1.3379-1.1377-1.7217-.6084-.3818-1.3555-.4834-2.0439-.2803l-88.8916,26.4629c-1.3242,.3945-2.0771,1.7861-1.6836,3.1094,.3945,1.3232,1.79,2.0752,3.1094,1.6836l85.2854-25.3901c-.0834,.0854-.1682,.1694-.2405,.269-5.6852,7.8208-11.0046,15.8369-15.9746,24.0215-27.084,36.8257-46.8187,79.3813-57.079,125.5068-10.2877-3.4619-21.3036-5.3403-32.7585-5.3403-56.6874,0-102.6409,45.9536-102.6409,102.6406,0,12.8945,2.3844,25.23,6.7251,36.5991-26.2013,29.0596-42.1754,67.5112-42.1754,109.627,0,90.3643,73.5166,163.881,163.8809,163.881,52.5566,0,101.2645-25.0499,131.9131-66.6281,56.342,42.7617,126.5897,68.1534,202.7767,68.1534,54.3275,0,105.629-12.924,151.0289-35.8365,9.5514-3.8008,18.9733-8.0435,28.2529-12.7339,1.2324-.623,1.7266-2.127,1.1035-3.3594-.623-1.2314-2.1279-1.7256-3.3594-1.1035Zm-384.636-17.0283c-.5264-1.4048-1.8701-2.4097-3.4585-2.4097-2.0454,0-3.7036,1.6582-3.7036,3.7039,0,1.9031,1.4407,3.4526,3.2877,3.6616-4.4943,5.5225-9.3275,10.7117-14.4675,15.5388,.0414-.2217,.0687-.4482,.0687-.6819v-.0002c0-2.0454-1.6582-3.7034-3.7036-3.7036h-.0002c-2.0454,0-3.7036,1.6582-3.7036,3.7036v.0002c0,2.0454,1.6582,3.7036,3.7036,3.7036h.0002c.1267,0,.2463-.0249,.3698-.0374-5.0858,4.5166-10.4493,8.687-16.0485,12.5012-.6792-.8196-1.6921-1.3528-2.84-1.3528-2.0455,0-3.7037,1.6582-3.7037,3.7036,0,.5916,.1411,1.1492,.3879,1.645-15.4763,9.5271-32.5715,16.397-50.5955,20.1763,1.2162-.6074,2.0593-1.8511,2.0593-3.3027,0-2.0454-1.6581-3.7036-3.7035-3.7036h-.0001c-2.0455,0-3.7037,1.6582-3.7037,3.7036,0,1.9526,1.5156,3.5349,3.4318,3.6765-10.0176,1.9722-20.3064,3.0101-30.7568,3.0101-13.7189,0-27.0369-1.7487-39.7437-5.0333,.2515-.4983,.4021-1.0562,.4021-1.6533,0-2.0454-1.6581-3.7036-3.7036-3.7036h-.0001c-1.934,0-3.5034,1.4875-3.6709,3.3779-50.8688-15.6797-90.9137-56.2676-105.8398-107.4587,1.2406-.5984,2.1034-1.8569,2.1034-3.3267,0-2.0454-1.6582-3.7034-3.7036-3.7036h-.0001c-.0908,0-.176,.0203-.2653,.0266-2.9071-12.0005-4.4592-24.5247-4.4592-37.4062,0-10.1948,.9709-20.1665,2.8153-29.832,.5591,.3389,1.2078,.5449,1.9092,.5449h.0001c2.0454,0,3.7036-1.6582,3.7036-3.7036s-1.6582-3.7036-3.7036-3.7036h-.0001c-.1554,0-.3033,.0271-.4537,.0459,4.1442-17.4795,11.1838-33.8501,20.583-48.5771,1.1903-.5789,2.0189-1.7683,2.0774-3.1667,3.7592-5.5925,7.8606-10.9368,12.2802-15.9968,.066,.0635,.1426,.1147,.2133,.1731,10.6697,23.7529,30.1084,42.7039,54.1931,52.7502,.0239,2.0249,1.6687,3.6602,3.6995,3.6602,1.0873,0,2.0555-.4771,2.7332-1.2231,10.3689,3.5242,21.4797,5.4438,33.0409,5.4438,12.317,0,24.1238-2.176,35.0651-6.1555,.6292,1.1475,1.8337,1.9348,3.2349,1.9348,2.0455,0,3.7037-1.6582,3.7037-3.7036,0-.344-.062-.6704-.1498-.9866,1.1897-.532,2.3718-1.0779,3.537-1.6536,2.4637,6.679,5.1444,13.2522,8.0129,19.7236-.1857,.4414-.2891,.926-.2891,1.4351,0,1.6299,1.0597,2.998,2.5223,3.4932,14.5278,31.3921,33.7567,60.1606,56.791,85.4011-.0184-.0002-.0355-.0054-.0541-.0054-2.0455,0-3.7037,1.6582-3.7037,3.7036s1.6582,3.7039,3.7037,3.7039c1.9711,0,3.567-1.5439,3.6818-3.4863,4.7297,5.021,9.6136,9.895,14.642,14.6172-1.953,.1033-3.5089,1.7051-3.5089,3.6838,0,2.0457,1.6582,3.7039,3.7036,3.7039h.0002c2.0454-.0002,3.7036-1.6584,3.7036-3.7039,0-.031-.0084-.0598-.0092-.0908,6.1779,5.6221,12.559,11.0249,19.1448,16.179-.2823,.3835-.577,.7556-.8624,1.1362Z"/><path d="M272.667,269.9796c29.6768,0,53.8203-24.1436,53.8203-53.8203s-24.1436-53.8203-53.8203-53.8203-53.8203,24.1436-53.8203,53.8203,24.1436,53.8203,53.8203,53.8203Zm0-102.6406c26.9199,0,48.8203,21.9004,48.8203,48.8203s-21.9004,48.8203-48.8203,48.8203-48.8203-21.9004-48.8203-48.8203,21.9004-48.8203,48.8203-48.8203Z"/><path d="M362.3232,913.5949c-20.8125,0-37.7441,16.9316-37.7441,37.7441s16.9316,37.7441,37.7441,37.7441,37.7441-16.9316,37.7441-37.7441-16.9316-37.7441-37.7441-37.7441Zm0,70.4883c-18.0557,0-32.7441-14.6885-32.7441-32.7441s14.6885-32.7441,32.7441-32.7441,32.7441,14.6885,32.7441,32.7441-14.6885,32.7441-32.7441,32.7441Z"/><circle cx="968.2751" cy="797.9963" r="53.7938"/><path d="M1040,411.2384c0-56.9072-37.781-104.9824-89.6255-120.5322,1.0929-7.939,1.6714-16.0044,1.6714-24.1602,0-96.8428-78.7871-175.6299-175.6289-175.6299-38.6943,0-75.3906,12.3389-106.1221,35.6826-29.0905,22.0967-50.9138,53.2642-61.666,87.9688-15.916-2.2271-32.0901-3.3809-48.4434-3.3809-39.6797,0-78.5781,6.6895-115.6133,19.8838-35.7949,12.752-69.0762,31.2793-98.9189,55.0693-1.0791,.8613-1.2568,2.4336-.3965,3.5137,.8604,1.0781,2.4307,1.2568,3.5137,.3965,29.4092-23.4443,62.207-41.7031,97.4795-54.2695,36.4951-13.001,74.8291-19.5938,113.9355-19.5938,16.4521,0,32.7219,1.1782,48.7229,3.4644,.3116,.2139,.6672,.3618,1.0496,.4175,55.8809,8.1377,109.3369,30.4434,154.5879,64.5068,2.397,1.8042,4.7639,3.6465,7.1106,5.5127,.6973,.5576,1.3967,1.1113,2.0903,1.6748,.7308,.5908,1.4595,1.1846,2.1853,1.7812,8.3795,6.9233,16.4814,14.2749,24.2661,22.0596,5.4871,5.4873,10.7468,11.1401,15.8079,16.9268-17.3027,21.5527-27.6616,48.9185-27.6616,78.708,0,64.3735,48.3435,117.4487,110.7043,124.9199,.3625,6.4556,.5664,12.9404,.5664,19.458,0,100.4004-43.7742,194.5117-120.3235,259.2412l11.5315-87.6416c.1807-1.3691-.7832-2.625-2.1523-2.8047-1.3691-.1807-2.625,.7842-2.8047,2.1523l-12.3127,93.5781c-.249,.7773-.1157,1.6606,.4387,2.3408,.4941,.6074,1.2139,.9219,1.9404,.9219,.1213,0,.2424-.0127,.363-.0303h92.4299c1.3809,0,2.5-1.1191,2.5-2.5s-1.1191-2.5-2.5-2.5h-85.8516c77.4573-65.6733,121.7412-161.0337,121.7412-262.7578,0-6.3467-.1875-12.6641-.5264-18.9526,3.3269,.2637,6.6887,.4023,10.0835,.4023,69.4927,0,125.8276-56.335,125.8276-125.8276Zm-156.1427-122.1445c.2502-.4988,.4042-1.054,.4042-1.6501,0-2.0454-1.6582-3.7036-3.7037-3.7036s-3.7037,1.6582-3.7037,3.7036c0,1.2981,.6705,2.4363,1.6813,3.0974-23.254,6.8567-43.71,20.2405-59.2336,38.0435-12.323-14.0181-25.7798-27.0566-40.2336-38.9365-.7527-.6221-1.5122-1.2324-2.2695-1.8472-.6925-.5596-1.3875-1.1162-2.0845-1.6704-6.7131-5.3652-13.6037-10.45-20.6473-15.2676,.3524-.5635,.5651-1.2224,.5651-1.9375v-.0002c0-2.0454-1.6581-3.7034-3.7036-3.7036h-.0002c-1.2332,0-2.3179,.6091-2.9911,1.5359-21.2398-13.8674-43.8526-25.2617-67.4774-34.0488,.0604-.2642,.0981-.5374,.0981-.8203,0-2.0454-1.6581-3.7036-3.7036-3.7036h-.0002c-1.4424,0-2.6786,.833-3.2902,2.0366-16.5538-5.7539-33.5818-10.2317-50.9622-13.396,1.4001-.5286,2.4006-1.8706,2.4006-3.4556,0-2.0454-1.6582-3.7036-3.7037-3.7036s-3.7037,1.6582-3.7037,3.7036c0,1.1206,.5083,2.1128,1.2948,2.792-1.7491-.2986-3.5013-.5859-5.2573-.8579,8.6246-27.3816,24.3555-52.4612,45.1906-72.3535,1.5707-.2085,2.8341-1.3855,3.1425-2.9224,3.6437-3.3076,7.428-6.4656,11.3539-9.4478,16.8572-12.8052,35.5636-22.1995,55.4236-27.9539,.1871,1.8701,1.7471,3.3359,3.6667,3.3359,2.0455,0,3.7037-1.6582,3.7037-3.7036,0-.5388-.1251-1.0442-.3331-1.5037,13.1523-3.2007,26.7616-4.8389,40.6368-4.8389,10.2369,0,20.2654,.908,30.011,2.6443-2.019,.0305-3.6479,1.6716-3.6479,3.6982,0,2.0454,1.6582,3.7036,3.7037,3.7036s3.7037-1.6582,3.7037-3.7036c0-1.5398-.9402-2.8586-2.2773-3.4175,18.5504,3.4758,36.0503,9.9624,51.9758,18.9329-.9355,.6721-1.5504,1.7632-1.5504,3.0029v.0002c0,2.0454,1.6582,3.7036,3.7037,3.7036h.0001c1.9008-.0002,3.4491-1.4375,3.661-3.2815,21.3085,13.1377,39.5204,30.8271,53.2791,51.7031-.4284-.1731-.8942-.2734-1.3846-.2734-2.0455,0-3.7037,1.6582-3.7037,3.7036s1.6582,3.7036,3.7037,3.7036c1.9905,0,3.6017-1.5737,3.6875-3.5432,16.3177,26.155,25.7635,57.0193,25.7635,90.053,0,7.6934-.5291,15.3047-1.531,22.8008-7.9642-2.0422-16.2365-3.3103-24.7277-3.7505-.641-1.1047-1.8232-1.8562-3.1923-1.8562-1.2959,0-2.4327,.668-3.0945,1.6758-.1097-.0002-.2183-.0051-.328-.0051-10.4526,0-20.605,1.2808-30.3151,3.6831Z"/><path d="M489.6953,659.5196c.8027,0,1.5918-.3857,2.0742-1.1025l143.4492-212.7012c.7725-1.1445,.4707-2.6982-.6748-3.4697-1.1445-.7725-2.6982-.4727-3.4697,.6748l-143.4492,212.7012c-.7725,1.1445-.4707,2.6982,.6748,3.4697,.4287,.2891,.9141,.4277,1.3955,.4277Z"/><path d="M669.9492,470.1886c-1.0791-.8633-2.6523-.6826-3.5137,.3955-.8604,1.0791-.6836,2.6523,.3965,3.5127l95.2236,75.9385-95.208,74.7197c-1.0869,.8525-1.2764,2.4238-.4238,3.5098,.4932,.6289,1.2275,.957,1.9688,.957,.54,0,1.084-.1738,1.541-.5332l97.6943-76.6709c.6016-.4717,.9541-1.1924,.957-1.957s-.3438-1.4883-.9414-1.9648l-97.6943-77.9072Z"/><path d="M459.1514,471.4923c-.8613-1.0791-2.4346-1.2578-3.5137-.3955l-97.6943,77.9072c-.5977,.4766-.9443,1.2002-.9414,1.9648s.3555,1.4854,.957,1.957l97.6943,76.6709c.457,.3594,1.001,.5332,1.541,.5332,.7412,0,1.4756-.3281,1.9688-.957,.8525-1.0859,.6631-2.6572-.4238-3.5098l-95.208-74.7197,95.2236-75.9385c1.0801-.8604,1.2568-2.4336,.3965-3.5127Z"/></svg>