<svg width="67" height="101" viewBox="0 0 67 101" fill="none" xmlns="http://www.w3.org/2000/svg">
<path d="M27.1378 43.6179C27.1378 43.6179 17.0187 43.7097 12.9528 50.3463C8.88681 56.983 10.8739 70.1645 10.8739 70.1645L21.8796 67.5955L24.0807 99.5248L52.2062 100.136L53.9181 65.6381L65.046 67.3508C65.046 67.3508 68.3172 56.5548 64.5569 50.7133C60.7966 44.8718 48.5247 43.2852 48.5247 43.2852C48.5247 43.2852 47.2829 45.5349 43.492 46.8194C39.7012 48.1039 38.6807 48.5419 34.7676 47.4409C30.8545 46.3398 27.1378 43.6179 27.1378 43.6179Z" fill="#261A4C"/>
<path fill-rule="evenodd" clip-rule="evenodd" d="M27.3607 43.6186C27.3607 43.6186 30.487 42.8281 31.7196 40.5126C32.9523 38.196 32.2913 34.3545 32.2913 34.3545L43.4524 33.865C43.4524 33.865 43.2199 39.0098 44.3826 41.2591C45.5454 43.5085 48.5679 43.9087 48.5679 43.9087C48.5679 43.9087 43.5433 48.6044 38.2415 48.5322C32.9397 48.4599 27.3607 43.6186 27.3607 43.6186Z" fill="#EDA672"/>
<path fill-rule="evenodd" clip-rule="evenodd" d="M0.767456 38.0331L13.7855 36.4202L0.767456 38.0331Z" fill="#FFB37C"/>
<path fill-rule="evenodd" clip-rule="evenodd" d="M28.1316 17.6081C28.1316 17.6081 31.6718 18.8478 34.3722 18.1711C37.0727 17.4943 36.8441 15.1189 39.3829 14.2757C41.9219 13.4325 44.0704 13.8266 44.0704 13.8266C44.0704 13.8266 44.7726 17.7183 45.4875 20.2295C46.2022 22.7395 47.4168 23.2584 47.4814 26.5761C47.5461 29.8938 47.4954 30.8802 45.7462 33.4991C44.8313 34.8697 39.6739 38.1458 36.0993 37.622C32.8386 37.1435 31.1368 32.9887 30.3555 31.634C28.7173 28.7948 28.5166 28.0324 28.141 24.5091C27.9867 23.0601 27.9575 21.6368 27.9769 20.4632C28.0046 18.7793 28.1316 17.6081 28.1316 17.6081Z" fill="#FFB37C"/>
<path fill-rule="evenodd" clip-rule="evenodd" d="M27.9828 24.3781C27.9828 24.3781 28.4634 23.3966 28.3962 21.8693C28.3466 20.7385 27.5736 19.0888 28.2869 18.4647C29.965 16.9961 32.0243 19.4866 34.6953 18.5038C37.3663 17.5211 36.4942 15.6426 38.9711 14.5339C41.4479 13.4239 44.1945 14.298 44.1945 14.298C44.1945 14.298 45.3722 22.0565 46.8769 22.5656C48.3816 23.0759 50.6216 16.104 50.6216 16.104L47.3307 15.1849C47.3307 15.1849 47.9282 12.1303 47.0009 11.002C46.0735 9.87488 44.8204 12.3555 43.6212 10.6728C42.4221 8.99008 44.6567 4.79737 42.2042 4.26991C39.7517 3.74246 37.4091 7.38202 33.811 8.56298C30.2128 9.74271 30.2906 8.28273 27.8117 8.99253C25.3327 9.70233 24.8553 9.65827 23.8951 11.4022C22.9351 13.1473 23.8066 14.2634 23.9712 15.973C24.1358 17.6827 24.5536 18.242 24.5536 18.242C24.5536 18.242 23.1975 18.8979 23.3497 20.1009C23.5018 21.3027 24.0038 21.9819 25.1621 23.0502C26.3204 24.1198 27.9828 24.3781 27.9828 24.3781Z" fill="#FCDF87"/>
<path fill-rule="evenodd" clip-rule="evenodd" d="M28.8568 37.1973C28.5875 37.5809 30.1131 39.4606 30.1131 39.4606L31.1899 37.9253C31.1899 37.9253 29.126 36.8126 28.8568 37.1973Z" fill="black"/>
<path fill-rule="evenodd" clip-rule="evenodd" d="M30.182 39.4826C30.182 39.4826 42.8923 50.0614 44.1651 50.2629C45.4379 50.4632 45.7937 49.1343 45.3072 48.2915C44.8206 47.4488 31.1484 37.8655 31.1484 37.8655L30.182 39.4826Z" fill="#F46162"/>
<path fill-rule="evenodd" clip-rule="evenodd" d="M53.2543 65.4905L64.3658 65.3696C64.3658 65.3696 69.8508 81.4355 61.1609 84.5222C52.471 87.6088 27.5896 79.0693 27.5896 79.0693L30.469 71.6664C30.469 71.6664 43.3189 74.3394 48.9581 75.1031C54.5973 75.8668 51.9164 77.0124 53.0257 74.7212C54.135 72.4301 53.2543 65.4905 53.2543 65.4905Z" fill="#FFB37C"/>
<path fill-rule="evenodd" clip-rule="evenodd" d="M12.3571 68.9152L21.6764 66.1426L21.8827 71.7245C21.8827 71.7245 27.8367 60.8368 30.9686 54.9532C34.1007 49.0684 31.7746 45.4639 32.5074 41.4333C33.2401 37.4026 34.675 35.7842 35.3162 35.8147C35.9573 35.8452 35.0719 41.5554 35.0719 41.5554C35.0719 41.5554 39.4265 36.4132 41.5414 34.8461C43.6564 33.2778 43.5318 35.2846 43.5318 35.2846L37.6993 42.1783C37.6993 42.1783 39.1167 40.577 39.9426 40.3828C40.7685 40.1898 41.1253 40.4549 41.003 41.4027C40.8806 42.3518 39.4531 44.1766 39.4531 44.1766C39.4531 44.1766 40.8602 42.4226 41.6148 42.1783C42.3694 41.934 42.6651 42.3005 42.4714 43.1982C42.2776 44.0959 40.8398 45.7681 40.8398 45.7681C40.8398 45.7681 42.3694 44.2792 43.0831 44.2584C43.7969 44.2389 43.69 45.089 42.344 46.9761C40.9981 48.8632 39.3288 49.2332 37.2907 53.0416C35.2526 56.8488 37.1845 54.097 34.1917 62.2072C31.1988 70.3174 25.6061 84.4176 25.6061 84.4176C25.6061 84.4176 20.4287 87.068 16.994 85.2273C13.5592 83.3866 13.1482 80.9621 11.989 76.8838C10.8298 72.8067 12.3571 68.9152 12.3571 68.9152Z" fill="#FFB37C"/>
<path fill-rule="evenodd" clip-rule="evenodd" d="M39.1562 32.0731C39.6157 32.0295 40.4112 31.6602 40.4112 31.6602C40.4427 31.9967 40.3275 32.3392 40.0922 32.6089C39.857 32.8785 39.5219 33.052 39.1643 33.0894C38.4078 33.1463 37.7747 32.6284 37.7284 31.9148C37.7284 31.9148 38.7214 32.1144 39.1562 32.0731Z" fill="#EE906A"/>
<path fill-rule="evenodd" clip-rule="evenodd" d="M37.0682 22.7927L37.9379 28.9994L39.1806 27.4334L37.0682 22.7927Z" fill="#EE906A"/>
<path fill-rule="evenodd" clip-rule="evenodd" d="M33.2372 25.0163C33.2372 24.5601 33.565 24.1897 33.9695 24.1897C34.3738 24.1897 34.5754 25.0163 34.5754 25.0163C34.5754 25.0163 34.3738 25.8416 33.9695 25.8416C33.565 25.8416 33.2372 25.4713 33.2372 25.0163Z" fill="#263238"/>
<path fill-rule="evenodd" clip-rule="evenodd" d="M41.5044 23.7775C41.5044 23.3544 41.8494 23.011 42.275 23.011C42.7005 23.011 43.0454 23.3544 43.0454 23.7775C43.0454 24.1994 42.7005 24.5427 42.275 24.5427C41.8494 24.5427 41.5044 24.1994 41.5044 23.7775Z" fill="#263238"/>
<path fill-rule="evenodd" clip-rule="evenodd" d="M49.549 23.178C49.549 23.1397 49.5925 23.1096 49.6464 23.1096C49.7001 23.1096 49.7438 23.1397 49.7438 23.178C49.7438 23.2162 49.7001 23.2463 49.6464 23.2463C49.5925 23.2463 49.549 23.2162 49.549 23.178Z" fill="#7CC9FF"/>
<path fill-rule="evenodd" clip-rule="evenodd" d="M35.3404 21.575C35.3404 21.575 34.1836 20.9851 33.0424 20.9361C31.9012 20.8858 31.7015 20.7595 30.7757 21.3751C29.8498 21.9908 29.3389 23.3974 29.3389 23.3974L32.3684 22.3501L35.3404 21.575Z" fill="#EE906A"/>
<path fill-rule="evenodd" clip-rule="evenodd" d="M44.7096 20.7226C44.7096 20.7226 43.8868 19.7661 42.8792 19.3086C41.8717 18.8512 41.7385 18.6635 40.6797 18.8941C39.6207 19.1247 38.6436 20.2309 38.6436 20.2309L41.7525 20.3633L44.7096 20.7226Z" fill="#EE906A"/>
</svg>
