<?xml version="1.0" encoding="UTF-8"?><svg id="uuid-736ba678-8546-4414-8c7b-766c7b1f7475" xmlns="http://www.w3.org/2000/svg" viewBox="0 0 1080 1080"><title>Laptop mini illustration - Black</title>
<desc>laptop, computer, workstation, device</desc>
<metadata><?xpacket begin="﻿" id="W5M0MpCehiHzreSzNTczkc9d"?>
<x:xmpmeta xmlns:x="adobe:ns:meta/" x:xmptk="Adobe XMP Core 8.0-c001 1.000000, 0000/00/00-00:00:00        ">
   <rdf:RDF xmlns:rdf="http://www.w3.org/1999/02/22-rdf-syntax-ns#">
      <rdf:Description rdf:about=""
            xmlns:xmp="http://ns.adobe.com/xap/1.0/"
            xmlns:dc="http://purl.org/dc/elements/1.1/"
            xmlns:cq="http://www.day.com/jcr/cq/1.0"
            xmlns:tiff="http://ns.adobe.com/tiff/1.0/">
         <xmp:rhcc-effective-on>2024-01-05T15:47:02.277Z</xmp:rhcc-effective-on>
         <xmp:rhcc-metadata-complete-moderator>pending</xmp:rhcc-metadata-complete-moderator>
         <xmp:rhcc-translation-id>TRA61bbea5a-150f-4aaf-91e8-c3e333c249aa</xmp:rhcc-translation-id>
         <xmp:brand-content-type>Illustration</xmp:brand-content-type>
         <xmp:CreateDate>2024-01-05T15:47:02.277Z</xmp:CreateDate>
         <xmp:rhcc-effective-on-set-on-upload>true</xmp:rhcc-effective-on-set-on-upload>
         <xmp:rhcc-metadata-complete-uploader>pending</xmp:rhcc-metadata-complete-uploader>
         <xmp:rhcc-file-last-modified>2024-01-05T15:47:13.362Z</xmp:rhcc-file-last-modified>
         <xmp:rhcc-audience>rhcc-audience:internal</xmp:rhcc-audience>
         <xmp:rhcc-rights-restricted>no</xmp:rhcc-rights-restricted>
         <xmp:brand-content-subtype>Mini illustration</xmp:brand-content-subtype>
         <xmp:rhcc-derivative-id>DER61bbea5a-150f-4aaf-91e8-c3e333c249aa</xmp:rhcc-derivative-id>
         <xmp:rhcc-notify-portal-subscribers-on-change>yes</xmp:rhcc-notify-portal-subscribers-on-change>
         <xmp:brand-colorway>
            <rdf:Bag>
               <rdf:li>Black</rdf:li>
            </rdf:Bag>
         </xmp:brand-colorway>
         <dc:format>image/svg+xml</dc:format>
         <dc:modified>2024-02-09T18:53:16.693Z</dc:modified>
         <dc:title>
            <rdf:Alt>
               <rdf:li xml:lang="x-default">Laptop mini illustration - Black</rdf:li>
            </rdf:Alt>
         </dc:title>
         <dc:description>
            <rdf:Alt>
               <rdf:li xml:lang="x-default">laptop, computer, workstation, device</rdf:li>
            </rdf:Alt>
         </dc:description>
         <cq:lastReplicationAction_scene7>Activate</cq:lastReplicationAction_scene7>
         <cq:lastReplicationAction_publish>Activate</cq:lastReplicationAction_publish>
         <cq:lastReplicated_publish>2024-02-09T18:57:54.798Z</cq:lastReplicated_publish>
         <cq:lastReplicatedBy>workflow-process-service</cq:lastReplicatedBy>
         <cq:lastReplicationAction>Activate</cq:lastReplicationAction>
         <cq:lastReplicatedBy_publish>workflow-process-service</cq:lastReplicatedBy_publish>
         <cq:isDelivered>true</cq:isDelivered>
         <cq:lastReplicated>2024-02-09T18:57:54.798Z</cq:lastReplicated>
         <cq:lastReplicatedBy_scene7>workflow-process-service</cq:lastReplicatedBy_scene7>
         <cq:lastReplicated_scene7>2024-02-09T18:57:54.798Z</cq:lastReplicated_scene7>
         <tiff:ImageLength>1080</tiff:ImageLength>
         <tiff:ImageWidth>1080</tiff:ImageWidth>
      </rdf:Description>
   </rdf:RDF>
</x:xmpmeta>
                                                                                                    
                                                                                                    
                                                                                                    
                                                                                                    
                                                                                                    
                                                                                                    
                                                                                                    
                                                                                                    
                                                                                                    
                                                                                                    
                             
<?xpacket end="w"?></metadata>
<path d="M886.6381,299.7531h-.0002c-2.0454,0-3.7036,1.6582-3.7036,3.7036s1.6582,3.7036,3.7036,3.7036h.0002c2.0454,0,3.7036-1.6582,3.7036-3.7036s-1.6582-3.7036-3.7036-3.7036Z"/><path d="M905.1564,318.2717c-2.0454,0-3.7036,1.6582-3.7036,3.7036s1.6582,3.7036,3.7036,3.7036,3.7039-1.6582,3.7039-3.7036-1.6582-3.7036-3.7039-3.7036Z"/><path d="M886.6381,336.7902h-.0002c-2.0454,0-3.7036,1.658-3.7036,3.7036s1.6582,3.7036,3.7036,3.7036h.0002c2.0454,0,3.7036-1.6582,3.7036-3.7036s-1.6582-3.7036-3.7036-3.7036Z"/><path d="M905.1564,355.3088c-2.0454,0-3.7036,1.6582-3.7036,3.7036s1.6582,3.7036,3.7036,3.7036,3.7039-1.6582,3.7039-3.7036-1.6582-3.7036-3.7039-3.7036Z"/><path d="M886.6381,373.8271h-.0002c-2.0454,0-3.7036,1.6582-3.7036,3.7039s1.6582,3.7036,3.7036,3.7036h.0002c2.0454,0,3.7036-1.6582,3.7036-3.7036s-1.6582-3.7036-3.7036-3.7039Z"/><path d="M905.1564,392.3457c-2.0454,0-3.7036,1.6582-3.7036,3.7039s1.6582,3.7036,3.7036,3.7036,3.7039-1.6582,3.7039-3.7036-1.6582-3.7039-3.7039-3.7039Z"/><path d="M886.6381,410.8642h-.0002c-2.0454,0-3.7036,1.6582-3.7036,3.7036s1.6582,3.7039,3.7036,3.7039h.0002c2.0454-.0002,3.7036-1.6582,3.7036-3.7039s-1.6582-3.7034-3.7036-3.7036Z"/><path d="M905.1564,429.3828c-2.0454,0-3.7036,1.6582-3.7036,3.7036s1.6582,3.7039,3.7036,3.7039,3.7039-1.6582,3.7039-3.7039-1.6582-3.7036-3.7039-3.7036Z"/><path d="M886.6381,447.9013h-.0002c-2.0454,0-3.7036,1.6582-3.7036,3.7036s1.6582,3.7039,3.7036,3.7039h.0002c2.0454-.0002,3.7036-1.6584,3.7036-3.7039s-1.6582-3.7036-3.7036-3.7036Z"/><path d="M905.1564,466.4196c-2.0454,0-3.7036,1.6582-3.7036,3.7039s1.6582,3.7036,3.7036,3.7036,3.7039-1.6582,3.7039-3.7036-1.6582-3.7039-3.7039-3.7039Z"/><path d="M886.6381,484.9382h-.0002c-2.0454,0-3.7036,1.6582-3.7036,3.7039s1.6582,3.7036,3.7036,3.7036h.0002c2.0454,0,3.7036-1.6582,3.7036-3.7036s-1.6582-3.7036-3.7036-3.7039Z"/><path d="M905.1564,503.4567c-2.0454,0-3.7036,1.6582-3.7036,3.7036s1.6582,3.7039,3.7036,3.7039,3.7039-1.6582,3.7039-3.7039-1.6582-3.7036-3.7039-3.7036Z"/><path d="M886.6381,521.9753h-.0002c-2.0454,0-3.7036,1.6582-3.7036,3.7036s1.6582,3.7039,3.7036,3.7039h.0002c2.0454-.0002,3.7036-1.6584,3.7036-3.7039s-1.6582-3.7036-3.7036-3.7036Z"/><path d="M905.1564,540.4939c-2.0454,0-3.7036,1.6582-3.7036,3.7036s1.6582,3.7039,3.7036,3.7039,3.7039-1.6582,3.7039-3.7039-1.6582-3.7036-3.7039-3.7036Z"/><path d="M886.6381,559.0124h-.0002c-2.0454,0-3.7036,1.6582-3.7036,3.7036s1.6582,3.7036,3.7036,3.7036h.0002c2.0454,0,3.7036-1.6582,3.7036-3.7036s-1.6582-3.7036-3.7036-3.7036Z"/><path d="M905.1564,577.531c-2.0454,0-3.7036,1.6582-3.7036,3.7036s1.6582,3.7036,3.7036,3.7036,3.7039-1.6582,3.7039-3.7036-1.6582-3.7036-3.7039-3.7036Z"/><path d="M886.6381,596.0495h-.0002c-2.0454,0-3.7036,1.658-3.7036,3.7036s1.6582,3.7036,3.7036,3.7036h.0002c2.0454,0,3.7036-1.6582,3.7036-3.7036s-1.6582-3.7036-3.7036-3.7036Z"/><path d="M905.1564,614.5678c-2.0454,0-3.7036,1.6582-3.7036,3.7039s1.6582,3.7036,3.7036,3.7036,3.7039-1.6582,3.7039-3.7036-1.6582-3.7039-3.7039-3.7039Z"/><path d="M886.6381,633.0864h-.0002c-2.0454,0-3.7036,1.6582-3.7036,3.7039s1.6582,3.7036,3.7036,3.7036h.0002c2.0454,0,3.7036-1.6582,3.7036-3.7036s-1.6582-3.7036-3.7036-3.7039Z"/><path d="M905.1564,651.6049c-2.0454,0-3.7036,1.6582-3.7036,3.7039s1.6582,3.7036,3.7036,3.7036,3.7039-1.6582,3.7039-3.7036-1.6582-3.7039-3.7039-3.7039Z"/><path d="M886.6381,670.1235h-.0002c-2.0454,0-3.7036,1.6582-3.7036,3.7036s1.6582,3.7039,3.7036,3.7039h.0002c2.0454-.0002,3.7036-1.6582,3.7036-3.7039s-1.6582-3.7034-3.7036-3.7036Z"/><path d="M905.1564,688.6421c-2.0454,0-3.7036,1.6582-3.7036,3.7036s1.6582,3.7039,3.7036,3.7039,3.7039-1.6582,3.7039-3.7039-1.6582-3.7036-3.7039-3.7036Z"/><path d="M886.6381,707.1604h-.0002c-2.0454,0-3.7036,1.6582-3.7036,3.7039s1.6582,3.7036,3.7036,3.7036h.0002c2.0454,0,3.7036-1.6582,3.7036-3.7036s-1.6582-3.7036-3.7036-3.7039Z"/><path d="M905.1564,725.6789c-2.0454,0-3.7036,1.6582-3.7036,3.7039s1.6582,3.7036,3.7036,3.7036,3.7039-1.6582,3.7039-3.7036-1.6582-3.7039-3.7039-3.7039Z"/><rect x="882.9343" y="744.1975" width="7.4075" height="7.4075" rx="3.7036" ry="3.7036"/><path d="M849.601,299.7531c-2.0457,0-3.7039,1.6582-3.7039,3.7036s1.6582,3.7036,3.7039,3.7036,3.7036-1.6582,3.7036-3.7036-1.6582-3.7036-3.7036-3.7036Z"/><path d="M868.1196,318.2717c-2.0457,0-3.7039,1.6582-3.7039,3.7036s1.6582,3.7036,3.7039,3.7036,3.7036-1.6582,3.7036-3.7036-1.6582-3.7036-3.7036-3.7036Z"/><path d="M849.601,336.7902c-2.0457,0-3.7039,1.658-3.7039,3.7036s1.6582,3.7036,3.7039,3.7036,3.7036-1.6582,3.7036-3.7036-1.6582-3.7036-3.7036-3.7036Z"/><path d="M868.1196,355.3088c-2.0457,0-3.7039,1.6582-3.7039,3.7036s1.6582,3.7036,3.7039,3.7036,3.7036-1.6582,3.7036-3.7036-1.6582-3.7036-3.7036-3.7036Z"/><path d="M849.601,373.8271c-2.0457,0-3.7039,1.6582-3.7039,3.7039s1.6582,3.7036,3.7039,3.7036,3.7036-1.6582,3.7036-3.7036-1.6582-3.7036-3.7036-3.7039Z"/><path d="M868.1196,392.3457c-2.0457,0-3.7039,1.6582-3.7039,3.7039s1.6582,3.7036,3.7039,3.7036,3.7036-1.6582,3.7036-3.7036-1.6582-3.7039-3.7036-3.7039Z"/><path d="M849.601,410.8642c-2.0457,0-3.7039,1.6582-3.7039,3.7036s1.6582,3.7039,3.7039,3.7039c2.0454-.0002,3.7036-1.6582,3.7036-3.7039s-1.6582-3.7034-3.7036-3.7036Z"/><path d="M868.1196,429.3828c-2.0457,0-3.7039,1.6582-3.7039,3.7036s1.6582,3.7039,3.7039,3.7039,3.7036-1.6582,3.7036-3.7039-1.6582-3.7036-3.7036-3.7036Z"/><path d="M849.601,447.9013c-2.0457,0-3.7039,1.6582-3.7039,3.7036s1.6582,3.7039,3.7039,3.7039c2.0454-.0002,3.7036-1.6584,3.7036-3.7039s-1.6582-3.7036-3.7036-3.7036Z"/><path d="M868.1196,466.4196c-2.0457,0-3.7039,1.6582-3.7039,3.7039s1.6582,3.7036,3.7039,3.7036,3.7036-1.6582,3.7036-3.7036-1.6582-3.7039-3.7036-3.7039Z"/><path d="M849.601,484.9382c-2.0457,0-3.7039,1.6582-3.7039,3.7039s1.6582,3.7036,3.7039,3.7036,3.7036-1.6582,3.7036-3.7036-1.6582-3.7036-3.7036-3.7039Z"/><path d="M868.1196,503.4567c-2.0457,0-3.7039,1.6582-3.7039,3.7036s1.6582,3.7039,3.7039,3.7039,3.7036-1.6582,3.7036-3.7039-1.6582-3.7036-3.7036-3.7036Z"/><path d="M849.601,521.9753c-2.0457,0-3.7039,1.6582-3.7039,3.7036s1.6582,3.7039,3.7039,3.7039c2.0454-.0002,3.7036-1.6584,3.7036-3.7039s-1.6582-3.7036-3.7036-3.7036Z"/><path d="M868.1196,540.4939c-2.0457,0-3.7039,1.6582-3.7039,3.7036s1.6582,3.7039,3.7039,3.7039,3.7036-1.6582,3.7036-3.7039-1.6582-3.7036-3.7036-3.7036Z"/><path d="M849.601,559.0124c-2.0457,0-3.7039,1.6582-3.7039,3.7036s1.6582,3.7036,3.7039,3.7036,3.7036-1.6582,3.7036-3.7036-1.6582-3.7036-3.7036-3.7036Z"/><path d="M868.1196,577.531c-2.0457,0-3.7039,1.6582-3.7039,3.7036s1.6582,3.7036,3.7039,3.7036,3.7036-1.6582,3.7036-3.7036-1.6582-3.7036-3.7036-3.7036Z"/><path d="M849.601,596.0495c-2.0457,0-3.7039,1.658-3.7039,3.7036s1.6582,3.7036,3.7039,3.7036,3.7036-1.6582,3.7036-3.7036-1.6582-3.7036-3.7036-3.7036Z"/><path d="M868.1196,614.5678c-2.0457,0-3.7039,1.6582-3.7039,3.7039s1.6582,3.7036,3.7039,3.7036,3.7036-1.6582,3.7036-3.7036-1.6582-3.7039-3.7036-3.7039Z"/><path d="M849.601,633.0864c-2.0457,0-3.7039,1.6582-3.7039,3.7039s1.6582,3.7036,3.7039,3.7036,3.7036-1.6582,3.7036-3.7036-1.6582-3.7036-3.7036-3.7039Z"/><path d="M868.1196,651.6049c-2.0457,0-3.7039,1.6582-3.7039,3.7039s1.6582,3.7036,3.7039,3.7036,3.7036-1.6582,3.7036-3.7036-1.6582-3.7039-3.7036-3.7039Z"/><path d="M849.601,670.1235c-2.0457,0-3.7039,1.6582-3.7039,3.7036s1.6582,3.7039,3.7039,3.7039c2.0454-.0002,3.7036-1.6582,3.7036-3.7039s-1.6582-3.7034-3.7036-3.7036Z"/><path d="M868.1196,688.6421c-2.0457,0-3.7039,1.6582-3.7039,3.7036s1.6582,3.7039,3.7039,3.7039,3.7036-1.6582,3.7036-3.7039-1.6582-3.7036-3.7036-3.7036Z"/><path d="M849.601,707.1604c-2.0457,0-3.7039,1.6582-3.7039,3.7039s1.6582,3.7036,3.7039,3.7036,3.7036-1.6582,3.7036-3.7036-1.6582-3.7036-3.7036-3.7039Z"/><path d="M868.1196,725.6789c-2.0457,0-3.7039,1.6582-3.7039,3.7039s1.6582,3.7036,3.7039,3.7036,3.7036-1.6582,3.7036-3.7036-1.6582-3.7039-3.7036-3.7039Z"/><path d="M849.601,744.1975c-2.0457,0-3.7039,1.6582-3.7039,3.7036v.0002c0,2.0454,1.6582,3.7036,3.7039,3.7036,2.0454-.0002,3.7036-1.6582,3.7036-3.7036v-.0002c0-2.0454-1.6582-3.7034-3.7036-3.7036Z"/><circle cx="812.5639" cy="303.4567" r="3.7036"/><circle cx="831.0824" cy="321.9753" r="3.7036"/><circle cx="812.5639" cy="340.4939" r="3.7036"/><circle cx="831.0824" cy="359.0124" r="3.7036"/><path d="M812.5639,373.8271c-2.0454,0-3.7036,1.6582-3.7036,3.7039s1.6582,3.7036,3.7036,3.7036,3.7036-1.6582,3.7036-3.7036-1.6582-3.7036-3.7036-3.7039Z"/><path d="M831.0824,392.3457c-2.0454,0-3.7036,1.6582-3.7036,3.7039s1.6582,3.7036,3.7036,3.7036,3.7036-1.6582,3.7036-3.7036-1.6582-3.7039-3.7036-3.7039Z"/><path d="M812.5639,410.8642c-2.0454,0-3.7036,1.6582-3.7036,3.7036s1.6582,3.7039,3.7036,3.7039c2.0454-.0002,3.7036-1.6582,3.7036-3.7039s-1.6582-3.7034-3.7036-3.7036Z"/><path d="M831.0824,429.3828c-2.0454,0-3.7036,1.6582-3.7036,3.7036s1.6582,3.7039,3.7036,3.7039,3.7036-1.6582,3.7036-3.7039-1.6582-3.7036-3.7036-3.7036Z"/><path d="M812.5639,447.9013c-2.0454,0-3.7036,1.6582-3.7036,3.7036s1.6582,3.7039,3.7036,3.7039c2.0454-.0002,3.7036-1.6584,3.7036-3.7039s-1.6582-3.7036-3.7036-3.7036Z"/><path d="M831.0824,466.4196c-2.0454,0-3.7036,1.6582-3.7036,3.7039s1.6582,3.7036,3.7036,3.7036,3.7036-1.6582,3.7036-3.7036-1.6582-3.7039-3.7036-3.7039Z"/><path d="M812.5639,484.9382c-2.0454,0-3.7036,1.6582-3.7036,3.7039s1.6582,3.7036,3.7036,3.7036,3.7036-1.6582,3.7036-3.7036-1.6582-3.7036-3.7036-3.7039Z"/><path d="M831.0824,503.4567c-2.0454,0-3.7036,1.6582-3.7036,3.7036s1.6582,3.7039,3.7036,3.7039,3.7036-1.6582,3.7036-3.7039-1.6582-3.7036-3.7036-3.7036Z"/><path d="M812.5639,521.9753c-2.0454,0-3.7036,1.6582-3.7036,3.7036s1.6582,3.7039,3.7036,3.7039c2.0454-.0002,3.7036-1.6584,3.7036-3.7039s-1.6582-3.7036-3.7036-3.7036Z"/><path d="M831.0824,540.4939c-2.0454,0-3.7036,1.6582-3.7036,3.7036s1.6582,3.7039,3.7036,3.7039,3.7036-1.6582,3.7036-3.7039-1.6582-3.7036-3.7036-3.7036Z"/><circle cx="812.5639" cy="562.716" r="3.7036"/><circle cx="831.0824" cy="581.2346" r="3.7036"/><circle cx="812.5639" cy="599.7531" r="3.7036"/><path d="M831.0824,614.5678c-2.0454,0-3.7036,1.6582-3.7036,3.7039s1.6582,3.7036,3.7036,3.7036,3.7036-1.6582,3.7036-3.7036-1.6582-3.7039-3.7036-3.7039Z"/><path d="M812.5639,633.0864c-2.0454,0-3.7036,1.6582-3.7036,3.7039s1.6582,3.7036,3.7036,3.7036,3.7036-1.6582,3.7036-3.7036-1.6582-3.7036-3.7036-3.7039Z"/><path d="M831.0824,651.6049c-2.0454,0-3.7036,1.6582-3.7036,3.7039s1.6582,3.7036,3.7036,3.7036,3.7036-1.6582,3.7036-3.7036-1.6582-3.7039-3.7036-3.7039Z"/><path d="M812.5639,670.1235c-2.0454,0-3.7036,1.6582-3.7036,3.7036s1.6582,3.7039,3.7036,3.7039c2.0454-.0002,3.7036-1.6582,3.7036-3.7039s-1.6582-3.7034-3.7036-3.7036Z"/><path d="M831.0824,688.6421c-2.0454,0-3.7036,1.6582-3.7036,3.7036s1.6582,3.7039,3.7036,3.7039,3.7036-1.6582,3.7036-3.7039-1.6582-3.7036-3.7036-3.7036Z"/><path d="M812.5639,707.1604c-2.0454,0-3.7036,1.6582-3.7036,3.7039s1.6582,3.7036,3.7036,3.7036,3.7036-1.6582,3.7036-3.7036-1.6582-3.7036-3.7036-3.7039Z"/><path d="M831.0824,725.6789c-2.0454,0-3.7036,1.6582-3.7036,3.7039s1.6582,3.7036,3.7036,3.7036,3.7036-1.6582,3.7036-3.7036-1.6582-3.7039-3.7036-3.7039Z"/><path d="M812.5639,744.1975c-2.0454,0-3.7036,1.6582-3.7036,3.7036v.0002c0,2.0454,1.6582,3.7036,3.7036,3.7036,2.0454-.0002,3.7036-1.6582,3.7036-3.7036v-.0002c0-2.0454-1.6582-3.7034-3.7036-3.7036Z"/><path d="M775.527,299.7531h-.0002c-.0593,0-.1145,.0146-.1731,.0176-.3342,1.2283-.6624,2.4641-1.0017,3.686-.2874,1.0339-.5872,2.0518-.8782,3.0811,.5879,.3923,1.2932,.6226,2.053,.6226h.0002c2.0454,0,3.7034-1.6582,3.7034-3.7036s-1.658-3.7036-3.7034-3.7036Z"/><circle cx="794.0453" cy="321.9753" r="3.7036"/><path d="M775.527,336.7902h-.0002c-2.0454,0-3.7036,1.658-3.7036,3.7036s1.6582,3.7036,3.7036,3.7036h.0002c2.0454,0,3.7034-1.6582,3.7034-3.7036s-1.658-3.7036-3.7034-3.7036Z"/><circle cx="794.0453" cy="359.0124" r="3.7036"/><path d="M775.527,373.8271h-.0002c-2.0454,0-3.7036,1.6582-3.7036,3.7039s1.6582,3.7036,3.7036,3.7036h.0002c2.0454,0,3.7034-1.6582,3.7034-3.7036s-1.658-3.7036-3.7034-3.7039Z"/><path d="M794.0453,392.3457c-2.0454,0-3.7036,1.6582-3.7036,3.7039s1.6582,3.7036,3.7036,3.7036,3.7036-1.6582,3.7036-3.7036-1.6582-3.7039-3.7036-3.7039Z"/><path d="M775.527,410.8642h-.0002c-2.0454,0-3.7036,1.6582-3.7036,3.7036s1.6582,3.7039,3.7036,3.7039h.0002c2.0454-.0002,3.7034-1.6582,3.7034-3.7039s-1.658-3.7034-3.7034-3.7036Z"/><path d="M794.0453,429.3828c-2.0454,0-3.7036,1.6582-3.7036,3.7036s1.6582,3.7039,3.7036,3.7039,3.7036-1.6582,3.7036-3.7039-1.6582-3.7036-3.7036-3.7036Z"/><path d="M775.527,447.9013h-.0002c-2.0454,0-3.7036,1.6582-3.7036,3.7036s1.6582,3.7039,3.7036,3.7039h.0002c2.0454-.0002,3.7034-1.6584,3.7034-3.7039s-1.658-3.7036-3.7034-3.7036Z"/><path d="M794.0453,466.4196c-2.0454,0-3.7036,1.6582-3.7036,3.7039s1.6582,3.7036,3.7036,3.7036,3.7036-1.6582,3.7036-3.7036-1.6582-3.7039-3.7036-3.7039Z"/><path d="M775.527,484.9382h-.0002c-2.0454,0-3.7036,1.6582-3.7036,3.7039s1.6582,3.7036,3.7036,3.7036h.0002c2.0454,0,3.7034-1.6582,3.7034-3.7036s-1.658-3.7036-3.7034-3.7039Z"/><path d="M794.0453,503.4567c-2.0454,0-3.7036,1.6582-3.7036,3.7036s1.6582,3.7039,3.7036,3.7039,3.7036-1.6582,3.7036-3.7039-1.6582-3.7036-3.7036-3.7036Z"/><path d="M775.527,521.9753h-.0002c-2.0454,0-3.7036,1.6582-3.7036,3.7036s1.6582,3.7039,3.7036,3.7039h.0002c2.0454-.0002,3.7034-1.6584,3.7034-3.7039s-1.658-3.7036-3.7034-3.7036Z"/><path d="M794.0453,540.4939c-2.0454,0-3.7036,1.6582-3.7036,3.7036s1.6582,3.7039,3.7036,3.7039,3.7036-1.6582,3.7036-3.7039-1.6582-3.7036-3.7036-3.7036Z"/><path d="M775.527,559.0124h-.0002c-2.0454,0-3.7036,1.6582-3.7036,3.7036s1.6582,3.7036,3.7036,3.7036h.0002c2.0454,0,3.7034-1.6582,3.7034-3.7036s-1.658-3.7036-3.7034-3.7036Z"/><circle cx="794.0453" cy="581.2346" r="3.7036"/><path d="M775.527,596.0495h-.0002c-2.0454,0-3.7036,1.658-3.7036,3.7036s1.6582,3.7036,3.7036,3.7036h.0002c2.0454,0,3.7034-1.6582,3.7034-3.7036s-1.658-3.7036-3.7034-3.7036Z"/><path d="M794.0453,614.5678c-2.0454,0-3.7036,1.6582-3.7036,3.7039s1.6582,3.7036,3.7036,3.7036,3.7036-1.6582,3.7036-3.7036-1.6582-3.7039-3.7036-3.7039Z"/><path d="M775.527,633.0864h-.0002c-2.0454,0-3.7036,1.6582-3.7036,3.7039s1.6582,3.7036,3.7036,3.7036h.0002c2.0454,0,3.7034-1.6582,3.7034-3.7036s-1.658-3.7036-3.7034-3.7039Z"/><path d="M794.0453,651.6049c-2.0454,0-3.7036,1.6582-3.7036,3.7039s1.6582,3.7036,3.7036,3.7036,3.7036-1.6582,3.7036-3.7036-1.6582-3.7039-3.7036-3.7039Z"/><path d="M775.527,670.1235h-.0002c-2.0454,0-3.7036,1.6582-3.7036,3.7036s1.6582,3.7039,3.7036,3.7039h.0002c2.0454-.0002,3.7034-1.6582,3.7034-3.7039s-1.658-3.7034-3.7034-3.7036Z"/><path d="M794.0453,688.6421c-2.0454,0-3.7036,1.6582-3.7036,3.7036s1.6582,3.7039,3.7036,3.7039,3.7036-1.6582,3.7036-3.7039-1.6582-3.7036-3.7036-3.7036Z"/><path d="M775.527,707.1604h-.0002c-2.0454,0-3.7036,1.6582-3.7036,3.7039s1.6582,3.7036,3.7036,3.7036h.0002c2.0454,0,3.7034-1.6582,3.7034-3.7036s-1.658-3.7036-3.7034-3.7039Z"/><path d="M794.0453,725.6789c-2.0454,0-3.7036,1.6582-3.7036,3.7039s1.6582,3.7036,3.7036,3.7036,3.7036-1.6582,3.7036-3.7036-1.6582-3.7039-3.7036-3.7039Z"/><path d="M775.5265,744.1975h.0002c2.0441,0,3.7036,1.6595,3.7036,3.7036v.0002c0,2.0441-1.6595,3.7036-3.7036,3.7036h-.0002c-2.0439,0-3.7034-1.6594-3.7034-3.7034v-.0007c0-2.0439,1.6594-3.7034,3.7034-3.7034Z"/><path d="M757.6894,355.3774c-.8381,2.2874-1.6904,4.5557-2.5479,6.8169,.55,.3235,1.1826,.5217,1.8667,.5217,2.0457,0,3.7039-1.6582,3.7039-3.7036,0-1.8123-1.3035-3.3147-3.0227-3.635Z"/><path d="M757.0082,392.3457c-2.0454,0-3.7036,1.6582-3.7036,3.7039s1.6582,3.7036,3.7036,3.7036,3.7039-1.6582,3.7039-3.7036-1.6582-3.7039-3.7039-3.7039Z"/><path d="M738.4899,410.8642h-.0002c-2.0454,0-3.7036,1.6582-3.7036,3.7036s1.6582,3.7039,3.7036,3.7039h.0002c2.0457-.0002,3.7036-1.6582,3.7036-3.7039s-1.658-3.7034-3.7036-3.7036Z"/><path d="M757.0082,429.3828c-2.0454,0-3.7036,1.6582-3.7036,3.7036s1.6582,3.7039,3.7036,3.7039,3.7039-1.6582,3.7039-3.7039-1.6582-3.7036-3.7039-3.7036Z"/><path d="M738.4899,447.9013h-.0002c-2.0454,0-3.7036,1.6582-3.7036,3.7036s1.6582,3.7039,3.7036,3.7039h.0002c2.0457-.0002,3.7036-1.6584,3.7036-3.7039s-1.658-3.7036-3.7036-3.7036Z"/><path d="M757.0082,466.4196c-2.0454,0-3.7036,1.6582-3.7036,3.7039s1.6582,3.7036,3.7036,3.7036,3.7039-1.6582,3.7039-3.7036-1.6582-3.7039-3.7039-3.7039Z"/><path d="M738.4899,484.9382h-.0002c-2.0454,0-3.7036,1.6582-3.7036,3.7039s1.6582,3.7036,3.7036,3.7036h.0002c2.0457,0,3.7036-1.6582,3.7036-3.7036s-1.658-3.7036-3.7036-3.7039Z"/><path d="M757.0082,503.4567c-2.0454,0-3.7036,1.6582-3.7036,3.7036s1.6582,3.7039,3.7036,3.7039,3.7039-1.6582,3.7039-3.7039-1.6582-3.7036-3.7039-3.7036Z"/><path d="M738.4899,521.9753h-.0002c-2.0454,0-3.7036,1.6582-3.7036,3.7036s1.6582,3.7039,3.7036,3.7039h.0002c2.0457-.0002,3.7036-1.6584,3.7036-3.7039s-1.658-3.7036-3.7036-3.7036Z"/><path d="M757.0082,540.4939c-2.0454,0-3.7036,1.6582-3.7036,3.7036s1.6582,3.7039,3.7036,3.7039,3.7039-1.6582,3.7039-3.7039-1.6582-3.7036-3.7039-3.7036Z"/><path d="M738.4899,559.0124h-.0002c-2.0454,0-3.7036,1.6582-3.7036,3.7036s1.6582,3.7036,3.7036,3.7036h.0002c2.0457,0,3.7036-1.6582,3.7036-3.7036s-1.658-3.7036-3.7036-3.7036Z"/><path d="M757.0082,577.531c-2.0454,0-3.7036,1.6582-3.7036,3.7036s1.6582,3.7036,3.7036,3.7036,3.7039-1.6582,3.7039-3.7036-1.6582-3.7036-3.7039-3.7036Z"/><path d="M738.4899,596.0495h-.0002c-2.0454,0-3.7036,1.658-3.7036,3.7036s1.6582,3.7036,3.7036,3.7036h.0002c2.0457,0,3.7036-1.6582,3.7036-3.7036s-1.658-3.7036-3.7036-3.7036Z"/><path d="M757.0082,614.5678c-2.0454,0-3.7036,1.6582-3.7036,3.7039s1.6582,3.7036,3.7036,3.7036,3.7039-1.6582,3.7039-3.7036-1.6582-3.7039-3.7039-3.7039Z"/><path d="M738.4899,633.0864h-.0002c-2.0454,0-3.7036,1.6582-3.7036,3.7039s1.6582,3.7036,3.7036,3.7036h.0002c2.0457,0,3.7036-1.6582,3.7036-3.7036s-1.658-3.7036-3.7036-3.7039Z"/><path d="M757.0082,651.6049c-2.0454,0-3.7036,1.6582-3.7036,3.7039s1.6582,3.7036,3.7036,3.7036,3.7039-1.6582,3.7039-3.7036-1.6582-3.7039-3.7039-3.7039Z"/><path d="M738.4899,670.1235h-.0002c-2.0454,0-3.7036,1.6582-3.7036,3.7036s1.6582,3.7039,3.7036,3.7039h.0002c2.0457-.0002,3.7036-1.6582,3.7036-3.7039s-1.658-3.7034-3.7036-3.7036Z"/><path d="M757.0082,688.6421c-2.0454,0-3.7036,1.6582-3.7036,3.7036s1.6582,3.7039,3.7036,3.7039,3.7039-1.6582,3.7039-3.7039-1.6582-3.7036-3.7039-3.7036Z"/><path d="M738.4899,707.1604h-.0002c-2.0454,0-3.7036,1.6582-3.7036,3.7039s1.6582,3.7036,3.7036,3.7036h.0002c2.0457,0,3.7036-1.6582,3.7036-3.7036s-1.658-3.7036-3.7036-3.7039Z"/><path d="M757.0082,725.6789c-2.0454,0-3.7036,1.6582-3.7036,3.7039s1.6582,3.7036,3.7036,3.7036,3.7039-1.6582,3.7039-3.7036-1.6582-3.7039-3.7039-3.7039Z"/><rect x="734.7861" y="744.1975" width="7.4075" height="7.4075" rx="3.7036" ry="3.7036"/><path d="M721.207,436.5629c1.4346-.5105,2.468-1.8667,2.468-3.4766,0-.3188-.053-.6233-.1287-.9185-.7783,1.4673-1.5522,2.9409-2.3394,4.395Z"/><path d="M719.9714,466.4196c-2.0457,0-3.7039,1.6582-3.7039,3.7039s1.6582,3.7036,3.7039,3.7036,3.7036-1.6582,3.7036-3.7036-1.6582-3.7039-3.7036-3.7039Z"/><path d="M701.4531,484.9382h-.0002c-2.0457,0-3.7039,1.6582-3.7039,3.7039s1.6582,3.7036,3.7039,3.7036h.0002c2.0454,0,3.7034-1.6582,3.7034-3.7036s-1.658-3.7036-3.7034-3.7039Z"/><path d="M719.9714,503.4567c-2.0457,0-3.7039,1.6582-3.7039,3.7036s1.6582,3.7039,3.7039,3.7039,3.7036-1.6582,3.7036-3.7039-1.6582-3.7036-3.7036-3.7036Z"/><path d="M701.4531,521.9753h-.0002c-2.0457,0-3.7039,1.6582-3.7039,3.7036s1.6582,3.7039,3.7039,3.7039h.0002c2.0454-.0002,3.7034-1.6584,3.7034-3.7039s-1.658-3.7036-3.7034-3.7036Z"/><path d="M719.9714,540.4939c-2.0457,0-3.7039,1.6582-3.7039,3.7036s1.6582,3.7039,3.7039,3.7039,3.7036-1.6582,3.7036-3.7039-1.6582-3.7036-3.7036-3.7036Z"/><path d="M701.4531,559.0124h-.0002c-2.0457,0-3.7039,1.6582-3.7039,3.7036s1.6582,3.7036,3.7039,3.7036h.0002c2.0454,0,3.7034-1.6582,3.7034-3.7036s-1.658-3.7036-3.7034-3.7036Z"/><path d="M719.9714,577.531c-2.0457,0-3.7039,1.6582-3.7039,3.7036s1.6582,3.7036,3.7039,3.7036,3.7036-1.6582,3.7036-3.7036-1.6582-3.7036-3.7036-3.7036Z"/><path d="M701.4531,596.0495h-.0002c-2.0457,0-3.7039,1.658-3.7039,3.7036s1.6582,3.7036,3.7039,3.7036h.0002c2.0454,0,3.7034-1.6582,3.7034-3.7036s-1.658-3.7036-3.7034-3.7036Z"/><path d="M719.9714,614.5678c-2.0457,0-3.7039,1.6582-3.7039,3.7039s1.6582,3.7036,3.7039,3.7036,3.7036-1.6582,3.7036-3.7036-1.6582-3.7039-3.7036-3.7039Z"/><path d="M701.4531,633.0864h-.0002c-2.0457,0-3.7039,1.6582-3.7039,3.7039s1.6582,3.7036,3.7039,3.7036h.0002c2.0454,0,3.7034-1.6582,3.7034-3.7036s-1.658-3.7036-3.7034-3.7039Z"/><path d="M719.9714,651.6049c-2.0457,0-3.7039,1.6582-3.7039,3.7039s1.6582,3.7036,3.7039,3.7036,3.7036-1.6582,3.7036-3.7036-1.6582-3.7039-3.7036-3.7039Z"/><path d="M701.4531,670.1235h-.0002c-2.0457,0-3.7039,1.6582-3.7039,3.7036s1.6582,3.7039,3.7039,3.7039h.0002c2.0454-.0002,3.7034-1.6582,3.7034-3.7039s-1.658-3.7034-3.7034-3.7036Z"/><path d="M719.9714,688.6421c-2.0457,0-3.7039,1.6582-3.7039,3.7036s1.6582,3.7039,3.7039,3.7039,3.7036-1.6582,3.7036-3.7039-1.6582-3.7036-3.7036-3.7036Z"/><path d="M701.4531,707.1604h-.0002c-2.0457,0-3.7039,1.6582-3.7039,3.7039s1.6582,3.7036,3.7039,3.7036h.0002c2.0454,0,3.7034-1.6582,3.7034-3.7036s-1.658-3.7036-3.7034-3.7039Z"/><path d="M719.9714,725.6789c-2.0457,0-3.7039,1.6582-3.7039,3.7039s1.6582,3.7036,3.7039,3.7036,3.7036-1.6582,3.7036-3.7036-1.6582-3.7039-3.7036-3.7039Z"/><path d="M701.4523,744.1975h.0005c2.0441,0,3.7036,1.6595,3.7036,3.7036h0c0,2.0442-1.6596,3.7039-3.7039,3.7039h-.0002c-2.0439,0-3.7034-1.6594-3.7034-3.7034v-.0007c0-2.0439,1.6594-3.7034,3.7034-3.7034Z"/><path d="M682.9343,503.4567c-2.0457,0-3.7039,1.6582-3.7039,3.7036s1.6582,3.7039,3.7039,3.7039,3.7036-1.6582,3.7036-3.7039-1.6582-3.7036-3.7036-3.7036Z"/><path d="M664.5178,521.9856c-.0339,.042-.0681,.0825-.1018,.1245-.9668,1.2009-1.9448,2.3804-2.918,3.5688-.2278,.2783-.4548,.5581-.6831,.8354,.3801,1.6416,1.8438,2.8684,3.6008,2.8684h.0002c2.0454-.0002,3.7036-1.6584,3.7036-3.7039,0-2.0105-1.6047-3.6382-3.6018-3.6934Z"/><path d="M682.9343,540.4939c-2.0457,0-3.7039,1.6582-3.7039,3.7036s1.6582,3.7039,3.7039,3.7039,3.7036-1.6582,3.7036-3.7039-1.6582-3.7036-3.7036-3.7036Z"/><path d="M664.4159,559.0124h-.0002c-2.0454,0-3.7036,1.6582-3.7036,3.7036s1.6582,3.7036,3.7036,3.7036h.0002c2.0454,0,3.7036-1.6582,3.7036-3.7036s-1.6582-3.7036-3.7036-3.7036Z"/><path d="M682.9343,577.531c-2.0457,0-3.7039,1.6582-3.7039,3.7036s1.6582,3.7036,3.7039,3.7036,3.7036-1.6582,3.7036-3.7036-1.6582-3.7036-3.7036-3.7036Z"/><path d="M664.4159,596.0495h-.0002c-2.0454,0-3.7036,1.658-3.7036,3.7036s1.6582,3.7036,3.7036,3.7036h.0002c2.0454,0,3.7036-1.6582,3.7036-3.7036s-1.6582-3.7036-3.7036-3.7036Z"/><path d="M682.9343,614.5678c-2.0457,0-3.7039,1.6582-3.7039,3.7039s1.6582,3.7036,3.7039,3.7036,3.7036-1.6582,3.7036-3.7036-1.6582-3.7039-3.7036-3.7039Z"/><path d="M664.4159,633.0864h-.0002c-2.0454,0-3.7036,1.6582-3.7036,3.7039s1.6582,3.7036,3.7036,3.7036h.0002c2.0454,0,3.7036-1.6582,3.7036-3.7036s-1.6582-3.7036-3.7036-3.7039Z"/><path d="M682.9343,651.6049c-2.0457,0-3.7039,1.6582-3.7039,3.7039s1.6582,3.7036,3.7039,3.7036,3.7036-1.6582,3.7036-3.7036-1.6582-3.7039-3.7036-3.7039Z"/><path d="M664.4159,670.1235h-.0002c-2.0454,0-3.7036,1.6582-3.7036,3.7036s1.6582,3.7039,3.7036,3.7039h.0002c2.0454-.0002,3.7036-1.6582,3.7036-3.7039s-1.6582-3.7034-3.7036-3.7036Z"/><path d="M682.9343,688.6421c-2.0457,0-3.7039,1.6582-3.7039,3.7036s1.6582,3.7039,3.7039,3.7039,3.7036-1.6582,3.7036-3.7039-1.6582-3.7036-3.7036-3.7036Z"/><path d="M664.4159,707.1604h-.0002c-2.0454,0-3.7036,1.6582-3.7036,3.7039s1.6582,3.7036,3.7036,3.7036h.0002c2.0454,0,3.7036-1.6582,3.7036-3.7036s-1.6582-3.7036-3.7036-3.7039Z"/><path d="M682.9343,725.6789c-2.0457,0-3.7039,1.6582-3.7039,3.7039s1.6582,3.7036,3.7039,3.7036,3.7036-1.6582,3.7036-3.7036-1.6582-3.7039-3.7036-3.7039Z"/><rect x="660.7121" y="744.1975" width="7.4075" height="7.4075" rx="3.7036" ry="3.7036"/><path d="M648.2092,541.3254c-1.6328,1.8501-3.2764,3.6782-4.9246,5.4963,.6697,.6667,1.5928,1.0796,2.6125,1.0796,2.0457,0,3.7039-1.6582,3.7039-3.7039,0-1.1658-.5498-2.1931-1.3918-2.8721Z"/><path d="M628.2963,562.716c-.3052,.311-.6118,.6189-.9175,.9292-.698,.7083-1.3953,1.4185-2.0957,2.1216,.5964,.4106,1.3169,.6528,2.0957,.6528,2.0454,0,3.7036-1.6582,3.7036-3.7036,0-.7986-.2585-1.5334-.6885-2.1384-.6968,.718-1.3984,1.4255-2.0977,2.1384Z"/><path d="M645.8971,577.531c-2.0454,0-3.7036,1.6582-3.7036,3.7036s1.6582,3.7036,3.7036,3.7036,3.7039-1.6582,3.7039-3.7036-1.6582-3.7036-3.7039-3.7036Z"/><path d="M627.3788,596.0495c-2.0457,0-3.7039,1.658-3.7039,3.7036s1.6582,3.7036,3.7039,3.7036,3.7036-1.6582,3.7036-3.7036-1.6582-3.7036-3.7036-3.7036Z"/><path d="M645.8971,614.5678c-2.0454,0-3.7036,1.6582-3.7036,3.7039s1.6582,3.7036,3.7036,3.7036,3.7039-1.6582,3.7039-3.7036-1.6582-3.7039-3.7039-3.7039Z"/><path d="M627.3788,633.0864c-2.0457,0-3.7039,1.6582-3.7039,3.7039s1.6582,3.7036,3.7039,3.7036,3.7036-1.6582,3.7036-3.7036-1.6582-3.7036-3.7036-3.7039Z"/><path d="M645.8971,651.6049c-2.0454,0-3.7036,1.6582-3.7036,3.7039s1.6582,3.7036,3.7036,3.7036,3.7039-1.6582,3.7039-3.7036-1.6582-3.7039-3.7039-3.7039Z"/><path d="M627.3788,670.1235c-2.0457,0-3.7039,1.6582-3.7039,3.7036s1.6582,3.7039,3.7039,3.7039c2.0454-.0002,3.7036-1.6582,3.7036-3.7039s-1.6582-3.7034-3.7036-3.7036Z"/><path d="M645.8971,688.6421c-2.0454,0-3.7036,1.6582-3.7036,3.7036s1.6582,3.7039,3.7036,3.7039,3.7039-1.6582,3.7039-3.7039-1.6582-3.7036-3.7039-3.7036Z"/><path d="M627.3788,707.1604c-2.0457,0-3.7039,1.6582-3.7039,3.7039s1.6582,3.7036,3.7039,3.7036,3.7036-1.6582,3.7036-3.7036-1.6582-3.7036-3.7036-3.7039Z"/><path d="M645.8971,725.6789c-2.0454,0-3.7036,1.6582-3.7036,3.7039s1.6582,3.7036,3.7036,3.7036,3.7039-1.6582,3.7039-3.7036-1.6582-3.7039-3.7039-3.7039Z"/><path d="M627.3788,744.1975c-2.0457,0-3.7039,1.6582-3.7039,3.7036v.0002c0,2.0454,1.6582,3.7036,3.7039,3.7036,2.0454-.0002,3.7036-1.6582,3.7036-3.7036v-.0002c0-2.0454-1.6582-3.7034-3.7036-3.7036Z"/><path d="M606.3334,583.9294c.6624,.6213,1.5469,1.0088,2.5269,1.0088,2.0454,0,3.7036-1.6582,3.7036-3.7036,0-.8762-.3169-1.6707-.8257-2.3047-1.7944,1.6843-3.5977,3.3472-5.4048,4.9995Z"/><path d="M592.0969,596.5107c-.5837,.4988-1.1702,.9905-1.7551,1.4861-.6912,.5859-1.3811,1.1748-2.0737,1.7563-.4724,.3965-.9421,.8013-1.4153,1.1958,.4993,1.4551,1.8645,2.5078,3.489,2.5078,2.0454,0,3.7036-1.6582,3.7036-3.7036,0-1.4067-.7935-2.6155-1.9485-3.2424Z"/><path d="M608.8603,614.5678c-2.0457,0-3.7039,1.6582-3.7039,3.7039s1.6582,3.7036,3.7039,3.7036,3.7036-1.6582,3.7036-3.7036-1.6582-3.7039-3.7036-3.7039Z"/><path d="M590.3417,633.0864c-2.0457,0-3.7039,1.6582-3.7039,3.7039s1.6582,3.7036,3.7039,3.7036,3.7036-1.6582,3.7036-3.7036-1.6582-3.7036-3.7036-3.7039Z"/><path d="M608.8603,651.6049c-2.0457,0-3.7039,1.6582-3.7039,3.7039s1.6582,3.7036,3.7039,3.7036,3.7036-1.6582,3.7036-3.7036-1.6582-3.7039-3.7036-3.7039Z"/><path d="M590.3417,670.1235c-2.0457,0-3.7039,1.6582-3.7039,3.7036s1.6582,3.7039,3.7039,3.7039c2.0454-.0002,3.7036-1.6582,3.7036-3.7039s-1.6582-3.7034-3.7036-3.7036Z"/><path d="M608.8603,688.6421c-2.0457,0-3.7039,1.6582-3.7039,3.7036s1.6582,3.7039,3.7039,3.7039,3.7036-1.6582,3.7036-3.7039-1.6582-3.7036-3.7036-3.7036Z"/><path d="M590.3417,707.1604c-2.0457,0-3.7039,1.6582-3.7039,3.7039s1.6582,3.7036,3.7039,3.7036,3.7036-1.6582,3.7036-3.7036-1.6582-3.7036-3.7036-3.7039Z"/><path d="M608.8603,725.6789c-2.0457,0-3.7039,1.6582-3.7039,3.7039s1.6582,3.7036,3.7039,3.7036,3.7036-1.6582,3.7036-3.7036-1.6582-3.7039-3.7036-3.7039Z"/><path d="M590.3417,744.1975c-2.0457,0-3.7039,1.6582-3.7039,3.7036v.0002c0,2.0454,1.6582,3.7036,3.7039,3.7036,2.0454-.0002,3.7036-1.6582,3.7036-3.7036v-.0002c0-2.0454-1.6582-3.7034-3.7036-3.7036Z"/><path d="M571.8232,614.5678c-2.0454,0-3.7036,1.6582-3.7036,3.7039s1.6582,3.7036,3.7036,3.7036,3.7036-1.6582,3.7036-3.7036-1.6582-3.7039-3.7036-3.7039Z"/><path d="M553.3049,633.0864h-.0002c-2.0454,0-3.7036,1.6582-3.7036,3.7039s1.6582,3.7036,3.7036,3.7036h.0002c2.0454,0,3.7034-1.6582,3.7034-3.7036s-1.658-3.7036-3.7034-3.7039Z"/><path d="M571.8232,651.6049c-2.0454,0-3.7036,1.6582-3.7036,3.7039s1.6582,3.7036,3.7036,3.7036,3.7036-1.6582,3.7036-3.7036-1.6582-3.7039-3.7036-3.7039Z"/><path d="M553.3049,670.1235h-.0002c-2.0454,0-3.7036,1.6582-3.7036,3.7036s1.6582,3.7039,3.7036,3.7039h.0002c2.0454-.0002,3.7034-1.6582,3.7034-3.7039s-1.658-3.7034-3.7034-3.7036Z"/><path d="M571.8232,688.6421c-2.0454,0-3.7036,1.6582-3.7036,3.7036s1.6582,3.7039,3.7036,3.7039,3.7036-1.6582,3.7036-3.7039-1.6582-3.7036-3.7036-3.7036Z"/><path d="M553.3049,707.1604h-.0002c-2.0454,0-3.7036,1.6582-3.7036,3.7039s1.6582,3.7036,3.7036,3.7036h.0002c2.0454,0,3.7034-1.6582,3.7034-3.7036s-1.658-3.7036-3.7034-3.7039Z"/><path d="M571.8232,725.6789c-2.0454,0-3.7036,1.6582-3.7036,3.7039s1.6582,3.7036,3.7036,3.7036,3.7036-1.6582,3.7036-3.7036-1.6582-3.7039-3.7036-3.7039Z"/><path d="M553.3044,744.1975h.0002c2.0441,0,3.7036,1.6595,3.7036,3.7036v.0002c0,2.0441-1.6595,3.7036-3.7036,3.7036h-.0002c-2.0439,0-3.7034-1.6594-3.7034-3.7034v-.0007c0-2.0439,1.6594-3.7034,3.7034-3.7034Z"/><path d="M534.7861,651.6049c-2.0454,0-3.7036,1.6582-3.7036,3.7039s1.6582,3.7036,3.7036,3.7036,3.7036-1.6582,3.7036-3.7036-1.6582-3.7039-3.7036-3.7039Z"/><path d="M516.2678,670.1235h-.0002c-2.0454,0-3.7036,1.6582-3.7036,3.7036s1.6582,3.7039,3.7036,3.7039h.0002c2.0454-.0002,3.7036-1.6582,3.7036-3.7039s-1.6582-3.7034-3.7036-3.7036Z"/><path d="M534.7861,688.6421c-2.0454,0-3.7036,1.6582-3.7036,3.7036s1.6582,3.7039,3.7036,3.7039,3.7036-1.6582,3.7036-3.7039-1.6582-3.7036-3.7036-3.7036Z"/><path d="M516.2678,707.1604h-.0002c-2.0454,0-3.7036,1.6582-3.7036,3.7039s1.6582,3.7036,3.7036,3.7036h.0002c2.0454,0,3.7036-1.6582,3.7036-3.7036s-1.6582-3.7036-3.7036-3.7039Z"/><path d="M534.7861,725.6789c-2.0454,0-3.7036,1.6582-3.7036,3.7039s1.6582,3.7036,3.7036,3.7036,3.7036-1.6582,3.7036-3.7036-1.6582-3.7039-3.7036-3.7039Z"/><rect x="512.5639" y="744.1975" width="7.4075" height="7.4075" rx="3.7036" ry="3.7036"/><path d="M479.2306,672.4751c-.8591,.4504-1.718,.9067-2.5771,1.3521-.3569,.1851-.7139,.3699-1.0708,.554,.2693,1.7808,1.7922,3.1499,3.6477,3.1499h.0002c2.0457-.0002,3.7036-1.6582,3.7036-3.7039,0-1.0596-.4507-2.009-1.1641-2.6843-.8464,.4485-1.6931,.8887-2.5396,1.3323Z"/><path d="M497.749,688.6421c-2.0454,0-3.7036,1.6582-3.7036,3.7036s1.6582,3.7039,3.7036,3.7039,3.7039-1.6582,3.7039-3.7039-1.6582-3.7036-3.7039-3.7036Z"/><path d="M479.2306,707.1604h-.0002c-2.0454,0-3.7036,1.6582-3.7036,3.7039s1.6582,3.7036,3.7036,3.7036h.0002c2.0457,0,3.7036-1.6582,3.7036-3.7036s-1.658-3.7036-3.7036-3.7039Z"/><path d="M497.749,725.6789c-2.0454,0-3.7036,1.6582-3.7036,3.7039s1.6582,3.7036,3.7036,3.7036,3.7039-1.6582,3.7039-3.7036-1.6582-3.7039-3.7039-3.7039Z"/><rect x="475.5268" y="744.1975" width="7.4075" height="7.4075" rx="3.7036" ry="3.7036"/><path d="M460.7121,688.6421c-2.0457,0-3.7039,1.6582-3.7039,3.7036s1.6582,3.7039,3.7039,3.7039,3.7036-1.6582,3.7036-3.7039-1.6582-3.7036-3.7036-3.7036Z"/><path d="M442.1938,707.1604h-.0002c-2.0457,0-3.7039,1.6582-3.7039,3.7039s1.6582,3.7036,3.7039,3.7036h.0002c2.0454,0,3.7034-1.6582,3.7034-3.7036s-1.658-3.7036-3.7034-3.7039Z"/><path d="M460.7121,725.6789c-2.0457,0-3.7039,1.6582-3.7039,3.7039s1.6582,3.7036,3.7039,3.7036,3.7036-1.6582,3.7036-3.7036-1.6582-3.7039-3.7036-3.7039Z"/><path d="M442.193,744.1975h.0005c2.0441,0,3.7036,1.6595,3.7036,3.7036h0c0,2.0442-1.6596,3.7039-3.7039,3.7039h-.0002c-2.0439,0-3.7034-1.6594-3.7034-3.7034v-.0007c0-2.0439,1.6594-3.7034,3.7034-3.7034Z"/><path d="M405.1567,707.1604h-.0002c-2.0454,0-3.7036,1.6582-3.7036,3.7039s1.6582,3.7036,3.7036,3.7036h.0002c2.0454,0,3.7036-1.6582,3.7036-3.7036s-1.6582-3.7036-3.7036-3.7039Z"/><path d="M423.675,725.6789c-2.0454,0-3.7036,1.6582-3.7036,3.7039s1.6582,3.7036,3.7036,3.7036,3.7039-1.6582,3.7039-3.7036-1.6582-3.7039-3.7039-3.7039Z"/><rect x="401.4528" y="744.1975" width="7.4075" height="7.4075" rx="3.7036" ry="3.7036"/><path d="M386.6379,725.6789c-2.0454,0-3.7036,1.6582-3.7036,3.7039s1.6582,3.7036,3.7036,3.7036,3.7039-1.6582,3.7039-3.7036-1.6582-3.7039-3.7039-3.7039Z"/><path d="M368.1196,744.1975c-2.0457,0-3.7039,1.6582-3.7039,3.7036v.0002c0,2.0454,1.6582,3.7036,3.7039,3.7036,2.0454-.0002,3.7036-1.6582,3.7036-3.7036v-.0002c0-2.0454-1.6582-3.7034-3.7036-3.7036Z"/><path d="M349.601,725.6789c-2.0457,0-3.7039,1.6582-3.7039,3.7039s1.6582,3.7036,3.7039,3.7036,3.7036-1.6582,3.7036-3.7036-1.6582-3.7039-3.7036-3.7039Z"/><path d="M331.0824,744.1975c-2.0454,0-3.7036,1.6582-3.7036,3.7036v.0002c0,2.0454,1.6582,3.7036,3.7036,3.7036,2.0457-.0002,3.7036-1.6582,3.7036-3.7036v-.0002c0-2.0454-1.658-3.7034-3.7036-3.7036Z"/><path d="M294.0451,744.1975h.0002c2.0441,0,3.7036,1.6595,3.7036,3.7036v.0002c0,2.0441-1.6595,3.7036-3.7036,3.7036h-.0002c-2.0439,0-3.7034-1.6594-3.7034-3.7034v-.0007c0-2.0439,1.6594-3.7034,3.7034-3.7034Z"/><path d="M257.0085,745.8288c-1.1296,.1895-2.2607,.3799-3.3752,.5618-.2075,.4622-.3286,.9712-.3286,1.5105v.0002c0,2.0454,1.6582,3.7036,3.7036,3.7036h.0002c2.0454-.0002,3.7036-1.6582,3.7036-3.7036v-.0002c0-.9805-.3879-1.8657-1.01-2.5281-.9033,.1545-1.7996,.3059-2.6936,.4558Z"/><path d="M218.5116,751.3042c.4482,.1926,.9409,.3008,1.4597,.3008,.8247,0,1.5789-.2786,2.1943-.7346-.7405,.0898-1.4648,.1743-2.1943,.2605-.4851,.0574-.9792,.1174-1.4597,.1733Z"/><path d="M285.5995,357.5578c-.9766-.9766-2.5586-.9766-3.5352,0l-60.6426,60.6416c-.9766,.9766-.9766,2.5586,0,3.5352,.4883,.4883,1.1279,.7324,1.7676,.7324s1.2793-.2441,1.7676-.7324l60.6426-60.6416c.9766-.9766,.9766-2.5586,0-3.5352Z"/><path d="M337.08,363.1838l-110.0312,110.0312c-.9766,.9766-.9766,2.5586,0,3.5352,.4883,.4883,1.1279,.7324,1.7676,.7324s1.2793-.2441,1.7676-.7324l110.0312-110.0312c.9766-.9766,.9766-2.5586,0-3.5352s-2.5586-.9766-3.5352,0Z"/><path d="M960.204,761.6081V250.2358H119.7961v511.3723H39.9999v68.156h1000v-68.156h-79.7959ZM160.289,291.8039H923.3754v7.9795c-1.9028,.155-3.4041,1.7305-3.4041,3.6733s1.5012,3.5186,3.4041,3.6736v29.6899c-1.9028,.155-3.4041,1.7307-3.4041,3.6736s1.5012,3.5186,3.4041,3.6733v29.6902c-1.9028,.155-3.4041,1.7305-3.4041,3.6736s1.5012,3.5183,3.4041,3.6733v29.6902c-1.9028,.155-3.4041,1.7305-3.4041,3.6733s1.5012,3.5186,3.4041,3.6736v29.6899c-1.9028,.1553-3.4041,1.7307-3.4041,3.6736s1.5012,3.5186,3.4041,3.6736v29.6899c-1.9028,.155-3.4041,1.7307-3.4041,3.6736s1.5012,3.5183,3.4041,3.6736v29.6899c-1.9028,.155-3.4041,1.7305-3.4041,3.6733s1.5012,3.5186,3.4041,3.6736v29.6902c-1.9028,.1548-3.4041,1.7305-3.4041,3.6733s1.5012,3.5186,3.4041,3.6736v29.6899c-1.9028,.155-3.4041,1.7307-3.4041,3.6736s1.5012,3.5186,3.4041,3.6733v29.6902c-1.9028,.155-3.4041,1.7307-3.4041,3.6736s1.5012,3.5183,3.4041,3.6733v29.6902c-1.9028,.155-3.4041,1.7305-3.4041,3.6733s1.5012,3.5186,3.4041,3.6736v29.6899c-1.9028,.155-3.4041,1.7307-3.4041,3.6736s1.5012,3.5183,3.4041,3.6736v29.6899c-1.9028,.155-3.4041,1.7305-3.4041,3.6733v.0002c0,1.9429,1.5012,3.5183,3.4041,3.6733v3.7859H160.289V291.8039Zm455.4526,518.1797h-151.4834c-8.9724,0-16.3135-7.3413-16.3135-16.3137s7.3411-16.3137,16.3135-16.3137h151.4834c8.9727,0,16.3137,7.3413,16.3137,16.3137s-7.3411,16.3137-16.3137,16.3137Z"/></svg>