<svg width="129" height="100" viewBox="0 0 129 100" fill="none" xmlns="http://www.w3.org/2000/svg">
<path d="M8.4551 85.1079L7.44911 87.8856C7.29027 87.8321 7.13143 87.7787 6.97259 87.7253C6.89317 87.6986 6.81375 87.6452 6.73433 87.6185C6.52254 87.5116 6.31075 87.4048 6.12544 87.298C6.04602 87.2446 5.96659 87.1911 5.88717 87.1377C2.28678 84.734 3.39867 79.3123 3.39867 79.3123C4.74882 83.639 8.4551 85.1079 8.4551 85.1079Z" fill="#EDD0B4"/>
<path d="M7.33674 85.4626L6.90186 87.6992C6.82032 87.6715 6.73878 87.6163 6.65724 87.5887C6.4398 87.4783 6.22236 87.3678 6.0321 87.2574C6.3039 86.2358 7.33674 85.4626 7.33674 85.4626Z" fill="#E2C3AA"/>
<ellipse cx="19.0785" cy="96.8315" rx="14.5373" ry="3.16839" fill="#EEEBEF"/>
<path d="M16.2688 94.3177C16.1088 94.3177 15.9488 94.3444 15.7888 94.398L13.4153 93.8889L16.2688 90.6735C16.2688 90.6735 22.0557 90.1108 25.0425 87.6992H8.45508V96.0861H18.0289C18.0022 95.1215 17.2288 94.3177 16.2688 94.3177Z" fill="#D6B499"/>
<path d="M26.994 94.3512C26.8326 94.3512 26.6711 94.3779 26.5365 94.4046L27.8282 74.2809L24.4107 73.9072L23.7379 96.086H25.2449H26.2405H28.7701C28.7701 95.1519 27.9897 94.3512 26.994 94.3512Z" fill="#D6B499"/>
<path d="M23.3651 68.316V64.4021L29.3291 67.9507L23.3651 68.316Z" fill="#261A4C"/>
<path d="M32.6119 73.9658C30.8724 74.3886 28.6513 74.6528 25.788 74.6528V67.5706H38.3118C38.3118 67.5706 39.9175 72.1952 32.6119 73.9658Z" fill="#EDD0B4"/>
<path d="M32.684 73.9072C38.1816 70.9152 37.1508 69.0553 37.1508 69.0553C36.5957 68.6779 36.5165 67.8423 36.49 67.384H38.3138C38.3138 67.384 39.8996 72.1012 32.684 73.9072Z" fill="#E2C3AA"/>
<ellipse cx="38.4616" cy="67.5705" rx="1.30463" ry="1.30463" fill="#261A4C"/>
<ellipse cx="28.8632" cy="69.5275" rx="0.46594" ry="0.46594" fill="#594A42"/>
<path d="M26.5335 67.6042L18.7057 65.5203L21.6219 71.064V74.6527H25.849L26.5335 67.6042Z" fill="#EDD0B4"/>
<path d="M27.4654 73.7209L23.4656 96.8316H20.9423L21.6134 74.6539L27.4654 73.7209Z" fill="#EDD0B4"/>
<path d="M22.4332 96.8314C22.4332 95.9165 23.2112 95.1541 24.2038 95.1541C25.1964 95.1541 25.9744 95.8911 25.9744 96.8314H22.4332Z" fill="#EDD0B4"/>
<path d="M12.5553 96.8314C12.5553 95.9165 13.3333 95.1541 14.3259 95.1541C15.2916 95.1541 16.0964 95.8911 16.0964 96.8314H12.5553Z" fill="#EDD0B4"/>
<path d="M30.8202 73.3765C30.8202 73.3765 30.7934 73.7502 30.6864 74.3374C30.6061 74.8178 30.4991 75.4583 30.3118 76.179C30.0977 77.033 29.8301 77.9672 29.4554 78.9013C29.1343 79.7287 28.7061 80.5294 28.2245 81.25C27.3681 82.4511 26.2442 83.3852 24.7992 83.572C24.6118 83.5987 24.4245 83.5987 24.2104 83.5987C21.5344 83.5987 21.5612 81.1166 22.3105 78.501C22.5513 77.6202 22.8992 76.7395 23.2471 75.9388C23.3541 75.6986 23.4612 75.4317 23.5682 75.2181C24.264 73.7235 24.8794 72.6025 24.8794 72.6025L30.8202 73.3765Z" fill="#EDD0B4"/>
<path d="M24.6062 85.6141C24.4467 87.4346 22.879 88.7196 21.0456 89.6031C19.9562 90.1118 18.7871 90.4866 17.7242 90.7543C15.7845 91.263 14.1903 91.3969 14.1903 91.3969L11.3471 94.6095L13.7651 95.145V96.8316H6.40491V90.2724C6.40491 89.7102 6.43148 89.1748 6.51119 88.6393C7.06919 84.3826 9.69973 80.6345 13.6323 78.7604C13.6323 78.7604 14.2434 78.3856 15.1202 77.7966C16.4222 76.9131 18.2822 75.521 19.6639 74.0485C20.0093 73.6737 20.3282 73.3257 20.5939 72.9508C21.0722 72.2815 21.4176 71.6122 21.4973 70.9965C21.7365 69.1492 22.6399 71.6122 23.4104 75.1462C23.4902 75.521 23.5699 75.9226 23.6496 76.2974C23.9153 77.5557 24.1279 78.921 24.3139 80.2061C24.4733 81.3841 24.5796 82.5085 24.6327 83.4991C24.6859 84.329 24.6859 85.0519 24.6062 85.6141Z" fill="#EDD0B4"/>
<path d="M28.6539 80.6168C29.0039 80.0557 29.2732 79.4679 29.5156 78.8534C28.1154 78.506 25.8535 77.7846 23.834 76.3151C23.6455 76.1815 23.457 76.0479 23.2685 75.8876C22.2992 75.1128 21.4106 74.1509 20.7105 72.9753C20.4951 73.2425 20.2796 73.5364 20.0104 73.8036C20.7374 75.3533 23.2147 79.6549 28.6539 80.6168Z" fill="#E2C3AA"/>
<path d="M21.1287 84.158V89.6162C20.0297 90.1296 18.8504 90.5079 17.7783 90.7781C15.8216 91.2645 14.2134 91.4266 14.2134 91.4266L13.1145 86.5358C19.7081 91.913 21.1287 84.158 21.1287 84.158Z" fill="#E2C3AA"/>
<path d="M1.74548 80.2441C1.74548 80.2441 1.98285 78.4217 4.54112 78.0076" stroke="#EDD0B4" stroke-width="1.3503"/>
<path d="M1 79.685C1 79.685 1.23737 77.8627 3.79564 77.4485" stroke="#EDD0B4" stroke-width="1.3503"/>
<path d="M30.0273 78.812C29.9199 79.1029 29.6514 79.4203 29.007 79.6848C29.007 79.6848 24.9261 79.6319 21.7848 75.9026C21.221 75.2149 20.684 74.4214 20.2008 73.4957C20.2008 73.4957 20.0665 71.6971 21.3552 71.6707C21.3552 71.6707 22.2681 77.516 29.7588 77.7805C29.7857 77.7805 30.2152 78.2566 30.0273 78.812Z" fill="#F46162"/>
<path d="M36.3767 71.2981L37.3564 72.6755C37.6477 73.0728 37.5682 73.629 37.1446 73.9204C36.7474 74.2118 36.1914 74.1323 35.9001 73.7085L34.9204 72.3311L36.3767 71.2981Z" fill="#F56D6D"/>
<path d="M36.9706 70.3662C36.9706 70.3662 36.0919 72.4094 34.1749 72.6027" stroke="#594A42" stroke-width="2.7006" stroke-linecap="round" stroke-linejoin="round"/>
<path d="M30.6337 74.28C30.5547 74.7662 30.4494 75.4145 30.265 76.1438C27.8422 75.9817 25.788 74.5501 25.788 74.5501L30.6337 74.28Z" fill="#E2C3AA"/>
<path d="M18.8921 66.0796L22.9924 69.1742L21.4776 71.1117L18.8921 66.0796Z" fill="#261A4C"/>
<path d="M30.0747 78.8248C29.9678 79.1116 29.7007 79.4244 29.0596 79.685C29.0596 79.685 24.9994 79.6329 21.8741 75.9575C22.1146 76.1661 26.3617 79.5547 30.0747 78.8248Z" fill="#E25556"/>
<path d="M15.1646 77.8213C14.9265 78.9727 14.3708 80.9008 13.2065 81.5434C11.513 82.4807 14.6354 89.7375 6.9353 88.7199C6.80299 88.6931 6.69715 88.6931 6.59131 88.6664C7.14699 84.4087 9.7666 80.6598 13.6828 78.7853C13.6828 78.8121 14.2914 78.4372 15.1646 77.8213Z" fill="#261A4C"/>
<path d="M108.178 0H68.6917C67.9258 0.000847816 67.3052 0.621277 67.3043 1.38688V54.7283C67.3052 55.4939 67.9258 56.1143 68.6917 56.1151H108.178C108.944 56.1143 109.565 55.4938 109.566 54.7283V1.38688C109.565 0.621285 108.944 0.00086659 108.178 0Z" fill="#EEEBEF"/>
<path d="M69.9115 1.70703C69.3771 1.71609 68.9509 2.15565 68.9585 2.68981V53.4255C68.9509 53.9597 69.3771 54.3993 69.9115 54.4083H106.959C107.493 54.3993 107.919 53.9597 107.912 53.4255V2.68981C107.919 2.15565 107.493 1.71609 106.959 1.70703H69.9115Z" fill="white"/>
<path d="M71.8399 4.05396C71.4868 4.05396 71.1996 4.378 71.1996 4.77635V11.7595C71.1996 12.1579 71.4868 12.4819 71.8399 12.4819H105.03C105.383 12.4819 105.67 12.1579 105.67 11.7595V4.77635C105.67 4.378 105.383 4.05396 105.03 4.05396H71.8399Z" fill="#EEEBEF"/>
<path d="M71.84 15.8691C71.4814 15.8747 71.195 16.1692 71.1996 16.5276V31.4531C71.195 31.8115 71.4814 32.1061 71.84 32.1116H105.03C105.389 32.1061 105.675 31.8115 105.671 31.4531V16.5276C105.675 16.1692 105.389 15.8747 105.03 15.8691H71.84Z" fill="#EEEBEF"/>
<rect x="75.3083" y="5.04077" width="26.2534" height="1.49356" fill="white"/>
<rect x="75.3618" y="8.18799" width="26.2534" height="0.693438" fill="white"/>
<rect x="75.3618" y="9.41479" width="26.2534" height="0.693438" fill="white"/>
<rect x="75.3618" y="10.6416" width="26.2534" height="0.693438" fill="white"/>
<path d="M90.907 32.1381H102.989C103.146 32.1381 103.288 32.0434 103.348 31.8981C103.408 31.7529 103.375 31.5857 103.264 31.4745L95.5314 23.7446C95.3794 23.593 95.1334 23.593 94.9814 23.7446L93.0585 25.6668C92.9055 25.8198 92.698 25.9057 92.4816 25.9057C92.2653 25.9057 92.0578 25.8198 91.9048 25.6668L85.882 19.6462C85.73 19.4946 85.4839 19.4946 85.3319 19.6462L73.5527 31.4211C73.4415 31.5323 73.4083 31.6995 73.4685 31.8448C73.5287 31.9901 73.6705 32.0848 73.8278 32.0848H90.9225L90.907 32.1381Z" fill="white"/>
<ellipse cx="76.5357" cy="19.3896" rx="1.4941" ry="1.49356" fill="white"/>
<path d="M71.84 35.6055C71.4814 35.611 71.195 35.9055 71.1996 36.2639V51.1894C71.195 51.5478 71.4814 51.8424 71.84 51.8479H105.03C105.389 51.8424 105.675 51.5478 105.671 51.1894V36.2639C105.675 35.9055 105.389 35.611 105.03 35.6055H71.84Z" fill="#EEEBEF"/>
<path d="M90.907 51.8744H102.989C103.146 51.8744 103.288 51.7796 103.348 51.6344C103.408 51.4891 103.375 51.3219 103.264 51.2106L95.5314 43.4808C95.3794 43.3294 95.1334 43.3294 94.9814 43.4808L93.0585 45.403C92.9055 45.556 92.698 45.642 92.4816 45.642C92.2652 45.642 92.0577 45.556 91.9047 45.403L85.882 39.3824C85.7299 39.2309 85.484 39.2309 85.3319 39.3824L73.5527 51.1573C73.4415 51.2685 73.4083 51.4357 73.4685 51.581C73.5287 51.7263 73.6705 51.821 73.8278 51.8211H90.9225L90.907 51.8744Z" fill="white"/>
<ellipse cx="76.5357" cy="39.1259" rx="1.4941" ry="1.49356" fill="white"/>
<path d="M82.5655 12.2686C82.0353 12.2692 81.6056 12.6987 81.605 13.2287V66.5701C81.6056 67.1001 82.0353 67.5296 82.5655 67.5302H122.052C122.582 67.5296 123.012 67.1001 123.013 66.5701V13.2287C123.012 12.6987 122.582 12.2692 122.052 12.2686L82.5655 12.2686Z" fill="#EEEBEF"/>
<path d="M83.7319 13.762C83.1976 13.771 82.7713 14.2106 82.7789 14.7447V65.4805C82.7713 66.0146 83.1976 66.4542 83.7319 66.4632H120.779C121.313 66.4542 121.74 66.0146 121.732 65.4805V14.7447C121.74 14.2106 121.313 13.771 120.779 13.762H83.7319Z" fill="white"/>
<path d="M89.5289 21.1426C89.2933 21.1428 89.1023 21.3337 89.1021 21.5693V23.5279C89.1023 23.7635 89.2933 23.9543 89.5289 23.9546H114.715C114.951 23.9544 115.142 23.7635 115.142 23.5279V21.5693C115.142 21.3337 114.951 21.1428 114.715 21.1426H89.5289Z" fill="#F56D6D"/>
<path d="M89.3689 27.6243C89.31 27.6243 89.2623 27.6721 89.2622 27.731V28.4955C89.2623 28.5544 89.31 28.6022 89.3689 28.6022H114.982C115.041 28.6022 115.089 28.5544 115.089 28.4955V27.731C115.089 27.6721 115.041 27.6243 114.982 27.6243L89.3689 27.6243Z" fill="#EEEBEF"/>
<path d="M89.3689 30.1094C89.31 30.1095 89.2623 30.1572 89.2622 30.2161V30.9807C89.2623 31.0395 89.31 31.0873 89.3689 31.0873H114.982C115.041 31.0873 115.089 31.0395 115.089 30.9807V30.2161C115.089 30.1572 115.041 30.1094 114.982 30.1094L89.3689 30.1094Z" fill="#EEEBEF"/>
<path d="M89.3689 32.5947C89.31 32.5948 89.2623 32.6425 89.2622 32.7014V33.466C89.2623 33.5248 89.31 33.5726 89.3689 33.5726H114.982C115.041 33.5726 115.089 33.5248 115.089 33.466V32.7014C115.089 32.6425 115.041 32.5948 114.982 32.5947H89.3689Z" fill="#EEEBEF"/>
<path d="M89.3156 37.5588C89.2567 37.5589 89.2089 37.6066 89.2089 37.6655V38.4301C89.2089 38.489 89.2567 38.5367 89.3156 38.5367H114.929C114.988 38.5367 115.035 38.489 115.035 38.4301V37.6655C115.035 37.6066 114.988 37.5589 114.929 37.5588L89.3156 37.5588Z" fill="#EEEBEF"/>
<path d="M89.3156 40.0439C89.2567 40.044 89.2089 40.0917 89.2089 40.1506V40.9152C89.2089 40.9741 89.2567 41.0218 89.3156 41.0219H114.929C114.988 41.0218 115.035 40.9741 115.035 40.9152V40.1506C115.035 40.0917 114.988 40.044 114.929 40.0439L89.3156 40.0439Z" fill="#EEEBEF"/>
<path d="M89.3156 42.5291C89.2567 42.5291 89.2089 42.5768 89.2089 42.6357V43.4003C89.2089 43.4592 89.2567 43.507 89.3156 43.507H114.929C114.988 43.507 115.035 43.4592 115.035 43.4003V42.6357C115.035 42.5768 114.988 42.5291 114.929 42.5291H89.3156Z" fill="#EEEBEF"/>
<path d="M89.3156 45.0266C89.2567 45.0267 89.2089 45.0744 89.2089 45.1333V45.8979C89.2089 45.9568 89.2567 46.0045 89.3156 46.0046H114.929C114.988 46.0045 115.035 45.9568 115.035 45.8979V45.1333C115.035 45.0744 114.988 45.0267 114.929 45.0266H89.3156Z" fill="#EEEBEF"/>
<path d="M89.3156 47.5117C89.2567 47.5118 89.2089 47.5595 89.2089 47.6184V48.383C89.2089 48.4419 89.2567 48.4896 89.3156 48.4897H114.929C114.988 48.4896 115.035 48.4419 115.035 48.383V47.6184C115.035 47.5595 114.988 47.5118 114.929 47.5117L89.3156 47.5117Z" fill="#EEEBEF"/>
<path d="M89.3156 49.9968C89.2567 49.9969 89.2089 50.0446 89.2089 50.1035V50.8681C89.2089 50.927 89.2567 50.9747 89.3156 50.9748H114.929C114.988 50.9747 115.035 50.927 115.035 50.8681V50.1035C115.035 50.0446 114.988 49.9969 114.929 49.9968H89.3156Z" fill="#EEEBEF"/>
<path d="M89.3156 52.4944C89.2567 52.4944 89.2089 52.5422 89.2089 52.6011V53.3657C89.2089 53.4246 89.2567 53.4723 89.3156 53.4723H114.929C114.988 53.4723 115.035 53.4246 115.035 53.3657V52.6011C115.035 52.5422 114.988 52.4944 114.929 52.4944L89.3156 52.4944Z" fill="#EEEBEF"/>
<path d="M89.3156 54.9795C89.2567 54.9796 89.2089 55.0273 89.2089 55.0862V55.8508C89.2089 55.9097 89.2567 55.9574 89.3156 55.9575H114.929C114.988 55.9574 115.035 55.9097 115.035 55.8508V55.0862C115.035 55.0273 114.988 54.9795 114.929 54.9795L89.3156 54.9795Z" fill="#EEEBEF"/>
<path d="M89.3156 57.4646C89.2567 57.4647 89.2089 57.5124 89.2089 57.5713V58.3359C89.2089 58.3948 89.2567 58.4425 89.3156 58.4426H114.929C114.988 58.4425 115.035 58.3948 115.035 58.3359V57.5713C115.035 57.5124 114.988 57.4646 114.929 57.4646L89.3156 57.4646Z" fill="#EEEBEF"/>
<ellipse cx="121.198" cy="64.2231" rx="7.79064" ry="7.78784" fill="#ADDDDD"/>
<path fill-rule="evenodd" clip-rule="evenodd" d="M120.456 67.5105L118.124 64.5136L119.48 63.4591L120.584 64.8782L124.314 60.9424L125.561 62.1236L120.456 67.5105Z" fill="#2E676C"/>
<rect x="47.5751" y="67.1846" width="26.4783" height="3.84625" rx="1.92313" fill="#C9C9C9"/>
<rect x="56.2051" y="71.0308" width="9.21838" height="2.42921" fill="black"/>
<rect x="59.3433" y="73.46" width="2.94203" height="15.385" fill="#DEDEDE"/>
<path d="M60.2729 86.6335L52.4159 90.2897L52.5277 91.326L60.7203 88.6111L60.2729 86.6335Z" fill="#DEDEDE"/>
<path d="M61.229 86.6335L69.087 90.2895L68.9752 91.3258L60.7826 88.6109L61.229 86.6335Z" fill="#DEDEDE"/>
<path d="M67.1918 91.3262C67.1919 92.4059 68.0401 93.2812 69.0862 93.2811C70.1324 93.281 70.9804 92.4055 70.9803 91.3258C70.9802 90.246 70.132 89.3707 69.0859 89.3708C68.5834 89.3708 68.1016 89.5768 67.7463 89.9435C67.3911 90.3102 67.1916 90.8076 67.1918 91.3262Z" fill="black"/>
<path d="M50.5215 91.3262C50.5216 92.4059 51.3698 93.2812 52.416 93.2811C53.4621 93.281 54.3101 92.4055 54.31 91.3258C54.3099 90.246 53.4617 89.3707 52.4156 89.3708C51.9131 89.3708 51.4313 89.5768 51.0761 89.9435C50.7208 90.3102 50.5213 90.8076 50.5215 91.3262Z" fill="black"/>
<path d="M60.0286 56.2557C60.0561 56.2648 60.0836 56.274 60.1202 56.274C60.2118 56.274 60.2943 56.2191 60.3309 56.1367L60.9264 54.6999C60.844 54.5078 60.7615 54.3156 60.6699 54.1143L59.9004 55.9628C59.8545 56.0727 59.9095 56.2099 60.0286 56.2557Z" fill="#1F0D60"/>
<path d="M55.1822 55.4687C55.2005 55.4687 55.2188 55.4687 55.2372 55.4596L57.555 54.8647C57.6741 54.8373 57.7474 54.7091 57.7199 54.5902C57.6924 54.4712 57.5642 54.398 57.4451 54.4254L55.1272 55.0203C55.0081 55.0477 54.9348 55.1759 54.9623 55.2948C54.9898 55.3955 55.0814 55.4687 55.1822 55.4687Z" fill="#1F0D60"/>
<path d="M50.5831 44.0478C50.6563 44.0478 50.7296 44.0112 50.7754 43.9472C50.8396 43.8374 50.8121 43.7001 50.7022 43.6269L48.6866 42.3365C48.5767 42.2725 48.4393 42.2999 48.366 42.4097C48.3019 42.5196 48.3293 42.6568 48.4393 42.73L50.4548 44.0204C50.5006 44.0387 50.5464 44.0478 50.5831 44.0478Z" fill="#1F0D60"/>
<path d="M51.4443 54.0595C51.5085 54.1968 51.5818 54.3432 51.6459 54.4805L52.3147 54.3066C52.4338 54.2791 52.5071 54.151 52.4796 54.0321C52.4429 53.9131 52.3238 53.8399 52.2047 53.8673L51.4443 54.0595Z" fill="#1F0D60"/>
<path d="M48.2195 47.3972C48.2836 47.5344 48.3569 47.6809 48.421 47.8181L50.2533 47.3422C50.3724 47.3148 50.4457 47.1867 50.4182 47.0677C50.3816 46.9487 50.2625 46.8755 50.1434 46.903L48.2195 47.3972Z" fill="#1F0D60"/>
<path d="M54.1377 52.2384C54.211 52.2384 54.2843 52.2018 54.3301 52.1377C54.4034 52.037 54.3759 51.8906 54.2751 51.8174L52.3054 50.463C52.2046 50.3898 52.0581 50.4172 51.9848 50.5179C51.9115 50.6186 51.939 50.765 52.0397 50.8382L54.0095 52.1926C54.0461 52.2292 54.0919 52.2384 54.1377 52.2384Z" fill="#1F0D60"/>
<path d="M45.1962 39.6734C45.6542 40.1401 46.1123 40.616 46.5704 41.0827C46.5979 41.1102 46.6345 41.1285 46.6712 41.1376C46.7445 41.1559 46.8361 41.1376 46.891 41.0827C46.9827 40.9912 46.9827 40.8448 46.891 40.7624L45.6634 39.5361C45.5993 39.5453 45.2511 39.6459 45.1962 39.6734Z" fill="#1F0D60"/>
<path d="M54.092 47.3515C54.2111 47.3515 54.3118 47.2508 54.321 47.1318L54.4034 44.7433C54.4034 44.6152 54.3118 44.5145 54.1836 44.5054C54.0553 44.5054 53.9545 44.5969 53.9454 44.725L53.8629 47.1135C53.8629 47.2416 53.9545 47.3515 54.092 47.3515C54.092 47.3515 54.0828 47.3515 54.092 47.3515Z" fill="#1F0D60"/>
<path d="M57.5001 50.3348C57.5184 50.3348 57.5367 50.3348 57.5459 50.3257C57.665 50.2982 57.7474 50.1792 57.7199 50.0511L57.2069 47.7175C57.1794 47.5985 57.0603 47.5162 56.9321 47.5436C56.813 47.5711 56.7305 47.6901 56.758 47.8182L57.271 50.1518C57.3077 50.2616 57.3993 50.3348 57.5001 50.3348Z" fill="#1F0D60"/>
<path d="M53.24 42.0528C53.2858 42.0985 53.3407 42.1168 53.3957 42.1168C53.4598 42.1168 53.5148 42.0894 53.5606 42.0436L54.6783 40.8356C54.605 40.6892 54.5409 40.5428 54.4676 40.3872L53.2308 41.7233C53.1392 41.824 53.1484 41.9704 53.24 42.0528Z" fill="#1F0D60"/>
<path d="M55.6494 59.3124L56.5289 60.4106C56.6572 60.3191 56.7763 60.2367 56.9045 60.1452L56.0067 59.0287C55.9242 58.9281 55.7868 58.9189 55.686 58.9921C55.5853 59.0745 55.5761 59.2118 55.6494 59.3124Z" fill="#1F0D60"/>
<path d="M44.1976 34.1092C44.8297 33.5052 45.8375 33.5327 46.4421 34.1733C46.4421 34.1733 47.0743 33.4137 45.7917 30.9794C44.619 28.7648 47.9263 28.7282 48.5493 27.6758C48.9799 27.8588 49.3738 28.0876 49.7128 28.3347C49.9693 28.5177 50.5465 28.9112 51.0962 29.6067C51.2611 29.8172 51.4443 30.0735 51.6184 30.3663C52.5987 31.9861 53.4873 34.5851 52.0765 36.15C51.7924 36.4612 51.4352 36.7174 51.0137 36.9096L51.4352 38.4928C51.765 39.7191 51.0229 40.9911 49.7952 41.3206C48.5676 41.65 47.2942 40.9088 46.9644 39.6825L46.1856 36.754C46.1581 36.6442 46.1398 36.5435 46.1215 36.4337C45.7367 36.2324 45.3794 36.0036 45.0588 35.7473C44.8847 35.6009 44.7015 35.4362 44.5274 35.2623C44.3075 35.0427 44.0968 34.7956 43.9044 34.5302C43.9685 34.3655 44.0693 34.2282 44.1976 34.1092Z" fill="#FB9C76"/>
<path d="M51.1053 33.2582C51.1144 33.2582 51.1236 33.2582 51.1328 33.2491L52.113 32.4987C52.1222 32.4895 52.1314 32.4712 52.1314 32.462C52.1314 32.4529 52.1222 32.4346 52.113 32.4254L50.1525 31.1076C50.1342 31.0893 50.1067 31.0985 50.0884 31.1168C50.07 31.1351 50.0792 31.1625 50.0975 31.1808L52.0031 32.462L51.0686 33.1667C51.0503 33.185 51.0411 33.2125 51.0595 33.2308C51.0778 33.2491 51.087 33.2582 51.1053 33.2582Z" fill="#EE906A"/>
<ellipse cx="50.7192" cy="29.7804" rx="0.824353" ry="0.210513" transform="rotate(-24.03 50.7192 29.7804)" fill="black"/>
<ellipse cx="48.2264" cy="30.8871" rx="0.925108" ry="0.210512" transform="rotate(-24.03 48.2264 30.8871)" fill="black"/>
<path d="M50.235 36.9644C50.5098 36.9644 50.7846 36.937 51.0595 36.8912C51.087 36.8912 51.1053 36.8638 51.0961 36.8363C51.087 36.8088 51.0686 36.7905 51.0412 36.7997C50.7572 36.8546 50.4731 36.8729 50.1891 36.8729C49.5936 36.8638 49.0073 36.7448 48.4393 36.5068C48.4118 36.4977 48.3935 36.5068 48.3752 36.5343C48.3569 36.5618 48.3752 36.5801 48.4027 36.5984C48.9798 36.8363 49.5753 36.9644 50.1891 36.9644C50.2075 36.9644 50.2166 36.9644 50.235 36.9644Z" fill="#EE906A"/>
<path d="M43.7212 35.0426C43.767 34.6948 43.9319 34.3654 44.1976 34.1092C44.8297 33.5052 45.8375 33.5326 46.4422 34.1732C47.0468 34.8047 47.0193 35.8113 46.378 36.4062C45.7459 37.0102 44.7381 36.9827 44.1426 36.3421C43.7945 35.9852 43.6571 35.5002 43.7212 35.0426Z" fill="#FB9C76"/>
<path d="M46.0757 35.7106C46.094 35.7106 46.1123 35.6923 46.1215 35.674C46.1307 35.6465 46.1123 35.6282 46.0848 35.6191C45.9199 35.5825 45.7825 35.4635 45.7367 35.3079C45.6817 35.1524 45.7184 34.9693 45.8375 34.8504C45.8466 34.8412 45.8558 34.8229 45.8466 34.8046C45.8466 34.7863 45.8283 34.7772 45.8192 34.7772L44.4999 34.3379C44.4724 34.3287 44.4541 34.347 44.4449 34.3653C44.4358 34.3928 44.4541 34.4111 44.4724 34.4202L45.7275 34.8412C45.6268 34.9876 45.5993 35.1707 45.6543 35.3354C45.7092 35.5276 45.8741 35.674 46.0757 35.7106C46.0757 35.7106 46.0665 35.7106 46.0757 35.7106Z" fill="#EE906A"/>
<path d="M42.5851 28.3713C42.5851 25.9553 45.2786 26.5227 45.2786 26.5227C46.1489 24.9212 48.2469 25.7265 48.5951 26.962C48.7325 26.9437 49.9876 26.8155 50.9221 27.7673C51.9573 28.838 51.6367 30.2656 51.6092 30.3572C51.4351 30.0735 51.261 29.8172 51.087 29.5976C50.5373 28.9021 49.9601 28.5086 49.7036 28.3255C49.3646 28.0784 48.9707 27.8497 48.5401 27.6666C47.9171 28.719 44.6098 28.7556 45.7825 30.9703C47.0651 33.4046 46.433 34.1641 46.433 34.1641C45.8283 33.5327 44.8297 33.5052 44.1884 34.1001C44.0601 34.2191 43.9594 34.3563 43.8769 34.5027C43.7853 34.6675 43.7303 34.8505 43.7028 35.0335C41.2017 34.1458 41.9896 31.7665 41.9896 31.7665C40.4872 29.5793 42.5851 28.3713 42.5851 28.3713Z" fill="black"/>
<ellipse cx="50.858" cy="30.6958" rx="0.24736" ry="0.247089" fill="black"/>
<ellipse cx="48.8882" cy="31.6658" rx="0.247359" ry="0.247089" fill="black"/>
<path d="M81.3473 87.8372C81.4206 88.5328 81.4939 89.2283 81.5672 89.9329C81.5855 90.0702 81.5946 90.2075 81.613 90.3447C81.787 90.299 81.9794 90.2441 82.181 90.1892C82.2085 90.18 82.236 90.1709 82.2726 90.1617C82.4925 90.1068 82.7215 90.0427 82.9597 89.9787C82.9872 89.9695 83.0238 89.9604 83.0513 89.9512C83.2712 89.8872 83.5002 89.8323 83.7384 89.7682C83.7659 89.759 83.8026 89.7499 83.83 89.7407C83.9858 89.695 84.1415 89.6584 84.2973 89.6126C84.3339 89.6035 84.3706 89.5943 84.4072 89.5852C84.6912 89.512 84.9752 89.4387 85.2409 89.3655C85.2684 89.3564 85.305 89.3472 85.3325 89.3381C85.5341 89.2832 85.7265 89.2374 85.9097 89.1917C85.9372 89.1825 85.9647 89.1734 86.0013 89.1734C86.2395 89.1093 86.4686 89.0544 86.6793 88.9995C86.7068 88.9903 86.7434 88.9812 86.7709 88.9812C86.8533 88.9629 86.9358 88.9354 87.0182 88.9171C86.9358 88.5328 86.6609 87.0685 86.4594 85.9978C86.3311 86.0436 86.212 86.0893 86.0838 86.1351C86.0471 86.1442 86.0196 86.1625 85.983 86.1717C85.7082 86.2632 85.4425 86.3639 85.1676 86.4645C85.1401 86.4737 85.1127 86.4828 85.076 86.492C84.9477 86.5377 84.8286 86.5835 84.7004 86.6293C84.6546 86.6476 84.6088 86.6659 84.563 86.675C84.5355 86.6842 84.4988 86.6933 84.4714 86.7116C84.2423 86.794 84.0133 86.8763 83.7842 86.9587C83.7568 86.9679 83.7201 86.977 83.6926 86.9953C83.4819 87.0685 83.2712 87.1509 83.0513 87.2241C83.0238 87.2332 82.9872 87.2424 82.9597 87.2607C82.7673 87.3339 82.5749 87.398 82.3825 87.4712C82.3551 87.4803 82.3276 87.4895 82.2909 87.4986C82.071 87.581 81.842 87.6634 81.6221 87.7366C81.5946 87.7457 81.5672 87.7549 81.5305 87.764C81.4664 87.8006 81.4023 87.8189 81.3473 87.8372Z" fill="#E4F3F5"/>
<path d="M59.3597 87.5536L59.8728 87.7641L59.9644 87.8007L60.5874 88.057L60.679 88.0936L61.1829 88.2949L61.2653 88.3315L61.7234 88.5237L61.815 88.5603L62.3189 88.7616L62.4014 88.7982L63.3725 89.1917L63.4549 89.2283L64.0687 89.4846L64.1512 89.5212L64.4077 89.631C64.5635 89.3656 64.7192 89.1094 64.8658 88.844C64.6917 88.7067 64.5268 88.5603 64.3527 88.423C64.3253 88.4047 64.3069 88.3773 64.2795 88.359C64.1604 88.2583 64.0321 88.1576 63.913 88.057C63.8855 88.0387 63.8672 88.0204 63.8397 88.0021C63.7023 87.8922 63.574 87.7824 63.4366 87.6726C63.4091 87.6543 63.3816 87.6268 63.3633 87.6085C63.1709 87.453 62.9877 87.2974 62.7953 87.1418C62.7678 87.1235 62.7403 87.0961 62.722 87.0778C62.5021 86.9039 62.2914 86.7209 62.0715 86.547C62.0441 86.5287 62.0257 86.5104 61.9982 86.4921C61.8425 86.3639 61.6868 86.2358 61.531 86.1077C61.5035 86.0894 61.476 86.0619 61.4486 86.0436C61.2378 85.8698 61.0271 85.6959 60.8164 85.522C60.7889 85.5037 60.7614 85.4763 60.734 85.4488C60.6882 85.4122 60.6423 85.3664 60.5874 85.3298C60.1934 86.0436 59.772 86.7941 59.3597 87.5536Z" fill="#E4F3F5"/>
<path d="M86.0655 87.4804C86.1113 87.5719 86.1571 87.636 86.2029 87.7092C86.2395 87.7641 86.2762 87.819 86.322 87.8922C86.5144 88.2125 86.6335 88.5969 86.6701 89.027C86.6976 89.0178 86.7343 89.0087 86.7618 89.0087C86.7159 88.5694 86.5968 88.1851 86.4045 87.8556C86.3586 87.7733 86.3128 87.7183 86.2854 87.6634C86.2395 87.5994 86.1937 87.5353 86.1571 87.4529C85.983 87.096 85.9555 86.6659 86.0838 86.1626C86.0472 86.1717 86.0197 86.1901 85.983 86.1992C85.8548 86.6842 85.8823 87.1143 86.0655 87.4804Z" fill="#79C4C6"/>
<path d="M85.076 86.5104C85.241 86.7575 85.3417 87.0045 85.3967 87.2608C85.415 87.3431 85.415 87.4255 85.4242 87.5079C85.4425 87.6726 85.4517 87.8373 85.5341 88.0844C85.5799 88.24 85.6257 88.3315 85.6715 88.4139C85.699 88.4779 85.7357 88.5328 85.7632 88.6243C85.8365 88.8074 85.8823 89.0087 85.9006 89.2192C85.9281 89.21 85.9556 89.2009 85.9922 89.2009C85.9739 88.9813 85.9281 88.7799 85.8548 88.5969C85.8181 88.5054 85.7906 88.4413 85.754 88.3773C85.7082 88.2857 85.6715 88.2125 85.6166 88.057C85.5433 87.819 85.525 87.6634 85.5066 87.4987C85.4975 87.4164 85.4883 87.334 85.47 87.2425C85.4242 86.9862 85.3142 86.73 85.1493 86.4829C85.131 86.4829 85.1035 86.4921 85.076 86.5104Z" fill="#79C4C6"/>
<path d="M83.1063 88.1759C83.1521 88.2674 83.1979 88.3314 83.2437 88.3955C83.2803 88.4504 83.317 88.5053 83.3628 88.5785C83.5643 88.9171 83.6834 89.3198 83.7201 89.7774C83.7476 89.7682 83.7842 89.7591 83.8117 89.7499C83.775 89.2832 83.6468 88.8805 83.4452 88.5328C83.3994 88.4504 83.3536 88.3955 83.317 88.3406C83.2712 88.2765 83.2345 88.2125 83.1887 88.1301C83.0605 87.8647 83.0146 87.5627 83.0421 87.2241C83.0146 87.2333 82.978 87.2424 82.9505 87.2607C82.923 87.6085 82.978 87.9105 83.1063 88.1759Z" fill="#79C4C6"/>
<path d="M82.2817 87.5078C82.355 87.6542 82.4008 87.8098 82.4283 87.9562C82.4466 88.0386 82.4466 88.1209 82.4558 88.2033C82.4741 88.368 82.4833 88.5328 82.5657 88.7798C82.6116 88.9354 82.6574 89.0269 82.7032 89.1093C82.7306 89.1734 82.7673 89.2283 82.7948 89.3198C82.8772 89.5303 82.923 89.7499 82.9322 89.9878C82.9597 89.9787 82.9963 89.9695 83.0238 89.9604C83.0055 89.7133 82.9597 89.4845 82.8772 89.274C82.8406 89.1825 82.8131 89.1184 82.7765 89.0544C82.7306 88.9629 82.694 88.8805 82.639 88.7341C82.5657 88.5053 82.5474 88.3406 82.5291 88.1758C82.5199 88.0935 82.5108 88.0111 82.5016 87.9196C82.4741 87.764 82.4192 87.6085 82.355 87.4529C82.3459 87.4803 82.3184 87.4986 82.2817 87.5078Z" fill="#79C4C6"/>
<path d="M81.5305 87.7732C81.5946 87.9104 81.6313 88.0477 81.6588 88.185C81.6771 88.2765 81.6863 88.3497 81.6863 88.4321C81.7046 88.5968 81.7229 88.7615 81.7962 89.0086C81.842 89.1642 81.8878 89.2557 81.9336 89.3381C81.9611 89.4021 81.9978 89.457 82.0252 89.5486C82.0985 89.7499 82.1535 89.9695 82.1627 90.1983C82.1901 90.1892 82.2176 90.18 82.2543 90.1709C82.2359 89.9329 82.1901 89.7133 82.1077 89.5119C82.071 89.4204 82.0436 89.3564 82.0069 89.2923C81.9611 89.2008 81.9245 89.1184 81.8695 88.972C81.7962 88.7432 81.7779 88.5785 81.7596 88.4138C81.7504 88.3314 81.7412 88.2491 81.7321 88.1575C81.7046 88.0111 81.6588 87.8738 81.6038 87.7366C81.5855 87.7549 81.558 87.764 81.5305 87.7732Z" fill="#79C4C6"/>
<path d="M83.995 87.5353C84.1049 87.8556 84.0957 88.1759 84.0866 88.3955C84.0774 88.6151 84.0591 88.7616 84.0316 88.8805C84.0041 89.0544 83.9858 89.1642 84.0408 89.3198C84.0866 89.4388 84.169 89.5394 84.279 89.631C84.3156 89.6218 84.3523 89.6127 84.3889 89.6035C84.2606 89.512 84.1782 89.4022 84.1324 89.2832C84.0774 89.1551 84.0957 89.0544 84.1232 88.8897C84.1415 88.7707 84.169 88.6151 84.1782 88.3864C84.1874 88.1667 84.1965 87.8373 84.0774 87.4987C84.0133 87.3065 83.9125 87.1235 83.7751 86.9587C83.7476 86.9679 83.711 86.977 83.6835 86.9953C83.8209 87.1692 83.9308 87.3523 83.995 87.5353Z" fill="#79C4C6"/>
<path d="M84.682 87.7275C84.6362 87.9105 84.5904 88.0752 84.682 88.2765C84.7462 88.4138 84.8286 88.4779 84.9111 88.5419C84.9752 88.5877 85.0485 88.6426 85.1126 88.7433C85.2226 88.908 85.2592 89.1276 85.2317 89.3839C85.2592 89.3747 85.2958 89.3656 85.3233 89.3564C85.3417 89.0819 85.2958 88.8622 85.1859 88.6884C85.1126 88.5785 85.0302 88.5145 84.9569 88.4596C84.8744 88.4047 84.8103 88.3498 84.7553 88.2308C84.682 88.0569 84.7187 87.9105 84.7645 87.7366C84.8011 87.5993 84.8378 87.4529 84.8286 87.2699C84.8103 87.0686 84.7187 86.8672 84.5629 86.675C84.5354 86.6842 84.4988 86.6934 84.4713 86.7117C84.6362 86.8947 84.7187 87.0869 84.737 87.279C84.7553 87.4529 84.7187 87.5902 84.682 87.7275Z" fill="#79C4C6"/>
<path d="M64.0779 89.4754L64.1603 89.512C64.2336 89.3381 64.2703 89.1642 64.2978 88.9812C64.3069 88.8988 64.3069 88.8348 64.3161 88.7798C64.3161 88.7066 64.3252 88.6426 64.3344 88.5511C64.3436 88.5053 64.3527 88.4504 64.371 88.4046C64.3436 88.3863 64.3252 88.3589 64.2978 88.3406C64.2703 88.4046 64.2519 88.4687 64.2428 88.5328C64.2245 88.6243 64.2245 88.6975 64.2153 88.7707C64.2153 88.8256 64.2153 88.8897 64.2061 88.972C64.1878 89.1368 64.142 89.3106 64.0779 89.4754Z" fill="#79C4C6"/>
<path d="M63.3726 89.1825L63.455 89.2191C63.4825 89.155 63.51 89.091 63.5283 89.0269C63.5558 88.9445 63.5649 88.8805 63.5741 88.8164C63.5924 88.7341 63.6016 88.6517 63.6566 88.5236C63.7299 88.3222 63.8123 88.2033 63.8856 88.0935C63.9039 88.0752 63.9131 88.0569 63.9222 88.0386C63.8948 88.0202 63.8764 88.0019 63.849 87.9836C63.8306 88.0019 63.8215 88.0294 63.8031 88.0477C63.7207 88.1667 63.6382 88.2856 63.5558 88.4961C63.51 88.6334 63.4917 88.7249 63.4733 88.8073C63.4642 88.8713 63.455 88.9262 63.4275 89.0086C63.4275 89.0635 63.4 89.1276 63.3726 89.1825Z" fill="#79C4C6"/>
<path d="M61.1737 88.2856L61.2562 88.3222C61.3478 88.066 61.4486 87.8006 61.5493 87.5352C61.6867 87.1783 61.7234 87.0868 61.7692 87.0044C61.8608 86.8305 61.9616 86.6658 62.099 86.5102C62.0715 86.4919 62.0532 86.4736 62.0257 86.4553C61.8883 86.62 61.7784 86.7848 61.6867 86.9678C61.6409 87.0593 61.6043 87.1508 61.4669 87.5077C61.3661 87.7731 61.2653 88.0294 61.1737 88.2856Z" fill="#79C4C6"/>
<path d="M60.5874 88.0477L60.679 88.0843C60.8073 87.9196 60.8897 87.7366 60.9081 87.5444C60.9172 87.4254 60.9081 87.3248 60.8897 87.2333C60.8714 87.1143 60.8531 87.0136 60.9081 86.8855C60.963 86.7482 61.0455 86.6933 61.1463 86.6293C61.2195 86.5835 61.302 86.5286 61.3753 86.4462C61.4669 86.3456 61.5219 86.2266 61.5585 86.0802C61.531 86.0619 61.5035 86.0344 61.4761 86.0161C61.4486 86.1625 61.3844 86.2907 61.302 86.3913C61.2379 86.4645 61.1646 86.5194 61.0913 86.5652C60.9813 86.6384 60.8806 86.7025 60.8164 86.8672C60.7523 87.0136 60.7706 87.1417 60.789 87.2607C60.7981 87.3522 60.8164 87.4346 60.8073 87.5536C60.789 87.7183 60.7157 87.8922 60.5874 88.0477Z" fill="#79C4C6"/>
<path d="M59.8636 87.7549L59.9553 87.7915C60.1293 87.6268 60.2393 87.4529 60.2759 87.2515C60.2942 87.1509 60.2851 87.0777 60.2851 87.0045C60.2759 86.9129 60.2759 86.8306 60.3034 86.6933C60.3492 86.5103 60.4317 86.4005 60.5141 86.2906C60.5599 86.2266 60.6149 86.1625 60.6607 86.0802C60.7523 85.9063 60.8164 85.705 60.8439 85.4853C60.8164 85.467 60.789 85.4396 60.7615 85.4121C60.7431 85.65 60.679 85.8514 60.5782 86.0344C60.5324 86.1076 60.4866 86.1717 60.4408 86.2357C60.3492 86.3547 60.2668 86.4645 60.2209 86.675C60.1843 86.8214 60.1935 86.9221 60.1935 87.0136C60.1935 87.0868 60.2026 87.1509 60.1843 87.2424C60.1477 87.4254 60.0469 87.5993 59.8636 87.7549Z" fill="#79C4C6"/>
<path d="M61.7234 88.5145L61.815 88.5511C61.815 88.4871 61.815 88.423 61.8333 88.3681C61.87 88.2491 61.9341 88.2034 62.044 88.1119C62.1265 88.0478 62.2364 87.9563 62.3647 87.819C62.493 87.6817 62.6945 87.4621 62.7953 87.1693C62.8044 87.151 62.8044 87.1327 62.8136 87.1144C62.7861 87.0961 62.7586 87.0686 62.7403 87.0503C62.7312 87.0777 62.722 87.1052 62.7128 87.1327C62.6121 87.4164 62.4197 87.6177 62.3006 87.755C62.1723 87.8922 62.0715 87.9746 61.9891 88.0386C61.87 88.1302 61.7875 88.1942 61.7417 88.3406C61.7326 88.3956 61.7234 88.4505 61.7234 88.5145Z" fill="#79C4C6"/>
<path d="M62.319 88.7523L62.4014 88.7889C62.4381 88.5967 62.5205 88.4686 62.6305 88.3954C62.6946 88.3588 62.7496 88.3497 62.8137 88.3405C62.887 88.3222 62.9786 88.3131 63.0885 88.2398C63.3084 88.1026 63.4 87.8829 63.4642 87.6541C63.4367 87.6358 63.4092 87.6084 63.3909 87.5901C63.3267 87.8189 63.2443 88.0294 63.0427 88.1666C62.9511 88.2307 62.8778 88.2398 62.8045 88.249C62.7404 88.2581 62.6671 88.2764 62.5938 88.3222C62.4472 88.3954 62.3556 88.5418 62.319 88.7523Z" fill="#79C4C6"/>
<path d="M81.6038 90.3447C81.6954 91.205 81.787 92.0652 81.8786 92.9163C82.8497 93.4013 83.8575 93.8863 84.9019 94.3622C86.5143 95.0943 88.0718 95.7349 89.5834 96.3206L94.1367 98.2241C94.1916 98.0045 94.2466 97.7299 94.2832 97.4371C94.2832 97.4371 94.3107 97.1717 94.3199 96.9338C94.329 96.3115 93.9901 95.4238 93.7885 95.076C92.9457 93.5843 89.0704 91.754 87.4763 89.6584C87.3205 89.4479 87.1648 89.2191 87.0182 88.9446C86.6609 88.4046 85.9921 88.1667 85.3783 88.3406C84.8011 88.5053 84.3797 89.0269 84.3339 89.6309C83.4177 89.8689 82.5107 90.1068 81.6038 90.3447Z" fill="#261A4C"/>
<path d="M94.3108 97.0436C94.3291 97.0436 94.3475 97.0344 94.3566 97.0161C94.3658 96.9887 94.3566 96.9704 94.3291 96.9521L81.7779 91.7632C81.7504 91.754 81.7321 91.7632 81.7138 91.7907C81.6955 91.8181 81.7138 91.8364 81.7413 91.8547L94.2925 97.0436C94.3017 97.0436 94.3017 97.0436 94.3108 97.0436Z" fill="#D5E0EA"/>
<path d="M87.8428 92.66C87.8519 92.66 87.8611 92.66 87.8703 92.6509L89.2811 91.7449C89.2995 91.7357 89.3086 91.6991 89.2903 91.6808C89.2811 91.6625 89.2445 91.6534 89.2262 91.6625L87.8153 92.5685C87.797 92.5777 87.7878 92.6143 87.8061 92.6326C87.8061 92.66 87.8245 92.66 87.8428 92.66Z" fill="#D5E0EA"/>
<path d="M87.2198 91.9371C87.2289 91.9371 87.2289 91.9371 87.2381 91.9371L88.7681 91.2873C88.7955 91.2782 88.8047 91.2507 88.7955 91.2233C88.7864 91.1958 88.7589 91.1867 88.7314 91.1958L87.2015 91.8456C87.174 91.8547 87.1648 91.8822 87.174 91.9096C87.1831 91.9188 87.2015 91.9371 87.2198 91.9371Z" fill="#D5E0EA"/>
<path d="M57.8848 90.235C58.4345 91.205 59.03 92.2117 59.6804 93.2275C60.6882 94.8198 61.7143 96.2841 62.7129 97.6202C64.4077 98.2516 66.1026 98.8922 67.7975 99.5328C67.8433 99.2766 67.8799 98.9014 67.8341 98.4529C67.7608 97.7391 67.5043 97.2084 67.3486 96.9247C66.4141 95.1584 65.5254 94.6826 64.765 93.0811C64.5268 92.5686 64.1604 91.7541 64.197 90.7291C64.2153 90.3265 64.2886 89.9513 64.4077 89.6035C64.3344 89.1551 64.0138 88.7799 63.5924 88.6426C63.0152 88.4504 62.5388 88.789 62.493 88.8256C61.4394 88.3955 60.3858 87.9654 59.3414 87.5444C59.3323 87.5627 59.2956 87.6359 59.2773 87.6543C58.8192 88.5236 58.352 89.3839 57.8848 90.235Z" fill="#261A4C"/>
<path d="M67.8341 98.5078C67.8525 98.5078 67.8708 98.4986 67.8799 98.4803C67.8891 98.4529 67.8799 98.4346 67.8525 98.4254L63.4916 96.7507L58.4436 89.2557C58.4253 89.2374 58.3978 89.2282 58.3795 89.2465C58.3612 89.2649 58.352 89.2923 58.3703 89.3106L63.4275 96.8148C63.4366 96.8239 63.4366 96.8331 63.4458 96.8331L67.8158 98.517C67.825 98.5078 67.8341 98.5078 67.8341 98.5078Z" fill="#D5E0EA"/>
<path d="M64.5818 93.1725C64.6093 93.1725 64.6276 93.1542 64.6276 93.1268C64.6276 93.0993 64.6093 93.081 64.5818 93.081L62.7404 93.0261C62.7221 93.0261 62.6946 93.0444 62.6946 93.0719C62.6946 93.0993 62.7129 93.1176 62.7404 93.1176L64.5818 93.1725Z" fill="#D5E0EA"/>
<path d="M64.3253 92.6234C64.3436 92.6234 64.3619 92.6051 64.3711 92.5868C64.3803 92.5593 64.3619 92.541 64.3344 92.5319L62.5388 92.1201C62.5113 92.1109 62.493 92.1292 62.4838 92.1567C62.4747 92.1841 62.493 92.2024 62.5205 92.2116L64.3161 92.6234H64.3253Z" fill="#D5E0EA"/>
<path d="M54.4858 67.0544C55.5669 67.0544 56.6479 67.0544 57.729 67.0453C56.822 65.1784 55.9242 63.3115 55.0172 61.4446C56.8037 60.2641 58.6177 58.9554 60.4408 57.5186C60.8714 57.18 61.2837 56.8506 61.7051 56.512C62.6212 56.695 63.9038 56.9695 65.4246 57.3447C67.0004 57.7291 68.0265 57.9762 69.1442 58.3239C71.3704 59.0103 74.2838 59.9346 77.1605 62.2133C77.3712 62.378 78.3057 63.1284 79.3501 64.2541C81.329 66.3864 82.8772 68.9854 85.076 75.4554C85.9738 78.0727 87.0274 81.4862 88.0077 85.5495C87.403 85.7325 86.8808 85.8972 86.4594 86.0253C86.2762 86.0802 86.2303 86.0985 86.1937 86.1077C85.8547 86.2175 85.589 86.3365 84.7095 86.6476C83.5918 87.0503 82.4741 87.453 81.3564 87.8465C80.8251 88.0386 80.2845 88.2308 79.7532 88.423L79.0752 88.6609C77.9209 83.8564 76.7574 79.0611 75.603 74.2566C74.9159 76.0594 73.8165 77.9172 72.4606 80.0861C70.097 83.8656 67.8982 87.096 66.011 89.7408C65.6812 89.4663 65.3513 89.2009 65.0215 88.9263C64.9757 88.8897 64.9299 88.8531 64.8933 88.8165C63.4732 87.6451 62.0532 86.4646 60.624 85.2932C59.7445 84.5703 58.865 83.8381 57.9855 83.1152C61.2378 79.0794 64.4993 75.0436 67.7517 71.0078C63.0701 69.5253 59.3414 68.4454 56.8037 67.7316C55.8692 67.4754 55.118 67.2649 54.4858 67.0544Z" fill="#261A4C"/>
<path d="M75.1815 75.2814C75.1999 75.2814 75.2182 75.2723 75.2274 75.254C75.9511 73.6891 76.2076 72.0327 75.9786 70.4678C75.5938 67.8871 74.018 66.2673 72.7538 64.9678C71.0955 63.2656 69.08 61.9844 66.7438 61.1516C66.7163 61.1425 66.698 61.1516 66.6889 61.1791C66.6797 61.2065 66.6889 61.2248 66.7163 61.234C69.0342 62.0576 71.0497 63.3388 72.6896 65.0318C73.9447 66.3222 75.5114 67.9328 75.887 70.4861C76.1801 72.4536 75.6396 74.1467 75.1449 75.2265C75.1357 75.2448 75.1449 75.2723 75.1632 75.2906C75.1724 75.2814 75.1815 75.2814 75.1815 75.2814Z" fill="#1F0D60"/>
<path d="M62.6761 87.0503C62.6945 87.0503 62.7128 87.0412 62.722 87.0229L70.326 69.5528C70.3351 69.5253 70.326 69.507 70.2985 69.4887L55.915 63.2017C55.8875 63.1925 55.8692 63.2017 55.8508 63.2291C55.8417 63.2566 55.8508 63.2749 55.8783 63.2932L70.2252 69.5619L62.6395 86.9862C62.6303 87.0137 62.6395 87.032 62.667 87.0503C62.667 87.0412 62.6761 87.0503 62.6761 87.0503Z" fill="#1F0D60"/>
<path d="M83.4635 87.1326C83.4727 87.1326 83.4818 87.1326 83.4818 87.1235C83.5002 87.1143 83.5093 87.0869 83.5002 87.0594L76.0152 72.3256C76.0061 72.3073 75.9786 72.2981 75.9511 72.3073C75.9328 72.3165 75.9236 72.3439 75.9328 72.3714L83.4177 87.1052C83.436 87.1235 83.4452 87.1326 83.4635 87.1326Z" fill="#1F0D60"/>
<path d="M33.0756 55.7706C38.8381 44.7248 40.6887 42.5101 43.199 40.7988C43.5105 40.5883 43.996 40.2589 44.5915 39.8928C47.1476 45.1732 49.7036 50.4627 52.2597 55.7431C53.1758 57.6375 54.092 59.5318 55.0081 61.4261C55.9151 63.293 56.8129 65.1599 57.7199 67.0268C56.6389 67.0268 55.5578 67.036 54.4768 67.036C54.0462 67.036 53.6156 67.036 53.1942 67.036C51.5634 67.036 49.9327 67.036 48.3019 67.0268C46.7903 61.4536 45.2786 55.8804 43.7762 50.3072C40.5971 55.1391 37.4181 59.9619 34.2391 64.7939C32.4709 64.5102 30.7027 64.2173 28.9346 63.9336C29.8782 62.021 31.2982 59.184 33.0756 55.7706Z" fill="#F46162"/>
<path d="M53.4782 38.1816C53.5057 38.1816 53.524 38.1907 53.5515 38.1907C53.579 38.1999 53.6156 38.1999 53.6523 38.209C53.7622 38.2273 53.8813 38.2456 54.0187 38.2731C54.0645 38.2822 54.1104 38.2914 54.1562 38.3005C54.202 38.3097 54.2569 38.3188 54.3027 38.3371C59.763 39.5634 61.7602 44.011 63.6383 43.6907C63.6383 43.6907 63.6383 43.6907 63.6474 43.6907C63.6658 43.6907 63.6933 43.6816 63.7116 43.6816C64.756 43.4345 65.9561 41.6591 66.1485 34.0451C66.1485 34.0451 66.1485 34.0451 66.1577 34.0451C67.5777 33.7157 68.9977 33.3954 70.4086 33.0659C70.4086 33.0659 70.4178 33.0659 70.4269 33.0659C71.2698 37.6599 70.9949 41.3388 70.6377 43.6907C70.1246 47.0402 69.6574 50.1059 67.4586 51.1583C66.2676 51.7257 64.9667 51.5244 63.6016 51.0576C62.942 50.8288 62.2732 50.5543 61.5953 50.2615C61.467 50.2066 61.3388 50.1516 61.2105 50.0876C61.1738 50.0693 61.128 50.051 61.0914 50.0327C61.2746 50.3438 61.467 50.6641 61.6594 50.9936C62.0442 51.6433 62.4473 52.3205 62.8046 52.9337C63.6749 54.4071 64.5453 55.8713 65.4156 57.3447C65.2415 57.2989 65.0675 57.2623 64.8934 57.2165C63.8856 56.9786 62.8229 56.7407 61.6961 56.5119C60.5325 53.7939 59.3324 51.0393 58.0773 48.2573C57.9215 47.9187 57.7749 47.5801 57.6192 47.2415C56.2908 44.313 54.9532 41.4395 53.6156 38.63L53.3866 38.1724C53.4141 38.1724 53.4416 38.1816 53.4782 38.1816Z" fill="#F46162"/>
<path d="M61.641 50.9937C61.6502 50.9937 61.6593 50.9937 61.6593 50.9845C61.6776 50.9754 61.6868 50.9479 61.6776 50.9204L59.0941 46.2441C59.0849 46.2258 59.0575 46.2166 59.03 46.2258C59.0117 46.2349 59.0025 46.2624 59.0117 46.2898L61.5952 50.9662C61.6043 50.9845 61.6227 50.9937 61.641 50.9937Z" fill="#1F0D60"/>
<path fill-rule="evenodd" clip-rule="evenodd" d="M68.2298 29.4236C67.3961 29.8904 66.9839 30.1283 66.7915 30.4394C66.6999 30.5859 66.535 30.9153 66.6907 33.2398C66.709 33.5692 66.7273 33.8438 66.7457 34.0177C67.5237 33.836 68.3045 33.6571 69.0865 33.4779C69.7227 33.3322 70.3596 33.1862 70.9966 33.0384H71.0149C71.1981 32.5809 71.3722 32.0958 71.5371 31.5651C71.7112 30.9885 71.8578 30.4394 71.9769 29.9178C72.096 29.6067 71.9402 29.2589 71.6287 29.1399C71.6104 29.1354 71.5898 29.1308 71.5692 29.1262C71.5486 29.1216 71.528 29.1171 71.5096 29.1125L73.1862 28.4261C73.4885 28.3072 73.6259 27.9686 73.5068 27.6757C73.3877 27.3829 73.0488 27.2456 72.7556 27.3646C71.8211 27.7672 70.8958 28.179 69.9705 28.5909C69.5399 28.7647 68.9261 29.0301 68.2298 29.4236ZM70.1721 31.3454C70.0438 31.6017 69.7964 31.7389 69.5949 31.684C69.4758 31.6474 69.3933 31.5651 69.3567 31.501C69.5308 31.2356 69.7231 30.9611 69.9155 30.6865C70.2545 30.2198 70.5935 29.7714 70.9233 29.3596C70.8958 29.4053 70.8683 29.4511 70.85 29.4968C70.6301 30.1191 70.4011 30.7323 70.1721 31.3454L70.1721 31.3454Z" fill="#FB9C76"/>
<path d="M24.7403 66.2032C24.7037 66.1391 24.6854 66.075 24.6762 66.0018C24.6304 65.6724 24.8594 65.3704 25.1893 65.3246H25.2076C25.2442 65.0318 25.5008 64.803 25.8031 64.803H29.0646L29.5135 63.9519L34.818 64.8121C34.6073 65.3429 34.479 65.7822 34.4057 66.0842C34.3141 66.4594 34.2591 66.7614 34.0118 67.0634C33.856 67.2464 32.0512 68.674 31.3 69.2963C31.0526 69.516 30.6678 69.4885 30.4571 69.2506C30.2372 69.0035 30.2556 68.6191 30.5029 68.4087L32.0054 67.0725C31.6573 67.0725 31.3 67.0725 30.9518 67.0725L26.3161 68.5276C26.0046 68.6283 25.6657 68.4544 25.5649 68.1341C25.4641 67.8138 25.6382 67.4844 25.9588 67.3837L26.9483 67.0725L25.1618 67.3105C24.832 67.3562 24.5296 67.1275 24.4838 66.798C24.4472 66.5509 24.5571 66.3221 24.7403 66.2032Z" fill="#FB9C76"/>
<path d="M26.9391 67.1C26.9483 67.1 26.9483 67.1 26.9575 67.1L28.4874 66.5875C28.5149 66.5784 28.5241 66.5509 28.5149 66.5326C28.5057 66.5051 28.4783 66.496 28.4599 66.5051L26.93 67.0176C26.9025 67.0268 26.8933 67.0542 26.9025 67.0725C26.9025 67.0908 26.9208 67.1 26.9391 67.1Z" fill="black"/>
<path d="M24.7403 66.2488C24.7403 66.2488 24.7495 66.2488 24.7403 66.2488L28.35 65.7089C28.3774 65.7089 28.3958 65.6814 28.3866 65.654C28.3866 65.6265 28.3591 65.6082 28.3316 65.6174L24.722 66.1573C24.6945 66.1573 24.6762 66.1848 24.6854 66.2122C24.7037 66.2305 24.722 66.2488 24.7403 66.2488Z" fill="black"/>
<path d="M25.2076 65.3612C25.2076 65.3612 25.2167 65.3612 25.2076 65.3612L28.2217 65.1599C28.2492 65.1599 28.2675 65.1324 28.2675 65.1141C28.2675 65.0867 28.24 65.0684 28.2217 65.0684L25.2076 65.2697C25.1801 65.2697 25.1617 65.2971 25.1617 65.3154C25.1709 65.3429 25.1892 65.3612 25.2076 65.3612Z" fill="black"/>
<path fill-rule="evenodd" clip-rule="evenodd" d="M51.3401 34.4229C51.6443 34.394 52.1709 34.1495 52.1709 34.1495C52.1917 34.3722 52.1155 34.599 51.9597 34.7775C51.804 34.956 51.5822 35.0708 51.3455 35.0956C50.8447 35.1332 50.4257 34.7904 50.395 34.318C50.395 34.318 51.0524 34.4502 51.3401 34.4229Z" fill="#EE906A"/>
</svg>
