<svg width="129" height="101" viewBox="0 0 129 101" fill="none" xmlns="http://www.w3.org/2000/svg">
<rect x="9.12354" y="62.0627" width="37.5861" height="5.37825" rx="2.68912" fill="#C9C9C9"/>
<rect x="21.4733" y="67.4409" width="12.8868" height="3.22684" fill="black"/>
<rect x="25.7688" y="70.6685" width="4.29559" height="21.5141" fill="#DEDEDE"/>
<path d="M27.2391 88.9551L16.104 93.9837L16.2627 95.4093L27.8733 91.675L27.2391 88.9551Z" fill="#DEDEDE"/>
<path d="M28.5957 88.9551L39.7309 93.9837L39.5722 95.4093L27.9615 91.675L28.5957 88.9551Z" fill="#DEDEDE"/>
<path d="M37.0448 95.4094C37.0448 96.4972 37.699 97.4779 38.7023 97.8941C39.7057 98.3103 40.8605 98.0801 41.6284 97.3109C42.3962 96.5416 42.6258 95.3847 42.21 94.3798C41.7943 93.3749 40.8151 92.7197 39.7291 92.72C39.0171 92.72 38.3342 93.0033 37.8308 93.5077C37.3274 94.0121 37.0447 94.6961 37.0448 95.4094Z" fill="black"/>
<path d="M13.4191 95.4094C13.4191 96.4972 14.0733 97.4779 15.0766 97.8941C16.08 98.3103 17.2348 98.0801 18.0026 97.3109C18.7705 96.5416 19 95.3847 18.5843 94.3798C18.1686 93.3749 17.1894 92.7197 16.1034 92.72C15.3914 92.72 14.7085 93.0033 14.2051 93.5077C13.7017 94.0121 13.4189 94.6961 13.4191 95.4094Z" fill="black"/>
<path d="M34.022 56.6839H9.51022C7.77772 56.6947 6.29167 55.4486 5.99752 53.7383L0.0423987 17.724C-0.117668 16.7001 0.180159 15.6575 0.856704 14.8734C1.53325 14.0893 2.51997 13.6431 3.55455 13.6535H28.0669C29.7985 13.6425 31.2843 14.8872 31.5796 16.5963L37.5347 52.6106C37.6955 53.635 37.398 54.6784 36.7212 55.4631C36.0445 56.2478 35.0572 56.6944 34.022 56.6839Z" fill="#DEDEDE"/>
<path d="M38.5785 42.5087C39.3443 43.5288 40.4732 44.2164 41.7323 44.4297L64.3 42.486L64.8653 39.2511L44.1421 37.3357L38.5785 42.5087Z" fill="#D2A096"/>
<path d="M64.4824 39.2489C64.4824 39.2489 72.4219 35.8613 73.9554 42.4838H63.9171L64.4824 39.2489Z" fill="#D2A096"/>
<path d="M25.5867 32.0006L38.6625 43.1342C40.2088 44.452 42.5048 44.383 43.969 42.9748C44.7354 42.2387 45.1721 41.2254 45.1802 40.1639C45.1884 39.1024 44.7674 38.0824 44.0124 37.3347L32.4133 25.8313L25.5867 32.0006Z" fill="#D2A096"/>
<path d="M37.3716 28.8201L29.8183 36.1329L19.4834 28.954C19.4834 28.954 20.8004 23.1229 24.8545 21.9566C28.9085 20.7904 32.7979 25.803 37.3716 28.8201Z" fill="#ADDDDD"/>
<path d="M21.6401 20.6299L15.4082 23.827C14.3536 24.3676 13.6906 25.4515 13.6906 26.6348V33.9221L14.543 50.8551L32.5514 51.1744L31.8737 27.5789C31.7821 24.8453 29.8589 22.5155 27.1881 21.9027L21.6401 20.6299Z" fill="#ADDDDD"/>
<path d="M16.9606 23.0312L21.6423 20.6299L25.8065 21.5851C25.8065 21.5851 28.3844 23.3844 26.6734 24.5839C22.6321 27.4212 16.9606 23.0312 16.9606 23.0312Z" fill="#E1AAA5"/>
<path d="M32.0295 33.9914C32.0852 33.9359 31.8754 27.5789 31.8754 27.5789" stroke="black" stroke-width="0.5" stroke-linecap="round" stroke-linejoin="round"/>
<path d="M39.3147 36.7432L40.2901 33.1551C40.437 32.6141 40.8074 32.1608 41.3089 31.9084L44.826 30.1379L44.4421 31.6929L43.1345 32.6703C43.0493 32.7076 42.9832 32.7782 42.9517 32.8656C42.9201 32.9529 42.9259 33.0494 42.9676 33.1324C43.0683 33.3317 43.2708 33.3462 43.4683 33.2434L49.0987 30.4112C49.0987 30.4112 51.1185 31.7729 48.5301 34.6318C45.9416 37.4907 43.6726 37.614 40.8315 39.741L39.3147 36.7432Z" fill="#E1AAA5"/>
<path d="M43.2692 33.3484L44.2535 28.5624C44.2779 28.4424 44.359 28.3414 44.471 28.2914L49.5812 26.3294C49.7058 26.2739 49.8507 26.2892 49.961 26.3694C50.0713 26.4497 50.1301 26.5827 50.1153 26.7181L49.0626 30.4312L43.2692 33.3484Z" fill="#4D4D4D"/>
<path d="M39.5611 36.0195L26.181 42.1839C24.4538 42.9358 23.6561 44.9363 24.3932 46.6672C25.2546 48.6892 27.7723 49.3917 30.4265 48.111L41.271 39.4221L39.5611 36.0195Z" fill="#E1AAA5"/>
<path d="M18.9069 29.4104L30.3947 42.1706C31.7549 43.6797 31.7448 45.973 30.3713 47.4702C29.6539 48.2541 28.65 48.7161 27.5868 48.7516C26.5236 48.7872 25.491 48.3933 24.7226 47.659L12.9032 36.3805L18.9069 29.4104Z" fill="#E1AAA5"/>
<path d="M14.0127 40.1412L23.7366 33.511L16.2806 23.3843C16.2806 23.3843 11.9406 24.862 10.8756 28.9377C9.81064 33.0134 10.8756 35.6568 14.0127 40.1412Z" fill="#ADDDDD"/>
<path d="M23.0317 33.992L18.907 29.4104" stroke="black" stroke-width="0.5" stroke-linecap="round" stroke-linejoin="round"/>
<path d="M15.569 39.0815L14.1345 40.0601" stroke="black" stroke-width="0.5" stroke-linecap="round" stroke-linejoin="round"/>
<ellipse cx="25.8059" cy="7.72156" rx="6.78215" ry="6.7691" transform="rotate(-1.226 25.8059 7.72156)" fill="#371405"/>
<path d="M22.6104 12.3279L19.041 22.8794L25.032 23.9412L27.1886 15.9198L22.6104 12.3279Z" fill="#E1AAA5"/>
<path d="M24.0983 15.6506L26.295 19.2414L27.1647 16.0271L24.939 15.1941L24.0983 15.6506Z" fill="#E1AAA5"/>
<path d="M27.0707 1.65078C27.0707 1.65078 33.6514 3.113 33.8389 7.47079C34.0265 11.8286 33.1273 18.0312 30.7603 18.3144C28.3933 18.5977 23.4551 17.0049 22.655 13.7534C21.8548 10.5019 22.8786 1.09543 27.0707 1.65078Z" fill="#E1AAA5"/>
<path d="M33.2429 11.5132L34.6112 13.7951C34.649 13.8875 34.6343 13.993 34.5727 14.0715C34.511 14.1501 34.4118 14.1896 34.3129 14.175L32.6387 14.0333L33.2429 11.5132Z" fill="#E1AAA5"/>
<path d="M32.6854 11.5827C32.6391 11.8311 32.3998 11.995 32.1509 11.9488C31.902 11.9027 31.7377 11.6639 31.7839 11.4155C31.8301 11.167 32.0693 11.003 32.3182 11.049C32.4379 11.071 32.5439 11.1396 32.6128 11.2398C32.6817 11.3399 32.7079 11.4633 32.6854 11.5827Z" fill="black"/>
<path d="M33.2441 9.06306C33.2441 9.06306 33.3158 9.61007 32.4935 9.50733C31.9024 9.45704 31.308 9.45983 30.7174 9.51566C30.5161 9.5355 30.3222 9.43458 30.2233 9.25854C30.1595 9.13157 30.202 8.97703 30.3218 8.90034C30.8956 8.57164 31.5531 8.41724 32.2136 8.45607C33.1923 8.56936 33.2441 9.06306 33.2441 9.06306Z" fill="black"/>
<path d="M32.9831 15.1858C32.3636 15.2945 31.7291 15.1051 31.271 14.6749" stroke="black" stroke-width="0.36" stroke-linecap="round" stroke-linejoin="round"/>
<path d="M26.339 10.9246C26.339 10.9246 30.8053 7.62032 26.7062 5.50557L33.0989 5.28343C33.0989 5.28343 32.5725 1.30606 25.9066 0.955078L21.6923 5.43893C21.6923 5.43893 20.1388 10.9019 22.2565 13.3715L22.9203 13.4787C23.7776 13.6168 24.6541 13.3985 25.3458 12.8744L26.339 10.9246Z" fill="#371405"/>
<path d="M27.0706 11.1177C26.9732 12.1941 26.0199 12.9879 24.9414 12.8906C23.8629 12.7934 23.0676 11.842 23.1649 10.7656C23.2623 9.68914 24.2155 8.89529 25.294 8.99242C25.8121 9.03892 26.2903 9.28902 26.6236 9.68763C26.9568 10.0863 27.1176 10.6007 27.0706 11.1177Z" fill="#E1AAA5"/>
<path d="M24.6074 10.272C24.6074 10.272 25.6596 10.1787 26.0574 11.5793" stroke="black" stroke-width="0.5" stroke-linecap="round" stroke-linejoin="round"/>
<path d="M33.0983 5.28116C33.0983 5.28116 37.2959 5.26283 34.2451 0.116455L25.1171 0.987235L33.0983 5.28116Z" fill="#371405"/>
<path d="M27.6827 8.44653L28.5257 15.1929L29.6691 15.2173C29.6691 15.2173 30.5004 13.4929 33.2457 14.1788C33.1073 15.7169 32.6008 17.1994 31.769 18.5016C31.4907 18.9607 30.9514 19.193 30.4258 19.0803C29.1038 18.7876 26.502 18.0451 24.6068 16.4563L27.0784 9.52057L27.6827 8.44653Z" fill="#371405"/>
<path d="M59.7823 91.7405H66.7676L78.3199 97.9087L58.4558 97.6721L59.7823 91.7405Z" fill="black"/>
<path d="M58.3868 99.8446L58.4558 97.6721L78.3199 97.9087L78.2509 100.081L58.3868 99.8446Z" fill="white"/>
<path d="M64.2114 81.9109H57.0892L59.7795 91.7405H66.9016L64.2114 81.9109Z" fill="#E4A29A"/>
<path d="M46.1412 50.6777L52.7292 51.2764C56.1023 51.4895 58.9709 53.8094 59.8792 57.0586L66.87 86.9217L56.8372 87.3771L47.9435 59.5999L46.1412 50.6777Z" fill="#1F143C"/>
<path d="M55.5752 88.2657H68.2181L67.3473 83.6458H54.7056L55.5752 88.2657Z" fill="#1F143C"/>
<path d="M41.1757 91.74H48.161L59.7133 97.9082L39.8492 97.6716L41.1757 91.74Z" fill="black"/>
<path d="M39.7825 99.8441L39.8515 97.6716L59.7155 97.9082L59.6465 100.081L39.7825 99.8441Z" fill="white"/>
<path d="M48.6762 81.9104H41.5541L41.173 91.74H48.2951L48.6762 81.9104Z" fill="#E4A29A"/>
<path d="M14.2213 50.6372H45.4669C48.7293 50.6359 51.3887 53.2486 51.4389 56.5044C51.5886 66.5201 50.8124 88.3573 50.3405 88.2635C49.7029 88.1363 40.024 88.2635 40.024 88.2635L40.1164 63.4768L25.6523 63.1486C24.2858 63.1126 22.925 62.9574 21.5855 62.6849C17.991 61.9412 11.8966 59.721 14.2213 50.6372Z" fill="#261A4C"/>
<rect x="52.0181" y="88.2656" width="13.0669" height="4.61991" transform="rotate(180 52.0181 88.2656)" fill="#261A4C"/>
<path d="M39.5983 44.0637L29.9302 97.6202" stroke="#273237" stroke-width="2.003"/>
<path d="M100.831 44.0637L110.499 97.6202" stroke="#273237" stroke-width="2.003"/>
<path d="M126.746 46.2059H12.6098C11.4604 46.1686 10.5584 45.2103 10.5939 44.0642C10.5581 42.9178 11.4601 41.959 12.6098 41.9214H126.746C127.896 41.959 128.798 42.9177 128.762 44.0642C128.798 45.2104 127.895 46.1686 126.746 46.2059Z" fill="#2E2E2E"/>
<path d="M61.3974 0H102.024C103.251 0 104.245 1.00037 104.245 2.23439V28.2194C104.245 29.4537 103.251 30.4543 102.024 30.4543H61.3979C60.1711 30.4543 59.1766 29.4537 59.1766 28.2194V2.23439C59.1766 1.00037 60.1709 0 61.3974 0Z" fill="#C9C9C9"/>
<path d="M64.5863 0H105.213C106.44 0 107.434 1.00037 107.434 2.23439V28.2194C107.434 29.4537 106.44 30.4543 105.213 30.4543H64.5863C63.9973 30.4543 63.4323 30.2189 63.0158 29.7997C62.5994 29.3806 62.3655 28.8121 62.3656 28.2194V2.23439C62.3656 1.00037 63.3599 0 64.5863 0Z" fill="#DEDEDE"/>
<ellipse cx="85.8754" cy="11.319" rx="2.64284" ry="2.65908" fill="#C9C9C9"/>
<path d="M82.1423 19.3403L83.813 37.5415C83.9268 38.7789 83.5257 40.0085 82.7051 40.9374H72.7276C72.4168 40.9374 72.1648 41.1909 72.1648 41.5036C72.1648 41.8164 72.4168 42.0699 72.7276 42.0699H93.6382L93.8232 41.8837C95.0023 40.698 95.4608 38.9682 95.0253 37.3492L90.1811 19.3403H82.1423Z" fill="#AAAAAA"/>
<path d="M49.034 40.9285H65.5641C65.7146 40.9285 65.859 40.9887 65.9654 41.0958C66.0718 41.203 66.1315 41.3483 66.1313 41.4997C66.1313 41.8149 65.8774 42.0705 65.5641 42.0705H49.034C48.7208 42.0705 48.4668 41.8149 48.4668 41.4997C48.4667 41.3483 48.5263 41.203 48.6327 41.0958C48.7391 40.9887 48.8835 40.9285 49.034 40.9285Z" fill="#F46162"/>
</svg>
